<?xml version="1.0" encoding="UTF-8"?>
<svg version="1.1" xmlns="http://www.w3.org/2000/svg" width="1000" height="292">
<path d="M0 0 C2.4208212 2.14988627 4.79326285 4.32836511 7.125 6.57421875 C7.87652344 7.25871094 8.62804687 7.94320312 9.40234375 8.6484375 C11.125 10.57421875 11.125 10.57421875 11.125 13.57421875 C10.40248047 13.73913818 9.67996094 13.90405762 8.93554688 14.07397461 C-37.21814018 24.74865476 -78.87993366 44.69770696 -114.41210938 76.27441406 C-116.51139311 78.1396655 -118.63202653 79.98024884 -120.75 81.82421875 C-121.79235852 82.74009862 -122.83435977 83.65638699 -123.875 84.57421875 C-122.92078192 85.72348141 -121.96147955 86.86852416 -121 88.01171875 C-120.19949219 88.96884766 -120.19949219 88.96884766 -119.3828125 89.9453125 C-117.9527243 91.68226879 -117.9527243 91.68226879 -115.875 92.57421875 C-113.37490421 91.44700718 -113.37490421 91.44700718 -110.5390625 89.734375 C-109.42619873 89.09153564 -108.31333496 88.44869629 -107.16674805 87.78637695 C-105.94446493 87.06988182 -104.72221653 86.35332746 -103.5 85.63671875 C-102.23722893 84.90433981 -100.97395617 84.17282524 -99.71020508 83.44213867 C-97.07679141 81.9185914 -94.44560175 80.3913037 -91.81591797 78.86132812 C-86.33151532 75.67391562 -80.82295069 72.52898458 -75.31317139 69.38571167 C-73.55155339 68.38047224 -71.79059265 67.37409 -70.02978516 66.36743164 C-61.90381111 61.72313801 -53.76018349 57.11074776 -45.60742188 52.51367188 C-39.12964578 48.85780798 -32.66827307 45.17389436 -26.21411133 41.4765625 C-23.8005278 40.09421871 -21.38501681 38.71534848 -18.9675293 37.33984375 C-13.76017952 34.37592795 -8.56287957 31.40080115 -3.4140625 28.3359375 C-2.60364502 27.86244873 -1.79322754 27.38895996 -0.95825195 26.90112305 C0.48992895 26.05488466 1.92995991 25.19443044 3.35864258 24.31567383 C8.22549499 21.5066222 12.53310051 20.56580102 18.125 21.57421875 C23.15116526 24.00373094 25.7888141 27.39041555 28.5 32.13671875 C28.87793701 32.78656738 29.25587402 33.43641602 29.64526367 34.10595703 C47.2864252 65.3429856 51.31218905 100.96336188 42.125 135.57421875 C36.71260576 154.16461635 24.3279416 182.01435871 6.86328125 191.84765625 C6.28964844 192.08742188 5.71601563 192.3271875 5.125 192.57421875 C5.02703125 191.66800781 4.9290625 190.76179687 4.828125 189.828125 C2.97995064 174.77187695 -2.68022525 163.87473635 -13.875 153.57421875 C-12.39423722 150.06134536 -10.41194424 148.01813674 -7.625 145.44921875 C1.91099107 136.09720178 6.45691151 125.28941744 7.18359375 112.0390625 C6.90762277 95.71997829 -0.52640387 83.59856928 -11.875 72.57421875 C-10.75157457 69.20394246 -9.96168789 68.64233067 -7.25 66.51171875 C3.34917361 57.45113486 7.88815479 46.17764772 9.125 32.57421875 C-5.96915829 40.92264361 -21.02766924 49.32261226 -35.984375 57.91552734 C-41.14695137 60.87790436 -46.31638824 63.82828838 -51.4848938 66.78030396 C-55.47008181 69.05661311 -59.45511861 71.33316576 -63.43701172 73.61523438 C-65.88609531 75.01073549 -68.33965882 76.39460427 -70.80126953 77.76757812 C-71.44612808 78.12962341 -72.09098663 78.4916687 -72.75538635 78.86468506 C-74.00091301 79.56364311 -75.24882732 80.25836769 -76.49937439 80.94830322 C-79.75963362 82.67245067 -79.75963362 82.67245067 -81.875 85.57421875 C-81.36044341 88.02571101 -81.36044341 88.02571101 -80.5 90.76171875 C-75.85500453 107.09343799 -78.11707001 121.80978906 -83.875 137.57421875 C-83.15691162 137.8381543 -82.43882324 138.10208984 -81.69897461 138.37402344 C-78.7969605 139.60738571 -76.3364718 141.06410938 -73.69140625 142.77734375 C-72.69302734 143.42058594 -71.69464844 144.06382812 -70.66601562 144.7265625 C-69.60060547 145.41878906 -68.53519531 146.11101562 -67.4375 146.82421875 C-66.31346393 147.549964 -65.18911017 148.27521742 -64.06445312 149 C-61.76875453 150.47967105 -59.47414582 151.96101019 -57.18017578 153.44335938 C-52.42552882 156.50869833 -47.65123534 159.54267269 -42.875 162.57421875 C-33.77500109 168.35807394 -24.69052381 174.16597207 -15.61132812 179.98242188 C-9.04011727 184.19163067 -2.46110298 188.38834852 4.125 192.57421875 C3.125 195.57421875 3.125 195.57421875 0.875 196.82421875 C-2.37902261 197.71167946 -3.64885345 197.54431876 -6.875 196.57421875 C-9.43169749 195.07626743 -11.8624424 193.54229558 -14.3125 191.88671875 C-15.84177249 190.87528011 -17.37175521 189.86491474 -18.90234375 188.85546875 C-19.71171387 188.31921875 -20.52108398 187.78296875 -21.35498047 187.23046875 C-25.66303435 184.39905647 -30.02056913 181.64605119 -34.375 178.88671875 C-43.44724901 173.12447473 -52.50277894 167.33651929 -61.55224609 161.53857422 C-66.54244528 158.34265596 -71.53540975 155.15138455 -76.5390625 151.9765625 C-77.44672363 151.40035156 -78.35438477 150.82414063 -79.28955078 150.23046875 C-81.0810027 149.0944733 -82.87362714 147.96032457 -84.66748047 146.828125 C-89.56928143 143.72302503 -94.4143906 140.55104137 -99.21875 137.296875 C-100.26788574 136.59248291 -101.31702148 135.88809082 -102.39794922 135.16235352 C-104.4295389 133.79479594 -106.45242708 132.41420074 -108.46533203 131.01928711 C-109.83214111 130.10288452 -109.83214111 130.10288452 -111.2265625 129.16796875 C-112.02916504 128.61818359 -112.83176758 128.06839844 -113.65869141 127.50195312 C-115.84103349 126.30186613 -115.84103349 126.30186613 -118.00537109 127.29101562 C-121.60273365 129.76003333 -124.82058686 132.46668538 -127.875 135.57421875 C-122.0847448 142.77439425 -116.1873038 149.82483111 -109.875 156.57421875 C-108.98167969 157.53328125 -108.08835937 158.49234375 -107.16796875 159.48046875 C-80.86071884 187.09391097 -46.11321013 198.98604809 -8.875 202.57421875 C-10.88290799 208.59794272 -19.26019819 211.70046962 -24.75048828 214.54638672 C-54.92696933 229.48951029 -89.8051071 231.2677127 -121.73046875 221.0703125 C-155.87922786 209.50046796 -181.65414898 185.24391525 -197.6796875 153.25390625 C-212.24374897 123.00166999 -212.64285164 86.88246275 -201.90917969 55.42700195 C-196.55215006 40.66781078 -189.03955075 27.52001714 -178.875 15.57421875 C-178.13507813 14.68347656 -177.39515625 13.79273438 -176.6328125 12.875 C-157.58569058 -9.25626443 -128.5818551 -24.56866964 -99.58203125 -28.1796875 C-63.60938124 -30.56775594 -28.15319519 -23.75425844 0 0 Z M-152.2578125 74.5078125 C-154.08043609 76.39938854 -154.08043609 76.39938854 -153.875 78.57421875 C-146.09859865 78.17542894 -140.32307134 73.2306516 -135.125 67.82421875 C-105.85632757 37.45652503 -62.8206152 25.08281392 -22.875 16.57421875 C-22.875 16.24421875 -22.875 15.91421875 -22.875 15.57421875 C-68.70754597 12.87111971 -122.16029178 41.23390983 -152.2578125 74.5078125 Z M-148.875 96.57421875 C-151.81607894 99.59269451 -153.82685329 102.47691796 -154.875 106.57421875 C-154.68700474 112.49606958 -153.71385626 115.88228333 -149.875 120.57421875 C-146.14804221 123.9375709 -143.61290876 125.41026509 -138.5625 125.88671875 C-132.86715969 125.40406279 -129.6700613 122.66665431 -126.0625 118.44921875 C-122.5239317 113.79852898 -122.17702705 110.32280154 -122.875 104.57421875 C-125.56227079 99.29920572 -129.12934594 95.91356219 -134.4375 93.32421875 C-140.19178644 91.55366908 -144.08695002 93.5398167 -148.875 96.57421875 Z " fill="#BA52D3" transform="translate(208.875,64.42578125)"/>
<path d="M0 0 C5.02616526 2.42951219 7.6638141 5.8161968 10.375 10.5625 C10.75293701 11.21234863 11.13087402 11.86219727 11.52026367 12.53173828 C29.1614252 43.76876685 33.18718905 79.38914313 24 114 C18.58760576 132.5903976 6.2029416 160.44013996 -11.26171875 170.2734375 C-11.83535156 170.51320313 -12.40898437 170.75296875 -13 171 C-13.09796875 170.09378906 -13.1959375 169.18757812 -13.296875 168.25390625 C-15.14504936 153.1976582 -20.80522525 142.3005176 -32 132 C-30.51923722 128.48712661 -28.53694424 126.44391799 -25.75 123.875 C-16.21400893 114.52298303 -11.66808849 103.71519869 -10.94140625 90.46484375 C-11.21737723 74.14575954 -18.65140387 62.02435053 -30 51 C-28.87657457 47.62972371 -28.08668789 47.06811192 -25.375 44.9375 C-14.77582639 35.87691611 -10.23684521 24.60342897 -9 11 C-24.09415829 19.34842486 -39.15266924 27.74839351 -54.109375 36.34130859 C-59.27195137 39.30368561 -64.44138824 42.25406963 -69.6098938 45.20608521 C-73.59508181 47.48239436 -77.58011861 49.75894701 -81.56201172 52.04101562 C-84.01109531 53.43651674 -86.46465882 54.82038552 -88.92626953 56.19335938 C-89.57112808 56.55540466 -90.21598663 56.91744995 -90.88038635 57.29046631 C-92.12591301 57.98942436 -93.37382732 58.68414894 -94.62437439 59.37408447 C-97.88463362 61.09823192 -97.88463362 61.09823192 -100 64 C-99.48544341 66.45149226 -99.48544341 66.45149226 -98.625 69.1875 C-93.98000453 85.51921924 -96.24207001 100.23557031 -102 116 C-101.28191162 116.26393555 -100.56382324 116.52787109 -99.82397461 116.79980469 C-96.9219605 118.03316696 -94.4614718 119.48989063 -91.81640625 121.203125 C-90.81802734 121.84636719 -89.81964844 122.48960937 -88.79101562 123.15234375 C-87.72560547 123.84457031 -86.66019531 124.53679687 -85.5625 125.25 C-84.43846393 125.97574525 -83.31411017 126.70099867 -82.18945312 127.42578125 C-79.89375453 128.9054523 -77.59914582 130.38679144 -75.30517578 131.86914062 C-70.55052882 134.93447958 -65.77623534 137.96845394 -61 141 C-51.90000109 146.78385519 -42.81552381 152.59175332 -33.73632812 158.40820312 C-27.16511727 162.61741192 -20.58610298 166.81412977 -14 171 C-15 174 -15 174 -17.25 175.25 C-20.50402261 176.13746071 -21.77385345 175.97010001 -25 175 C-27.55669749 173.50204868 -29.9874424 171.96807683 -32.4375 170.3125 C-33.96677249 169.30106136 -35.49675521 168.29069599 -37.02734375 167.28125 C-37.83671387 166.745 -38.64608398 166.20875 -39.47998047 165.65625 C-43.78803435 162.82483772 -48.14556913 160.07183244 -52.5 157.3125 C-61.57224901 151.55025598 -70.62777894 145.76230054 -79.67724609 139.96435547 C-85.58193201 136.18276422 -91.49368786 132.41277033 -97.4152832 128.65771484 C-101.00072245 126.38156339 -104.57984669 124.09558412 -108.15869141 121.80908203 C-110.16055947 120.53447795 -112.16575961 119.26509969 -114.17333984 117.99951172 C-117.39338824 115.96880301 -120.60353442 113.92316453 -123.8125 111.875 C-124.81619629 111.247146 -125.81989258 110.61929199 -126.85400391 109.97241211 C-128.23531494 109.08501343 -128.23531494 109.08501343 -129.64453125 108.1796875 C-130.46284424 107.66132324 -131.28115723 107.14295898 -132.12426758 106.60888672 C-134 105 -134 105 -134.86083984 102.94189453 C-135 101 -135 101 -133.58203125 98.75 C-131.51828382 95.16264644 -131.59484253 92.01762806 -131.6875 88 C-131.68266602 86.95199219 -131.68266602 86.95199219 -131.67773438 85.8828125 C-131.72038317 81.7730193 -132.37100408 78.73825359 -134 75 C-134 73.68 -134 72.36 -134 71 C-132.28645833 70.02083333 -130.57291667 69.04166667 -128.859375 68.0625 C-127.18041138 67.10307495 -127.18041138 67.10307495 -125.4675293 66.12426758 C-122.95602595 64.68911683 -120.44446296 63.25407052 -117.93286133 61.8190918 C-111.52589321 58.15841811 -105.11951505 54.49672212 -98.71484375 50.83203125 C-87.07113281 44.17071185 -75.41740154 37.52823136 -63.73242188 30.93945312 C-57.25464578 27.28358923 -50.79327307 23.59967561 -44.33911133 19.90234375 C-41.9255278 18.51999996 -39.51001681 17.14112973 -37.0925293 15.765625 C-31.88517952 12.8017092 -26.68787957 9.8265824 -21.5390625 6.76171875 C-20.72864502 6.28822998 -19.91822754 5.81474121 -19.08325195 5.3269043 C-17.63507105 4.48066591 -16.19504009 3.62021169 -14.76635742 2.74145508 C-9.89950501 -0.06759655 -5.59189949 -1.00841773 0 0 Z " fill="#F88B70" transform="translate(227,86)"/>
<path d="M0 0 C1.83133232 -0.01713043 1.83133232 -0.01713043 3.69966125 -0.03460693 C5.04463155 -0.03709733 6.3896023 -0.03934759 7.73457336 -0.04138184 C9.15749625 -0.05064532 10.58041419 -0.0606956 12.00332642 -0.07147217 C15.863081 -0.09765881 19.72276609 -0.11059836 23.58259559 -0.11949348 C25.99736249 -0.12536585 28.41211063 -0.13357756 30.82686806 -0.14250183 C38.39167555 -0.16983769 45.95643989 -0.18917695 53.52129334 -0.19690561 C62.23590456 -0.20585928 70.94988715 -0.24092447 79.6643073 -0.2989068 C86.41186754 -0.3422342 93.15925155 -0.36231918 99.90694934 -0.36498785 C103.93161747 -0.36707762 107.95569416 -0.3787545 111.98021507 -0.41462708 C115.77014683 -0.4477523 119.55904786 -0.45182313 123.34907341 -0.43434906 C124.73331731 -0.4328168 126.1176185 -0.44138169 127.50172043 -0.46126556 C136.48105709 -0.58260678 142.86439245 0.48222047 149.92329407 6.28088379 C157.74344067 14.14449063 161.04958223 23.32491207 161.42329407 34.34338379 C161.09177096 44.37748324 157.62720137 53.70958498 150.92329407 61.28088379 C145.20864438 65.92892934 140.54165534 68.39798998 133.11160278 68.42805481 C131.89898773 68.43521011 130.68637268 68.44236542 129.43701172 68.44973755 C128.09104945 68.45257778 126.74508691 68.45528952 125.39912415 68.45788574 C123.98310683 68.46415159 122.56709115 68.4707985 121.15107727 68.47779846 C116.49833824 68.49882986 111.84559893 68.50920115 107.19282532 68.51916504 C105.58980988 68.52321318 103.98679461 68.52733012 102.38377953 68.53151512 C94.85100777 68.55056612 87.31824579 68.56479638 79.78545457 68.57312709 C71.09756174 68.58289442 62.40992402 68.609201 53.72212106 68.64962798 C47.00266838 68.67981961 40.2832887 68.69459892 33.56376952 68.6979081 C29.55268036 68.70025546 25.54186378 68.70917442 21.53084755 68.73436928 C17.7542608 68.75770808 13.97812495 68.76186021 10.20148468 68.75160789 C8.81964045 68.7511138 7.43777359 68.75739698 6.05599785 68.77116394 C-2.98324499 68.85614381 -8.82297402 68.14194454 -16.21342468 62.71057129 C-24.09584887 54.80829213 -27.4903752 45.4341187 -28.38920593 34.46838379 C-28.02986045 23.85712296 -24.48883654 14.82035864 -17.08451843 7.24182129 C-11.68919155 2.29440834 -7.45542954 0.04188139 0 0 Z M-8.82670593 22.28088379 C-13.00066279 27.84615959 -12.56669247 33.56361377 -12.07670593 40.28088379 C-10.43269938 45.03985011 -7.85169829 47.97776547 -4.07670593 51.28088379 C-0.98579041 52.31118896 1.15954039 52.4165639 4.40003967 52.43478394 C5.5383725 52.4433844 6.67670532 52.45198486 7.84953308 52.46084595 C9.09945038 52.4651059 10.34936768 52.46936584 11.63716125 52.47375488 C13.61068069 52.48602112 13.61068069 52.48602112 15.62406921 52.49853516 C19.98941506 52.52472991 24.35477037 52.54006048 28.72016907 52.55432129 C30.22414913 52.55968206 31.72812913 52.56505957 33.23210907 52.57045364 C39.48926335 52.59207885 45.74641508 52.61081473 52.00359726 52.62207603 C60.96451353 52.63831064 69.92499591 52.67148013 78.88574862 52.72847688 C85.18990035 52.76720571 91.49393616 52.78671219 97.79820371 52.7919966 C101.56174448 52.79564615 105.3248222 52.80762427 109.08823395 52.84009933 C112.63097769 52.87023239 116.17297948 52.87647387 119.71582413 52.86471558 C121.62893379 52.86439057 123.54199802 52.88882168 125.4549408 52.91409302 C132.64381559 52.86207502 136.62585613 52.28439301 141.92329407 47.28088379 C145.06427129 42.67411719 146.07788621 37.80073266 145.92329407 32.28088379 C144.84555663 26.80312741 142.91766497 22.27525469 138.92329407 18.28088379 C135.66789817 16.24405567 133.12011814 16.02806047 129.31283569 16.02018738 C127.59893898 16.00956017 127.59893898 16.00956017 125.85041809 15.99871826 C124.60095398 16.00119568 123.35148987 16.0036731 122.06416321 16.00622559 C120.74512497 16.00111465 119.42608673 15.99600372 118.06707764 15.99073792 C114.45136342 15.97735001 110.83575375 15.97676899 107.22001958 15.97930121 C104.20060778 15.98037106 101.18121713 15.97548722 98.16180986 15.97069579 C91.03809905 15.95960135 83.91444098 15.95916285 76.79072571 15.96520996 C69.44367347 15.97125079 62.09681269 15.95893593 54.74979311 15.93763989 C48.43969536 15.92002255 42.12965854 15.91402273 35.8195371 15.91727763 C32.05174805 15.91909042 28.28409558 15.91645491 24.51632881 15.9025631 C20.97286996 15.8899871 17.42970953 15.89192642 13.88625526 15.90497398 C11.9680618 15.90846692 10.04985924 15.8971601 8.13169861 15.88540649 C6.98628098 15.89242081 5.84086334 15.89943512 4.66073608 15.90666199 C3.66762956 15.90649425 2.67452303 15.9063265 1.65132236 15.90615368 C-2.84405595 16.52365226 -6.02496625 18.78780575 -8.82670593 22.28088379 Z " fill="#FFFFFF" transform="translate(839.0767059326172,88.7191162109375)"/>
<path d="M0 0 C0.66 0 1.32 0 2 0 C1.63261719 0.83144531 1.63261719 0.83144531 1.2578125 1.6796875 C0.73790557 4.15164062 0.73790557 4.15164062 2.5546875 6.4453125 C3.32039063 7.32960937 4.08609375 8.21390625 4.875 9.125 C5.71160156 10.09824219 6.54820313 11.07148438 7.41015625 12.07421875 C8.26480469 13.03972656 9.11945313 14.00523437 10 15 C10.72058594 15.83144531 11.44117187 16.66289062 12.18359375 17.51953125 C14.41497593 20.05389009 16.69351181 22.53380329 19 25 C19.89332031 25.9590625 20.78664063 26.918125 21.70703125 27.90625 C48.01428116 55.51969222 82.76178987 67.41182934 120 71 C117.99209201 77.02372397 109.61480181 80.12625087 104.12451172 82.97216797 C73.94803067 97.91529154 39.0698929 99.69349395 7.14453125 89.49609375 C-27.21085856 77.85624125 -52.70941883 53.5518263 -68.85546875 21.44921875 C-75.69964201 7.45635825 -75.69964201 7.45635825 -74 1 C-72.38447024 3.97558039 -71.25762586 7.03578869 -70.14794922 10.22949219 C-67.74795237 17.05505024 -64.92147098 23.4396367 -61.375 29.75 C-61.0030249 30.41676758 -60.6310498 31.08353516 -60.24780273 31.77050781 C-57.26416245 36.93075444 -55.00670463 40.61407575 -49.13671875 42.23046875 C-47.65694333 42.56444126 -46.17363633 42.88307968 -44.6875 43.1875 C-43.95337891 43.35185547 -43.21925781 43.51621094 -42.46289062 43.68554688 C-32.89946126 45.78152474 -23.56592729 46.23668407 -13.8125 46.25 C-12.74660645 46.25300613 -12.74660645 46.25300613 -11.65917969 46.256073 C-0.58457537 46.26371517 10.09546107 45.47472126 20.98046875 43.36376953 C24.30402263 42.76511198 27.64610482 42.38902163 31 42 C28.48963758 39.4806075 25.97131553 36.97209784 23.421875 34.4921875 C13.85610625 25.12220933 5.75207567 14.92049897 -2 4 C-1.34 2.68 -0.68 1.36 0 0 Z " fill="#673ECE" transform="translate(80,196)"/>
<path d="M0 0 C0.90500748 -0.00861557 1.81001495 -0.01723114 2.7424469 -0.02610779 C5.71799767 -0.04871026 8.69260222 -0.04203919 11.66821289 -0.03295898 C13.74654926 -0.03819722 15.82488324 -0.04447443 17.9032135 -0.05174255 C22.25329802 -0.06213633 26.60305521 -0.05760004 30.953125 -0.04296875 C36.51605588 -0.02578572 42.0779534 -0.04927617 47.640769 -0.08445835 C51.93118581 -0.10646378 56.22135657 -0.10498315 60.51181221 -0.09669304 C62.56224259 -0.09587519 64.61269134 -0.10270663 66.66306877 -0.11746407 C69.53513178 -0.13496727 72.40535335 -0.12031932 75.27734375 -0.09765625 C76.11655365 -0.10934845 76.95576355 -0.12104065 77.82040405 -0.13308716 C84.5999698 -0.02474276 89.35992488 2.30172258 94.2324667 7.01145077 C98.45111675 11.78205702 100.27822345 16.27546379 100.07446289 22.59204102 C99.70336914 24.53344727 99.70336914 24.53344727 97.70336914 27.59594727 C94.16820122 29.87907655 92.5257466 29.99569141 88.50415039 29.17016602 C86.70336914 28.53344727 86.70336914 28.53344727 84.76586914 26.90844727 C83.70336914 24.53344727 83.70336914 24.53344727 82.70336914 17.53344727 C53.66336914 17.53344727 24.62336914 17.53344727 -5.29663086 17.53344727 C-5.95663086 20.50344727 -6.61663086 23.47344727 -7.29663086 26.53344727 C-6.01312744 26.51773682 -4.72962402 26.50202637 -3.40722656 26.48583984 C1.46282395 26.43056728 6.33284836 26.39675226 11.203125 26.36865234 C13.29073788 26.35378308 15.37832081 26.33348162 17.46582031 26.30712891 C44.59659393 25.9737949 70.71635776 27.76450597 91.42993164 47.23657227 C99.31493939 55.20286875 99.31493939 55.20286875 100.32836914 61.28344727 C99.70336914 64.53344727 99.70336914 64.53344727 98.20336914 66.97094727 C95.37870169 68.73636442 93.13034755 69.28084771 89.78930664 69.11938477 C85.70749714 67.97280906 83.35244392 64.67675241 80.70336914 61.53344727 C69.3535542 49.26337706 55.43661669 44.26060681 39.01004028 43.39083862 C31.47278624 43.11093046 23.93219411 43.01251788 16.39086914 42.90844727 C14.08942324 42.87019519 11.78799054 42.83113947 9.48657227 42.79125977 C3.8922899 42.69605129 -1.70207436 42.6107836 -7.29663086 42.53344727 C-7.27568359 43.2144751 -7.25473633 43.89550293 -7.2331543 44.59716797 C-7.15005634 47.67994449 -7.09799131 50.76248563 -7.04663086 53.84594727 C-6.99635742 55.45373047 -6.99635742 55.45373047 -6.94506836 57.09399414 C-6.93217773 58.12202148 -6.91928711 59.15004883 -6.90600586 60.20922852 C-6.88505859 61.15709229 -6.86411133 62.10495605 -6.8425293 63.08154297 C-7.29663086 65.53344727 -7.29663086 65.53344727 -9.19384766 67.34130859 C-12.74206186 69.35291082 -15.25884577 68.91799823 -19.29663086 68.53344727 C-21.57706754 66.924487 -22.21032618 66.02276648 -22.69776917 63.25912476 C-22.70920456 62.36915802 -22.72063995 61.47919128 -22.73242188 60.56225586 C-22.75156143 59.55045258 -22.77070099 58.53864929 -22.79042053 57.4961853 C-22.793759 56.40246613 -22.79709747 55.30874695 -22.80053711 54.18188477 C-22.81052231 53.05328033 -22.82050751 51.9246759 -22.83079529 50.76187134 C-22.84599761 48.36952381 -22.85302043 45.97711257 -22.85253906 43.5847168 C-22.85906919 39.94284317 -22.91344662 36.30374072 -22.97045898 32.66235352 C-22.97926728 30.33553989 -22.98521732 28.00871335 -22.98803711 25.68188477 C-23.00959366 24.60031097 -23.03115021 23.51873718 -23.05335999 22.40438843 C-22.99573465 15.96927631 -21.93917591 11.77753 -18.26841736 6.46572876 C-12.5939256 0.90492619 -7.63867972 -0.0592571 0 0 Z " fill="#FFFFFF" transform="translate(703.296630859375,88.466552734375)"/>
<path d="M0 0 C14.33437185 -0.09359702 28.66869605 -0.16378798 43.00331116 -0.20724869 C49.65971946 -0.22810935 56.31586764 -0.25639972 62.97216797 -0.30175781 C69.39772559 -0.34526877 75.82308571 -0.36914858 82.2487793 -0.37950897 C84.69835519 -0.38689081 87.14792046 -0.4013058 89.59741211 -0.42292023 C93.03262561 -0.45202288 96.46702649 -0.45595298 99.90234375 -0.45410156 C100.91151352 -0.46848267 101.92068329 -0.48286377 102.96043396 -0.49768066 C110.14861019 -0.45585353 115.51857996 0.99576302 121.0234375 5.74609375 C121.69246094 6.58333984 121.69246094 6.58333984 122.375 7.4375 C123.06722656 8.27087891 123.06722656 8.27087891 123.7734375 9.12109375 C127.483027 14.8036178 127.74092771 20.39648179 127 27 C125.23630701 32.94244285 122.02084002 36.51615183 117 40 C112.16656703 42.6112656 107.30045805 42.29564267 101.94897461 42.29052734 C100.94029831 42.29724457 99.93162201 42.30396179 98.89237976 42.31088257 C95.56231752 42.32986197 92.23245669 42.33378626 88.90234375 42.3359375 C86.58736589 42.34236367 84.27238886 42.3490919 81.95741272 42.35610962 C77.10790116 42.36808096 72.25846084 42.3717904 67.40893555 42.37060547 C61.1888405 42.37040188 54.9692003 42.39774614 48.74921322 42.43214989 C43.97003572 42.45435904 39.19096891 42.4584449 34.41174507 42.45738602 C32.11797068 42.45974939 29.82419356 42.46861405 27.53046989 42.48405075 C24.32719621 42.50359636 21.12491981 42.49791812 17.92163086 42.48583984 C16.97139038 42.49707886 16.0211499 42.50831787 15.04211426 42.51989746 C8.62339888 42.45824203 8.62339888 42.45824203 5.41090393 40.09683228 C3.01227077 36.53207403 3.53012132 34.22890808 4 30 C5.81163267 27.32568511 6.87761077 27.04079641 10 26 C11.37048743 25.90077661 12.74516585 25.85397191 14.1191864 25.84178162 C14.95631165 25.8319928 15.79343689 25.82220398 16.65592957 25.81211853 C17.57086685 25.80636307 18.48580414 25.8006076 19.4284668 25.79467773 C20.87752914 25.77982834 20.87752914 25.77982834 22.35586548 25.76467896 C25.55362485 25.7330547 28.75139908 25.70830278 31.94921875 25.68359375 C34.16453948 25.66302503 36.37985628 25.64202858 38.59516907 25.62062073 C44.42962461 25.56539163 50.26411563 25.515986 56.09863281 25.46777344 C62.05081341 25.41756457 68.00294242 25.36187529 73.95507812 25.30664062 C85.63667469 25.19904878 97.31831603 25.09760604 109 25 C109.99 22.525 109.99 22.525 111 20 C108.58028772 17.16435867 108.17027912 17.01649784 104.16242981 16.62818909 C102.52477102 16.6139112 100.88692048 16.61616553 99.24926758 16.63110352 C98.35459778 16.62733704 97.45992798 16.62357056 96.53814697 16.61968994 C94.59347901 16.61324999 92.64877958 16.6135945 90.7041111 16.61987495 C87.62240685 16.62897156 84.54131289 16.61877599 81.4596405 16.60325623 C72.69730617 16.56312649 63.93501833 16.56194905 55.17260742 16.56420898 C49.81330903 16.56426019 44.45433771 16.54503592 39.09512901 16.51487541 C36.06611678 16.5040724 33.03773511 16.51617061 30.00874329 16.52870178 C28.13839097 16.51979246 26.26804372 16.50971637 24.39770508 16.49829102 C23.14349007 16.51290627 23.14349007 16.51290627 21.86393738 16.52781677 C15.21079885 16.44707542 10.04370536 14.5816628 4.94140625 10.25390625 C4.48636719 9.69574219 4.03132813 9.13757813 3.5625 8.5625 C3.08941406 8.00691406 2.61632812 7.45132813 2.12890625 6.87890625 C0.77340269 4.62286053 0.46390071 2.5737391 0 0 Z " fill="#FFFFFF" transform="translate(414,115)"/>
<path d="M0 0 C0.99 0.33 1.98 0.66 3 1 C9.88288539 30.1353207 4.98751961 60.38575399 -8 87 C-8.48339844 87.99515625 -8.96679688 88.9903125 -9.46484375 90.015625 C-14.96723917 100.68508981 -24.50480653 117.19526745 -36 122 C-36.09796875 121.09378906 -36.1959375 120.18757813 -36.296875 119.25390625 C-38.14504936 104.1976582 -43.80522525 93.3005176 -55 83 C-53.51923722 79.48712661 -51.53694424 77.44391799 -48.75 74.875 C-39.21400893 65.52298303 -34.66808849 54.71519869 -33.94140625 41.46484375 C-34.18470063 27.07803612 -39.9644129 15.31267631 -49.8125 5.125 C-50.4003125 4.568125 -50.4003125 4.568125 -51 4 C-50.34 3.34 -49.68 2.68 -49 2 C-40.72348272 9.37088013 -34.74738756 18.20826167 -32 29 C-31.773125 29.845625 -31.54625 30.69125 -31.3125 31.5625 C-30.8698759 35.014968 -31 38.5192743 -31 42 C-20.11 42 -9.22 42 2 42 C2.15548214 27.7733845 2.16609562 14.06028138 0 0 Z " fill="#F8AB51" transform="translate(250,135)"/>
<path d="M0 0 C0.96597107 -0.00990463 1.93194214 -0.01980927 2.92718506 -0.03001404 C3.98544998 -0.02551239 5.0437149 -0.02101074 6.13404846 -0.01637268 C7.24972198 -0.02323593 8.36539551 -0.03009918 9.51487732 -0.03717041 C13.21301399 -0.05551313 16.91072945 -0.0515901 20.60890198 -0.0459137 C23.1733616 -0.05047193 25.73782 -0.05577642 28.30227661 -0.0617981 C33.68164102 -0.07074395 39.06084292 -0.06852217 44.44020081 -0.05836487 C50.65751407 -0.04688472 56.87439593 -0.06095552 63.09165233 -0.08776134 C69.07338393 -0.11258576 75.05489344 -0.11509713 81.03668404 -0.10864449 C83.58164754 -0.10849082 86.12661918 -0.1145724 88.67155266 -0.12693596 C92.22708822 -0.14177408 95.78166828 -0.13122053 99.33717346 -0.11402893 C100.39341415 -0.1236969 101.44965485 -0.13336487 102.53790283 -0.14332581 C109.62821121 -0.07135252 109.62821121 -0.07135252 112.95425415 2.20028687 C114.94771671 5.43974545 114.83190869 7.66647684 114.30030823 11.38768005 C112.43322318 13.75265445 110.97969392 15.04798721 108.30030823 16.38768005 C105.60078625 16.49620637 102.92246246 16.54904843 100.22218323 16.5634613 C98.56982685 16.58666763 96.91748307 16.61078529 95.26515198 16.63572693 C92.66041233 16.67078036 90.05613347 16.70014996 87.45118713 16.71360779 C84.93678339 16.7291406 82.42372806 16.76939016 79.90968323 16.8134613 C78.75155121 16.81059868 78.75155121 16.81059868 77.57002258 16.80767822 C72.41491604 16.92352133 69.25920155 17.79906656 65.30030823 21.38768005 C62.43568925 26.39934701 61.88034616 30.88773243 61.92921448 36.55174255 C61.91184509 38.10122407 61.89426059 39.6507032 61.8764801 41.20018005 C61.86638987 43.61396021 61.86281872 46.02759055 61.86451721 48.44139099 C61.86094257 50.79111955 61.83360358 53.13971615 61.80421448 55.48924255 C61.812397 56.20705902 61.82057953 56.92487549 61.82901001 57.66444397 C61.75734935 62.50407308 60.76263817 65.00448908 57.30030823 68.38768005 C55.30030823 69.0165863 55.30030823 69.0165863 53.30030823 68.95018005 C52.64030823 68.95146912 51.98030823 68.95275818 51.30030823 68.9540863 C48.30247172 68.10508964 47.20404063 66.8576308 45.30030823 64.38768005 C44.91374114 61.54307298 44.76208249 59.0951038 44.80421448 56.25486755 C44.80275925 55.46299042 44.80130402 54.67111328 44.79980469 53.85523987 C44.80146286 52.17916692 44.81301519 50.50307862 44.83375549 48.82713318 C44.86247663 46.29194968 44.85441009 43.75889066 44.84132385 41.22361755 C44.84756946 39.58819091 44.85596679 37.9527708 44.86671448 36.31736755 C44.86377884 35.57219879 44.8608432 34.82703003 44.8578186 34.0592804 C44.96104173 28.14216503 46.39055358 22.96960618 48.30030823 17.38768005 C47.3773571 17.37888069 47.3773571 17.37888069 46.4357605 17.36990356 C40.02775879 17.30593626 33.62025774 17.22150768 27.21266174 17.12522888 C24.8217784 17.09198839 22.43081675 17.06395376 20.03981018 17.04124451 C16.60156403 17.00768323 13.16403494 16.95536481 9.72608948 16.8993988 C8.65820694 16.89300888 7.5903244 16.88661896 6.49008179 16.8800354 C-2.78282543 16.69660705 -2.78282543 16.69660705 -6.69969177 13.38768005 C-8.66107565 10.80221949 -8.71267441 9.5997298 -8.51219177 6.32518005 C-7.12968003 1.32686836 -5.09577635 0.01473916 0 0 Z " fill="#FFFFFF" transform="translate(557.6996917724609,88.61231994628906)"/>
<path d="M0 0 C1.10988281 -0.02578125 2.21976562 -0.0515625 3.36328125 -0.078125 C11.32283021 0.70754141 15.48721494 5.63820671 20.29931641 11.50048828 C24.99639164 17.42015784 29.3933597 23.57239677 33.82617188 29.69042969 C36.30054108 33.0930119 38.8031703 36.47426055 41.30761719 39.85473633 C43.0772591 42.24793691 44.83644758 44.64851146 46.59375 47.05078125 C48.41350009 49.53582226 50.25444912 51.99524673 52.15625 54.41796875 C56.65804305 60.32210606 56.65804305 60.32210606 56.8125 65.1875 C55.06425185 69.94661995 55.06425185 69.94661995 52.6875 71.25 C47.22114269 71.95533643 47.22114269 71.95533643 44.6875 71.25 C39.76228157 67.10509727 36.10300342 61.74385714 32.25 56.625 C31.55277832 55.70436768 30.85555664 54.78373535 30.13720703 53.83520508 C24.28413901 46.08787382 18.51103136 38.28231956 12.7734375 30.44921875 C12.26006836 29.75618652 11.74669922 29.0631543 11.21777344 28.34912109 C10.16560252 26.90582729 9.13877998 25.44381958 8.13378906 23.96728516 C5.2523713 19.73750313 5.2523713 19.73750313 1.02734375 17.046875 C-1.34225399 17.05846611 -1.34225399 17.05846611 -3.05859375 18.453125 C-8.87939909 25.49724048 -14.2566591 32.85389974 -19.63671875 40.23828125 C-24.58550911 47.01645739 -29.70521257 53.66224892 -34.83203125 60.30615234 C-35.88399324 61.68737289 -36.92162885 63.07955644 -37.94921875 64.47900391 C-38.48160156 65.20394043 -39.01398438 65.92887695 -39.5625 66.67578125 C-40.28179687 67.6663855 -40.28179687 67.6663855 -41.015625 68.67700195 C-42.3125 70.25 -42.3125 70.25 -44.3125 71.25 C-51.52394674 71.70786963 -51.52394674 71.70786963 -54.25 70.125 C-55.824477 67.34651118 -56.25062875 65.46730516 -56.3125 62.25 C-53.2212898 55.9960606 -48.95521402 50.67726421 -44.6875 45.1875 C-40.00476286 39.10849032 -35.35426219 33.02559251 -30.9375 26.75 C-12.13615281 0.16797443 -12.13615281 0.16797443 0 0 Z " fill="#FFFFFF" transform="translate(348.3125,85.75)"/>
<path d="M0 0 C0.6489624 -0.0065712 1.2979248 -0.0131424 1.96655273 -0.01991272 C4.11645621 -0.03964199 6.26628995 -0.05130568 8.41625977 -0.0612793 C9.51666438 -0.06739259 9.51666438 -0.06739259 10.63929939 -0.07362938 C14.5201095 -0.09448581 18.40088425 -0.10879088 22.28173828 -0.11816406 C26.29482491 -0.12924432 30.30735944 -0.16366319 34.32025051 -0.20333576 C37.40258332 -0.22944343 40.48478321 -0.23785049 43.56721687 -0.24144554 C45.04684248 -0.24632459 46.52646164 -0.25797604 48.00597954 -0.27648354 C50.07474854 -0.30075904 52.14207055 -0.29993285 54.2109375 -0.29296875 C55.38849106 -0.29883499 56.56604462 -0.30470123 57.77928162 -0.31074524 C60.67016602 0.17700195 60.67016602 0.17700195 62.5816803 2.04231262 C63.67016602 4.17700195 63.67016602 4.17700195 63.54516602 6.80200195 C62.67016602 9.17700195 62.67016602 9.17700195 59.67016602 11.17700195 C56.87971497 11.45547485 56.87971497 11.45547485 53.45458984 11.49584961 C52.17348831 11.5157193 50.89238678 11.53558899 49.57246399 11.55606079 C48.1740435 11.56793722 46.77562119 11.57960008 45.37719727 11.59106445 C43.94657776 11.60977457 42.5159693 11.62934787 41.08537292 11.64974976 C37.32238275 11.70109378 33.55935678 11.74070717 29.79620361 11.77789307 C25.95527273 11.8179186 22.11449101 11.86901753 18.27368164 11.91918945 C10.73927874 12.01597556 3.20480372 12.10037156 -4.32983398 12.17700195 C-4.65983398 13.49700195 -4.98983398 14.81700195 -5.32983398 16.17700195 C-4.56641693 16.18064758 -3.80299988 16.18429321 -3.01644897 16.18804932 C4.19287617 16.2259822 11.40168757 16.28289403 18.61068153 16.36090469 C22.31656235 16.40034363 26.02220685 16.43254929 29.72827148 16.44799805 C33.30770029 16.46318885 36.88647926 16.49767568 40.46561813 16.54531097 C41.82823398 16.56010012 43.19094262 16.56804156 44.55363846 16.5688858 C53.31763083 16.57977214 58.12528564 16.78884159 64.48266602 22.92700195 C67.0440372 27.7801263 67.05800369 31.8081631 65.60766602 36.92700195 C63.34138626 40.72850347 61.52701836 42.05017357 57.67016602 44.17700195 C54.34259033 44.6782074 54.34259033 44.6782074 50.68676758 44.67871094 C49.68077766 44.68681541 49.68077766 44.68681541 48.65446472 44.69508362 C46.45611324 44.70750786 44.25908712 44.69113136 42.06079102 44.6730957 C40.52715995 44.67325077 38.99352849 44.67474098 37.4598999 44.67750549 C34.25555979 44.67888639 31.051669 44.66637822 27.84741211 44.64355469 C23.7357145 44.61507425 19.62475758 44.61793719 15.5130043 44.6306448 C12.35088743 44.63758798 9.18894273 44.62983004 6.02684784 44.61738777 C4.51015634 44.61286672 2.99344643 44.61254217 1.47675323 44.61645317 C-0.63722414 44.61935463 -2.7501669 44.60291538 -4.86401367 44.58105469 C-6.66887238 44.57295021 -6.66887238 44.57295021 -8.51019287 44.56468201 C-9.90591522 44.37278038 -9.90591522 44.37278038 -11.32983398 44.17700195 C-13.32983398 41.17700195 -13.32983398 41.17700195 -13.07983398 38.05200195 C-12.83233398 37.10325195 -12.58483398 36.15450195 -12.32983398 35.17700195 C-9.5739026 33.79903626 -7.31203585 34.01401257 -4.2277832 33.97167969 C-2.94660614 33.95173447 -1.66542908 33.93178925 -0.34542847 33.91123962 C1.05820595 33.89425526 2.46184165 33.87737646 3.86547852 33.8605957 C5.29752199 33.84002655 6.72955939 33.81903009 8.16159058 33.79762268 C11.93283164 33.74239793 15.70412754 33.69299048 19.47546387 33.64477539 C23.32296637 33.59456329 27.17038914 33.53887571 31.01782227 33.48364258 C38.56853602 33.37605608 46.11931601 33.27461225 53.67016602 33.17700195 C54.00016602 31.85700195 54.33016602 30.53700195 54.67016602 29.17700195 C53.9465538 29.17113571 53.22294159 29.16526947 52.47740173 29.15922546 C45.63637475 29.10116567 38.79562354 29.02901333 31.95491695 28.94128704 C28.43855549 28.89668289 24.92230721 28.85740557 21.40576172 28.83056641 C17.35688501 28.79942552 13.30862063 28.74464096 9.26000977 28.6887207 C7.37837379 28.67913582 7.37837379 28.67913582 5.45872498 28.6693573 C-2.1298004 28.54213698 -7.84848719 28.29189119 -13.70483398 23.05200195 C-15.92133426 19.13050147 -16.52808931 15.66550258 -16.32983398 11.17700195 C-13.56053299 3.02294903 -8.15098735 0.06818735 0 0 Z " fill="#F67167" transform="translate(933.329833984375,173.822998046875)"/>
<path d="M0 0 C0.64925446 -0.00511093 1.29850891 -0.01022186 1.96743774 -0.01548767 C4.10656023 -0.02935152 6.24535951 -0.02842987 8.38452148 -0.02612305 C9.87377543 -0.03001079 11.36302826 -0.03434562 12.85227966 -0.03910828 C15.97007853 -0.04656285 19.08776413 -0.04628407 22.20556641 -0.04101562 C26.20283175 -0.03521157 30.19963515 -0.0521778 34.19682407 -0.0753603 C37.27059137 -0.09008093 40.34424684 -0.09097183 43.41804314 -0.08785057 C44.89205785 -0.08836429 46.36607874 -0.0936115 47.84005928 -0.10366249 C49.89888863 -0.11598248 51.95681048 -0.109264 54.015625 -0.09765625 C55.77290672 -0.09860039 55.77290672 -0.09860039 57.56568909 -0.0995636 C60.44311523 0.2746582 60.44311523 0.2746582 62.31748962 1.64167786 C63.95094775 4.01138675 63.93453017 5.46657283 63.44311523 8.2746582 C60.20583204 11.50688598 57.58020818 11.66307264 53.11401367 11.70703125 C51.83298767 11.72682541 50.55196167 11.74661957 49.2321167 11.76701355 C47.83890937 11.77378283 46.44570045 11.78022975 45.05249023 11.78637695 C43.62329566 11.80322688 42.19411588 11.82137755 40.76495361 11.84077454 C37.01017885 11.88824716 33.25546407 11.9180739 29.50048828 11.94421387 C25.66613928 11.97403343 21.83199688 12.0205589 17.99780273 12.06567383 C10.47967614 12.15167565 2.96153447 12.21903447 -4.55688477 12.2746582 C-4.22688477 13.5946582 -3.89688477 14.9146582 -3.55688477 16.2746582 C-2.82074448 16.27830383 -2.08460419 16.28194946 -1.32615662 16.28570557 C5.63264178 16.32367112 12.59105789 16.3806207 19.54951572 16.45856094 C23.12645283 16.49796483 26.70314639 16.53018752 30.28027344 16.5456543 C33.73652338 16.56086841 37.19210346 16.59539589 40.64805412 16.64296722 C42.59929575 16.66488748 44.55072661 16.66712785 46.50209045 16.66900635 C53.31699225 16.78092329 57.97268923 17.04242635 63.44311523 21.2746582 C66.18624428 25.16813169 66.98634518 28.64147896 66.79858398 33.31762695 C66.05922763 37.3881493 63.63448567 40.12918038 60.73149109 42.92034912 C57.58060612 44.78510928 55.2290728 44.64190732 51.57910156 44.63110352 C50.89737381 44.63314789 50.21564606 44.63519226 49.51325989 44.63729858 C47.26694649 44.64029931 45.02137222 44.621856 42.77514648 44.6027832 C41.2138436 44.59972501 39.652538 44.59784935 38.0912323 44.59710693 C34.82373572 44.59250882 31.55648627 44.57809855 28.2890625 44.5559082 C24.09220519 44.52755588 19.8955419 44.51668921 15.69859791 44.5122261 C12.47737168 44.50807906 9.25618498 44.49826875 6.03497887 44.48635101 C4.48675542 44.48063913 2.93852816 44.47588348 1.39029884 44.47208405 C-0.76688779 44.46524313 -2.9239177 44.45162315 -5.08105469 44.43579102 C-6.31031174 44.42896301 -7.53956879 44.42213501 -8.80607605 44.4151001 C-11.55688477 44.2746582 -11.55688477 44.2746582 -12.55688477 43.2746582 C-12.74438477 39.8371582 -12.74438477 39.8371582 -12.55688477 36.2746582 C-9.7926723 33.51044574 -8.14404184 33.99998699 -4.27124023 33.95581055 C-3.62721252 33.94576492 -2.98318481 33.9357193 -2.31964111 33.92536926 C-0.18779404 33.89444237 1.94392694 33.87747627 4.07592773 33.8605957 C5.55281669 33.84189164 7.02969489 33.8223188 8.50656128 33.8019104 C12.3961554 33.75050244 16.28578421 33.71092335 20.17553711 33.67376709 C24.14372395 33.63378153 28.11176546 33.58266443 32.07983398 33.5324707 C39.86749482 33.43560895 47.65522575 33.35123726 55.44311523 33.2746582 C54.94811523 31.2946582 54.94811523 31.2946582 54.44311523 29.2746582 C53.73425171 29.26879196 53.02538818 29.26292572 52.29504395 29.25688171 C45.58676262 29.19877273 38.87879365 29.12659322 32.17082977 29.03894329 C28.72287879 28.99437778 25.27504219 28.95509233 21.8269043 28.92822266 C17.8549729 28.89703283 13.88352901 28.84224944 9.91186523 28.78637695 C8.68447632 28.77998703 7.4570874 28.77359711 6.19250488 28.76701355 C-1.49318748 28.63593316 -8.3381412 28.49340177 -14.05688477 22.7746582 C-16.16174472 17.86331832 -16.47183434 13.53757325 -15.55688477 8.2746582 C-12.19303436 1.56025324 -7.03944065 0.02766612 0 0 Z " fill="#F67167" transform="translate(511.556884765625,173.725341796875)"/>
<path d="M0 0 C1.16148056 -0.00945648 2.32296112 -0.01891296 3.51963806 -0.02865601 C4.76556229 -0.02258331 6.01148651 -0.01651062 7.29516602 -0.01025391 C8.58342789 -0.01312408 9.87168976 -0.01599426 11.19898987 -0.01895142 C13.92166983 -0.02336517 16.64405377 -0.01697587 19.36669922 -0.00292969 C22.84467669 0.01414513 26.32195868 0.00432665 29.79991055 -0.01364708 C33.13171701 -0.02714021 36.46333984 -0.01767153 39.79516602 -0.01025391 C41.03906601 -0.0163266 42.282966 -0.02239929 43.56455994 -0.02865601 C50.87343303 0.03068994 55.90969059 0.35937661 61.42407227 5.57568359 C63.72131052 9.40441402 64.03941774 11.91460299 64.11157227 16.38818359 C63.11157227 18.45068359 63.11157227 18.45068359 61.11157227 19.38818359 C57.61157227 19.45068359 57.61157227 19.45068359 54.11157227 18.38818359 C53.12157227 16.40818359 52.13157227 14.42818359 51.11157227 12.38818359 C32.96157227 12.05818359 14.81157227 11.72818359 -3.88842773 11.38818359 C-3.88842773 13.36818359 -3.88842773 15.34818359 -3.88842773 17.38818359 C-2.57406738 17.37247314 -2.57406738 17.37247314 -1.2331543 17.35644531 C2.07693208 17.32197434 5.38682252 17.29709839 8.69702148 17.27832031 C10.11860195 17.26837919 11.54016262 17.25482152 12.96166992 17.23730469 C30.4986381 17.02691057 45.73065851 18.68151855 59.05297852 31.10693359 C61.14518308 33.42542973 62.70461672 35.60159203 64.11157227 38.38818359 C63.71157227 42.78818359 63.71157227 42.78818359 62.11157227 44.38818359 C58.86157227 44.82568359 58.86157227 44.82568359 55.11157227 44.38818359 C52.73657227 41.76318359 52.73657227 41.76318359 51.53735352 40.11083984 C46.11566006 33.56024583 37.46643415 30.01142663 29.15213013 29.1960144 C23.76878567 28.84655285 18.37935158 28.77640039 12.98657227 28.70068359 C11.34592103 28.66744906 9.70529483 28.63295391 8.06469727 28.59716797 C4.08046197 28.51297155 0.09627643 28.44583599 -3.88842773 28.38818359 C-3.86522461 29.20802734 -3.84202148 30.02787109 -3.81811523 30.87255859 C-3.79104492 32.48904297 -3.79104492 32.48904297 -3.76342773 34.13818359 C-3.74022461 35.20552734 -3.71702148 36.27287109 -3.69311523 37.37255859 C-3.88355086 40.31288465 -4.36172669 41.91180237 -5.88842773 44.38818359 C-9.26342773 44.51318359 -9.26342773 44.51318359 -12.88842773 44.38818359 C-15.68882056 41.58779077 -15.21231695 38.93485583 -15.22436523 35.18505859 C-15.23102203 34.46964905 -15.23767883 33.7542395 -15.24453735 33.01715088 C-15.25467112 31.50071789 -15.25935415 29.98424025 -15.2590332 28.46777344 C-15.26338557 26.16053313 -15.29963424 23.85523878 -15.33764648 21.54833984 C-15.34351896 20.07308594 -15.34748547 18.59782298 -15.34936523 17.12255859 C-15.36373627 16.4379657 -15.3781073 15.7533728 -15.39291382 15.04803467 C-15.34572478 10.0342575 -14.10457844 7.1964031 -10.88842773 3.38818359 C-7.15846047 0.69119771 -4.57491136 0.01071646 0 0 Z " fill="#F6656C" transform="translate(304.888427734375,173.61181640625)"/>
<path d="M0 0 C1.53071136 -0.00810448 1.53071136 -0.00810448 3.09234619 -0.01637268 C6.44361944 -0.02881531 9.79402647 -0.01240388 13.14526367 0.00561523 C15.4807693 0.0054602 17.81627518 0.00397055 20.15177917 0.00120544 C25.03473346 -0.00017634 29.91739322 0.01234784 34.80029297 0.03515625 C41.06632381 0.06361873 47.33186839 0.06077916 53.59793568 0.04806614 C58.41483231 0.04112257 63.23161594 0.04888182 68.04849815 0.06132317 C70.35982518 0.06584498 72.6711643 0.06616812 74.98249245 0.06225777 C78.20472897 0.05935658 81.42628665 0.07579784 84.6484375 0.09765625 C86.08614754 0.09090378 86.08614754 0.09090378 87.55290222 0.08401489 C88.42895111 0.09391953 89.305 0.10382416 90.20759583 0.11402893 C90.968746 0.11645883 91.72989618 0.11888872 92.51411152 0.12139225 C95.04267996 0.60545888 95.93487801 1.49478409 97.50073242 3.50170898 C97.89916992 5.65795898 97.89916992 5.65795898 97.87573242 8.00170898 C97.88733398 9.16186523 97.88733398 9.16186523 97.89916992 10.34545898 C97.40638863 13.01227541 96.62837752 13.86352215 94.50073242 15.50170898 C91.59172229 16.47137903 89.76085752 16.62523344 86.73616028 16.6219635 C85.75599442 16.62333817 84.77582855 16.62471283 83.76596069 16.62612915 C82.69206085 16.62253387 81.61816101 16.6189386 80.51171875 16.61523438 C79.37986649 16.6153804 78.24801422 16.61552643 77.0818634 16.61567688 C73.33214415 16.61497894 69.58247427 16.60719203 65.83276367 16.59936523 C63.23630297 16.59750063 60.63984192 16.59607693 58.04338074 16.59507751 C51.90234253 16.5916465 45.76132477 16.58376104 39.62029427 16.57372802 C32.62882453 16.56255336 25.63735393 16.55705302 18.64587748 16.55203259 C4.26415291 16.54157808 -10.1175567 16.52398706 -24.49926758 16.50170898 C-23.8058698 11.2610816 -22.49522655 8.02683277 -18.49926758 4.50170898 C-12.53408543 0.43088746 -7.06906214 -0.0720655 0 0 Z " fill="#A342CE" transform="translate(438.499267578125,88.498291015625)"/>
<path d="M0 0 C1.27449509 -0.00630432 2.54899017 -0.01260864 3.86210632 -0.019104 C5.24376566 -0.01552515 6.62542372 -0.01142342 8.00708008 -0.00683594 C9.43003913 -0.00818389 10.85299773 -0.0101255 12.2759552 -0.01263428 C15.25074673 -0.01557657 18.22541782 -0.01131489 21.20019531 -0.00195312 C25.01696637 0.0094722 28.8334571 0.00285704 32.65021801 -0.00909805 C35.5849673 -0.01631434 38.51964975 -0.01403036 41.45440102 -0.00884247 C42.86224717 -0.00750694 44.27009936 -0.00915033 45.67793846 -0.01380157 C47.64075992 -0.01886612 49.60360264 -0.00978163 51.56640625 0 C52.68383713 0.00159119 53.80126801 0.00318237 54.95256042 0.00482178 C57.58911133 0.25878906 57.58911133 0.25878906 59.58911133 2.25878906 C59.90161133 5.75878906 59.90161133 5.75878906 59.58911133 9.25878906 C56.12743902 11.5665706 54.79467642 11.51364144 50.71240234 11.5300293 C49.50427383 11.54021591 48.29614532 11.55040253 47.05140686 11.56089783 C45.09200417 11.56410789 45.09200417 11.56410789 43.09301758 11.56738281 C41.73924166 11.5784817 40.38547579 11.59087503 39.03172302 11.60450745 C33.28393661 11.65990142 27.53607832 11.69060504 21.78808594 11.71508789 C18.27018354 11.73097451 14.75262915 11.76120379 11.23490715 11.79985237 C9.24525844 11.81714604 7.25548619 11.81755708 5.26576233 11.81773376 C4.05448166 11.83107254 2.84320099 11.84441132 1.59521484 11.8581543 C-0.00337624 11.86576027 -0.00337624 11.86576027 -1.63426208 11.8735199 C-4.79311292 12.31182436 -6.15427545 13.03515753 -8.41088867 15.25878906 C-9.76109844 19.30941837 -9.96817671 23.02339995 -9.41088867 27.25878906 C-7.61695199 30.12908775 -6.42825591 31.75010544 -3.41088867 33.25878906 C-1.48150552 33.36862571 0.45160207 33.41524549 2.3840332 33.43237305 C3.59869263 33.44586288 4.81335205 33.45935272 6.06481934 33.47325134 C7.38252319 33.48368973 8.70022705 33.49412811 10.05786133 33.50488281 C11.41785487 33.52037965 12.77784047 33.53658882 14.13781738 33.55348206 C19.92047905 33.62430021 25.70321535 33.68446114 31.48608398 33.7355957 C35.02222957 33.76734317 38.55815985 33.80860404 42.09413147 33.85579109 C44.10048169 33.87964645 46.10695219 33.89256812 48.11340332 33.90538025 C49.32806274 33.92202225 50.54272217 33.93866425 51.79418945 33.95581055 C52.86737427 33.96611801 53.94055908 33.97642548 55.04626465 33.98704529 C57.58911133 34.25878906 57.58911133 34.25878906 59.58911133 36.25878906 C59.92244466 41.5921224 59.92244466 41.5921224 58.58911133 44.25878906 C49.86139865 44.42143001 41.13421247 44.54558316 32.40531158 44.62147427 C28.35144793 44.65791056 24.29862568 44.707279 20.24536133 44.78686523 C16.32897306 44.86327713 12.41358225 44.9048515 8.49650574 44.92292976 C7.00693569 44.93580174 5.51741644 44.96093915 4.02827454 44.99889946 C-9.08454211 45.31967797 -9.08454211 45.31967797 -14.28588867 40.89379883 C-19.23948168 35.69750616 -21.00124203 29.65300408 -21.84838867 22.63378906 C-20.76364576 14.26577229 -17.95617989 7.82896547 -11.41088867 2.25878906 C-7.50148333 0.34609164 -4.32941389 0.00615181 0 0 Z " fill="#F67167" transform="translate(834.410888671875,173.7412109375)"/>
<path d="M0 0 C1.90712769 -0.01925285 1.90712769 -0.01925285 3.8527832 -0.03889465 C5.24169526 -0.04705989 6.63061172 -0.05450404 8.01953125 -0.0612793 C8.71911957 -0.06535482 9.41870789 -0.06943035 10.13949585 -0.07362938 C13.83876244 -0.0944624 17.53799218 -0.10877891 21.23730469 -0.11816406 C25.0609248 -0.1292538 28.88396699 -0.16368999 32.7073822 -0.20333576 C35.64645489 -0.22944339 38.58538819 -0.23785035 41.52456665 -0.24144554 C42.93441698 -0.24632274 44.34426061 -0.25796905 45.7539978 -0.27648354 C47.72387748 -0.30075711 49.69403849 -0.29750183 51.6640625 -0.29296875 C52.78530518 -0.29883499 53.90654785 -0.30470123 55.06176758 -0.31074524 C57.83203125 0.17700195 57.83203125 0.17700195 59.7253418 2.04231262 C60.83203125 4.17700195 60.83203125 4.17700195 60.70703125 6.80200195 C59.83203125 9.17700195 59.83203125 9.17700195 56.83203125 11.17700195 C54.18238831 11.42855835 54.18238831 11.42855835 50.95532227 11.43237305 C49.74719376 11.43933197 48.53906525 11.44629089 47.29432678 11.45346069 C45.33492409 11.45196518 45.33492409 11.45196518 43.3359375 11.45043945 C41.98216292 11.45899833 40.62839675 11.46899811 39.27464294 11.4803772 C33.52680559 11.52663011 27.77902293 11.55125737 22.03100586 11.55786133 C18.51303207 11.56287761 14.99561296 11.58713109 11.47782707 11.62318802 C9.48816534 11.63774031 7.49838231 11.6303473 5.50868225 11.62265015 C3.69176125 11.64254501 3.69176125 11.64254501 1.83813477 11.6628418 C0.77240738 11.66569183 -0.29332001 11.66854187 -1.39134216 11.67147827 C-4.84293888 12.2998897 -5.99617316 13.48289666 -8.16796875 16.17700195 C-9.76485916 19.37078277 -9.54145832 22.70221511 -9.16796875 26.17700195 C-7.92889525 29.02687099 -7.04511811 30.61440005 -4.42823792 32.29286194 C-1.58945274 33.40329763 0.69789317 33.43580637 3.74633789 33.44824219 C4.93759781 33.4584288 6.12885773 33.46861542 7.35621643 33.47911072 C9.27977211 33.48232079 9.27977211 33.48232079 11.2421875 33.4855957 C13.25715421 33.50431128 15.27212093 33.52304356 17.2870779 33.54277897 C22.25484764 33.58817066 27.22275209 33.61181604 32.19067383 33.63330078 C34.98079241 33.64609288 37.77065505 33.66675684 40.56065369 33.6955719 C43.18926913 33.72191299 45.81804519 33.73570962 48.4467926 33.73594666 C49.63490036 33.74928543 50.82300812 33.76262421 52.04711914 33.77636719 C53.61786949 33.78397316 53.61786949 33.78397316 55.22035217 33.79173279 C57.83203125 34.17700195 57.83203125 34.17700195 59.70921326 35.50672913 C60.83203125 37.17700195 60.83203125 37.17700195 60.58203125 40.30200195 C59.83203125 43.17700195 59.83203125 43.17700195 58.83203125 44.17700195 C56.77818042 44.29221905 54.72033728 44.33669551 52.66333008 44.35400391 C52.01933258 44.3605751 51.37533508 44.3671463 50.71182251 44.37391663 C48.57090142 44.39369801 46.43005078 44.40532567 44.2890625 44.4152832 C43.5582868 44.41935873 42.8275111 44.42343426 42.07459068 44.42763329 C38.20329443 44.44851927 34.33203383 44.46280735 30.46069336 44.47216797 C26.46692716 44.48320999 22.47372161 44.51757625 18.48015308 44.55733967 C15.40627532 44.58353387 12.33253019 44.59186247 9.25855064 44.59544945 C7.7869865 44.60031187 6.31542815 44.6119162 4.84397316 44.63048744 C2.77810538 44.65493011 0.71367427 44.65390522 -1.35229492 44.64697266 C-3.11315681 44.65577202 -3.11315681 44.65577202 -4.90959167 44.66474915 C-9.9199895 43.91474158 -12.99416199 41.4160202 -16.41796875 37.80200195 C-21.04239848 30.86535736 -20.89622794 23.23394536 -20.16796875 15.17700195 C-18.524644 8.93827205 -14.45047602 4.71910079 -9.16796875 1.17700195 C-5.89443587 0.08582433 -3.44655783 0.03025985 0 0 Z " fill="#F67167" transform="translate(412.16796875,173.822998046875)"/>
<path d="M0 0 C4.26515139 0.74443094 6.49670732 3.17802122 9.55859375 6.078125 C20.43977515 15.39960924 30.76732435 17.07720401 44.55029297 16.32763672 C53.31178603 15.3283738 60.31342542 9.3067898 66.81640625 3.796875 C71.16687376 0.13158549 71.16687376 0.13158549 74.4375 -0.1875 C76.875 0.0625 76.875 0.0625 78.875 2.0625 C79.06283562 5.13601935 79.13046922 8.11792478 79.10546875 11.19140625 C79.10501053 12.09624252 79.10455231 13.0010788 79.1040802 13.93333435 C79.1010567 15.84741527 79.0931675 17.76149369 79.08081055 19.67553711 C79.06255301 22.61646165 79.06030083 25.55707158 79.06054688 28.49804688 C79.05563186 30.35416941 79.04980362 32.21028979 79.04296875 34.06640625 C79.04185593 34.95179581 79.0407431 35.83718536 79.03959656 36.74940491 C78.99104529 42.94645471 78.99104529 42.94645471 77.875 44.0625 C74.4375 44.25 74.4375 44.25 70.875 44.0625 C68.27411378 41.46161378 68.57537775 40.24112887 68.4609375 36.6171875 C68.42226563 35.54082031 68.38359375 34.46445313 68.34375 33.35546875 C68.3128125 32.22753906 68.281875 31.09960938 68.25 29.9375 C68.21132813 28.80183594 68.17265625 27.66617188 68.1328125 26.49609375 C68.03832399 23.68506044 67.95276459 20.87403767 67.875 18.0625 C67.18535156 18.53300781 66.49570312 19.00351563 65.78515625 19.48828125 C52.96565709 27.98185888 40.22714048 30.94190685 24.8359375 27.9296875 C17.87096913 25.8898155 11.61920525 22.45077369 5.875 18.0625 C5.85518066 18.77905762 5.83536133 19.49561523 5.81494141 20.23388672 C5.71990481 23.4688063 5.61013981 26.70306094 5.5 29.9375 C5.4690625 31.06542969 5.438125 32.19335938 5.40625 33.35546875 C5.34824219 34.97001953 5.34824219 34.97001953 5.2890625 36.6171875 C5.2576416 37.61218262 5.2262207 38.60717773 5.19384766 39.63232422 C4.875 42.0625 4.875 42.0625 2.875 44.0625 C-0.6875 44.25 -0.6875 44.25 -4.125 44.0625 C-6.26681645 41.92068355 -5.28923544 37.03672074 -5.29296875 34.06640625 C-5.29629715 33.1625267 -5.29962555 32.25864716 -5.30305481 31.32737732 C-5.30812796 29.41153473 -5.31046302 27.49568328 -5.31030273 25.57983398 C-5.31248813 22.64096582 -5.33063665 19.70247348 -5.34960938 16.76367188 C-5.35254337 14.90625129 -5.35452813 13.04882891 -5.35546875 11.19140625 C-5.36265427 10.30804092 -5.36983978 9.4246756 -5.37724304 8.51454163 C-5.34560017 0.106912 -5.34560017 0.106912 0 0 Z " fill="#F66C69" transform="translate(711.125,173.9375)"/>
<path d="M0 0 C2.875 0.6875 2.875 0.6875 3.875 1.6875 C3.99602273 3.23906391 4.05459399 4.79560149 4.0859375 6.3515625 C4.11429688 7.30933594 4.14265625 8.26710937 4.171875 9.25390625 C4.2233553 11.26936 4.26779753 13.28500766 4.3046875 15.30078125 C4.49123019 21.12246785 4.8967268 25.61491597 7.875 30.6875 C10.75285146 32.52420073 12.99899733 32.94206625 16.38061523 32.9621582 C17.70735512 32.97645622 17.70735512 32.97645622 19.06089783 32.99104309 C20.00888748 32.99013168 20.95687714 32.98922028 21.93359375 32.98828125 C22.91489761 32.99256638 23.89620148 32.9968515 24.90724182 33.00126648 C26.98087798 33.00700486 29.05453427 33.00751367 31.12817383 33.00317383 C34.2973878 33.00001506 37.46566711 33.02347534 40.63476562 33.04882812 C42.65104049 33.05110131 44.66731786 33.05180453 46.68359375 33.05078125 C47.62955917 33.059991 48.5755246 33.06920074 49.55015564 33.07868958 C56.22297437 33.03620821 56.22297437 33.03620821 61.875 29.6875 C63.99497834 26.64620957 64.13484332 24.02355251 64.18359375 20.37109375 C64.20873047 19.35982422 64.23386719 18.34855469 64.25976562 17.30664062 C64.29498559 15.18170272 64.32622135 13.05669511 64.35351562 10.93164062 C64.37994141 9.92166016 64.40636719 8.91167969 64.43359375 7.87109375 C64.44704834 6.94868896 64.46050293 6.02628418 64.47436523 5.07592773 C64.94613392 2.26342737 65.60465168 1.36499166 67.875 -0.3125 C70.375 -0.75 70.375 -0.75 72.875 -0.3125 C75.62631975 2.59157935 76.25757518 4.62034569 76.2734375 8.57421875 C76.27730469 9.51330078 76.28117188 10.45238281 76.28515625 11.41992188 C76.27355469 12.39509766 76.26195312 13.37027344 76.25 14.375 C76.26160156 15.33083984 76.27320313 16.28667969 76.28515625 17.27148438 C76.25381128 24.9353305 75.3477323 32.75554374 69.9375 38.625 C69.45410156 39.17027344 68.97070312 39.71554688 68.47265625 40.27734375 C64.95671093 43.38065979 61.92682552 43.94379163 57.29956055 43.99389648 C56.18127365 44.00988388 55.06298676 44.02587128 53.91081238 44.04234314 C52.10451103 44.05038719 52.10451103 44.05038719 50.26171875 44.05859375 C48.39734917 44.07213646 48.39734917 44.07213646 46.49531555 44.08595276 C43.865147 44.10046208 41.2349423 44.10934368 38.60473633 44.11303711 C35.91488293 44.11734595 33.22598605 44.13820123 30.53637695 44.17456055 C26.65286101 44.22339932 22.77051012 44.23882552 18.88671875 44.24609375 C17.68859055 44.26562607 16.49046234 44.28515839 15.25602722 44.30528259 C8.08695173 44.26664642 4.12844825 43.71022399 -1.125 38.6875 C-6.86814646 31.561154 -6.83310222 23.45617086 -6.625 14.6875 C-6.62757813 13.46160156 -6.63015625 12.23570312 -6.6328125 10.97265625 C-6.55932138 4.32170966 -6.55932138 4.32170966 -6.125 1.6875 C-3.125 -0.3125 -3.125 -0.3125 0 0 Z " fill="#F78460" transform="translate(607.125,174.3125)"/>
<path d="M0 0 C-1 2 -1 2 -3.16699219 2.74267578 C-4.11735352 2.9745459 -5.06771484 3.20641602 -6.046875 3.4453125 C-7.10849854 3.71303467 -8.17012207 3.98075684 -9.26391602 4.2565918 C-10.41432373 4.5431665 -11.56473145 4.82974121 -12.75 5.125 C-53.31773443 15.70223052 -90.23220406 35.88017568 -121.53710938 63.70019531 C-123.63639311 65.56544675 -125.75702653 67.40603009 -127.875 69.25 C-128.91735852 70.16587987 -129.95935977 71.08216824 -131 72 C-130.60167969 72.44730469 -130.20335937 72.89460938 -129.79296875 73.35546875 C-122.09886616 82.13535711 -119.30412139 89.38357977 -119.625 101.0390625 C-120.32441968 108.42668287 -123.3480877 112.75337291 -128.8125 117.5625 C-129.86370205 118.38956515 -130.92217675 119.20793969 -132 120 C-132.99 119.505 -132.99 119.505 -134 119 C-132.9171875 118.01 -132.9171875 118.01 -131.8125 117 C-126.22949385 111.40113304 -122.43445614 104.60523514 -121.6875 96.6875 C-122.43165692 87.90644833 -125.61173935 82.05432884 -132 76 C-132.99 75.34 -133.98 74.68 -135 74 C-133.37669935 69.68160404 -130.07570648 66.96702968 -126.75 63.9375 C-126.12520752 63.36459229 -125.50041504 62.79168457 -124.85668945 62.20141602 C-118.50114213 56.44212473 -111.86903507 51.12994674 -105 46 C-104.38382813 45.53271484 -103.76765625 45.06542969 -103.1328125 44.58398438 C-57.27042456 10 -57.27042456 10 -37 10 C-37 9.34 -37 8.68 -37 8 C-76.25021435 17.95444435 -111.75350491 29.99349243 -141.81518555 58.22363281 C-149.15226979 65.03725545 -154.94845375 68.19329897 -165 68 C-155.35732184 46.48941027 -131.02236316 33.3310606 -111 23 C-110.20674316 22.58508301 -109.41348633 22.17016602 -108.59619141 21.74267578 C-90.04643252 12.13344996 -69.71798186 4.26003538 -49 1 C-48.2678125 0.87238281 -47.535625 0.74476562 -46.78125 0.61328125 C-39.43611593 -0.50889201 -31.85368999 -1.12429472 -25 2 C-25 2.66 -25 3.32 -25 4 C-18.4369112 2.76579082 -12.00641063 1.25991218 -5.56640625 -0.51171875 C-3 -1 -3 -1 0 0 Z M-159.3828125 61.93359375 C-161.20543609 63.82516979 -161.20543609 63.82516979 -161 66 C-153.22359865 65.60121019 -147.44807134 60.65643285 -142.25 55.25 C-112.98132757 24.88230628 -69.9456152 12.50859517 -30 4 C-30 3.67 -30 3.34 -30 3 C-75.83254597 0.29690096 -129.28529178 28.65969108 -159.3828125 61.93359375 Z " fill="#9A42CD" transform="translate(216,77)"/>
<path d="M0 0 C1.88828282 2.83242422 2.72009589 4.98485959 3.75 8.1875 C6.88386773 16.88886169 11.1600274 21.97158131 19.046875 26.7734375 C21 28 21 28 23 30 C22.28714844 30.38929687 21.57429688 30.77859375 20.83984375 31.1796875 C10.46966318 37.23710118 5.2975008 44.94928366 1 56 C-1.37821625 53.62178375 -2.2875278 51.3694256 -3.6875 48.3125 C-7.82525693 39.91646896 -13.34767539 35.15360637 -21 30 C-18.95936666 27.83606556 -17.28086242 26.55223509 -14.6875 24.9375 C-6.67426113 19.26918787 -3.41788897 8.80182027 0 0 Z " fill="#9841CE" transform="translate(242,18)"/>
<path d="M0 0 C1.09453491 -0.00637985 2.18906982 -0.0127597 3.31677246 -0.01933289 C4.50323364 -0.02044571 5.68969482 -0.02155853 6.91210938 -0.02270508 C8.1253186 -0.02603348 9.33852783 -0.02936188 10.58850098 -0.03279114 C13.15746684 -0.03786108 15.7264393 -0.04019944 18.29541016 -0.04003906 C22.23936726 -0.04222718 26.18304551 -0.06038698 30.12695312 -0.0793457 C32.61783758 -0.08227919 35.10872337 -0.08426429 37.59960938 -0.08520508 C38.78607056 -0.09239059 39.97253174 -0.09957611 41.19494629 -0.10697937 C42.83674866 -0.10236443 42.83674866 -0.10236443 44.51171875 -0.09765625 C45.47831421 -0.09908127 46.44490967 -0.10050629 47.4407959 -0.10197449 C49.75585938 0.14526367 49.75585938 0.14526367 51.75585938 2.14526367 C52.13085938 5.08276367 52.13085938 5.08276367 51.75585938 8.14526367 C48.80968904 11.03333321 46.64786608 11.52272434 42.59179688 11.53344727 C41.56393066 11.54290375 40.53606445 11.55236023 39.47705078 11.56210327 C38.37280762 11.55603058 37.26856445 11.54995789 36.13085938 11.54370117 C34.99181152 11.54657135 33.85276367 11.54944153 32.67919922 11.55239868 C30.27180484 11.55443948 27.86439388 11.54890861 25.45703125 11.53637695 C21.76980551 11.52032439 18.08367598 11.53622605 14.39648438 11.55541992 C12.05794029 11.55343749 9.71939688 11.54959383 7.38085938 11.54370117 C5.72449463 11.55281021 5.72449463 11.55281021 4.03466797 11.56210327 C3.00680176 11.55264679 1.97893555 11.54319031 0.91992188 11.53344727 C-0.43431885 11.5298671 -0.43431885 11.5298671 -1.81591797 11.5262146 C-4.6889379 11.07548179 -6.08479218 10.04518385 -8.24414062 8.14526367 C-7.98852739 5.80214237 -7.6514329 3.46682964 -7.24414062 1.14526367 C-4.6861597 -0.13372679 -2.86387206 0.01129377 0 0 Z " fill="#F77367" transform="translate(838.244140625,190.854736328125)"/>
<path d="M0 0 C1.09453491 -0.00630432 2.18906982 -0.01260864 3.31677246 -0.019104 C5.09646423 -0.01303131 5.09646423 -0.01303131 6.91210938 -0.00683594 C8.1253186 -0.00874939 9.33852783 -0.01066284 10.58850098 -0.01263428 C13.15747281 -0.01399728 15.7264515 -0.01029286 18.29541016 -0.00195312 C22.23941441 0.00874446 26.18296313 -0.00184487 30.12695312 -0.01464844 C32.61783955 -0.01332686 35.1087257 -0.01076452 37.59960938 -0.00683594 C38.78607056 -0.0108844 39.97253174 -0.01493286 41.19494629 -0.019104 C42.83674866 -0.00964752 42.83674866 -0.00964752 44.51171875 0 C45.96161194 0.00238678 45.96161194 0.00238678 47.4407959 0.00482178 C49.75585938 0.25878906 49.75585938 0.25878906 51.75585938 2.25878906 C51.88085938 5.88378906 51.88085938 5.88378906 51.75585938 9.25878906 C48.58834296 11.11301952 46.24399136 11.51847678 42.59179688 11.54931641 C41.04999756 11.56845596 41.04999756 11.56845596 39.47705078 11.58798218 C38.37280762 11.59020782 37.26856445 11.59243347 36.13085938 11.59472656 C34.99181152 11.60138336 33.85276367 11.60804016 32.67919922 11.61489868 C30.27182632 11.6250201 27.8644254 11.62971586 25.45703125 11.62939453 C21.76971447 11.63377261 18.08358978 11.67011311 14.39648438 11.70800781 C12.05794681 11.71387498 9.71940355 11.71784504 7.38085938 11.71972656 C6.27661621 11.7340976 5.17237305 11.74846863 4.03466797 11.76327515 C3.00680176 11.75712189 1.97893555 11.75096863 0.91992188 11.74462891 C-0.43431885 11.74890396 -0.43431885 11.74890396 -1.81591797 11.75326538 C-5.02619067 11.09953463 -6.25041557 9.80696241 -8.24414062 7.25878906 C-7.95941837 1.27962173 -5.61969653 0.00925101 0 0 Z " fill="#F77367" transform="translate(416.244140625,190.7412109375)"/>
<path d="M0 0 C-1 2 -1 2 -2.66040039 2.69506836 C-3.38219482 2.90784424 -4.10398926 3.12062012 -4.84765625 3.33984375 C-5.66838623 3.5922583 -6.48911621 3.84467285 -7.3347168 4.10473633 C-8.23488525 4.37954834 -9.13505371 4.65436035 -10.0625 4.9375 C-41.68153357 15.05853941 -74.7611675 31.77031913 -96 58 C-96.33 58.66 -96.66 59.32 -97 60 C-89.80102494 58.009133 -85.09767569 54.63393254 -79.74072266 49.48754883 C-58.87001769 29.45101263 -27.19418599 8.75504928 2 5 C4.78125 5.44140625 4.78125 5.44140625 7 6 C4.39718892 7.73520739 2.97466371 8.41688994 0.0703125 9.19140625 C-30.3881823 17.63559312 -56.37265799 31.98607607 -79.375 53.64453125 C-86.25749685 59.82034315 -91.80148739 62.17689447 -101 62 C-91.36265674 40.50131118 -67.02347717 27.31139292 -47 17 C-46.19079102 16.57976562 -45.38158203 16.15953125 -44.54785156 15.7265625 C-34.23484691 10.42754882 -23.80828165 6.00517461 -12.8125 2.3125 C-11.24314697 1.785354 -11.24314697 1.785354 -9.64208984 1.24755859 C-2.26452371 -1.13226186 -2.26452371 -1.13226186 0 0 Z " fill="#AE43CE" transform="translate(152,83)"/>
<path d="M0 0 C2.85746217 1.26998319 4.48137263 2.2838003 6.3125 4.8125 C7.24508259 7.77980823 7.37237901 9.89684156 7 13 C3.84210526 18.57894737 3.84210526 18.57894737 1 20 C-3.78122289 20.65753556 -6.98803489 20.71680862 -11 17.875 C-13.22054675 14.68296405 -13.91932039 12.87262117 -14 9 C-13.21128929 5.68741503 -12.15873468 4.16780524 -9.8125 1.6875 C-6.21852832 -0.46888301 -4.13327601 -0.5166595 0 0 Z " fill="#FFFFFF" transform="translate(352,130)"/>
<path d="M0 0 C-1 2 -1 2 -3.16699219 2.74267578 C-4.11735352 2.9745459 -5.06771484 3.20641602 -6.046875 3.4453125 C-7.64172729 3.8482251 -7.64172729 3.8482251 -9.26879883 4.25927734 C-10.99199341 4.68781006 -10.99199341 4.68781006 -12.75 5.125 C-23.43725946 7.87304696 -33.60544388 11.27521278 -43.83203125 15.3984375 C-46.8673631 16.61203266 -49.7450508 17.53783683 -53 18 C-52 15 -52 15 -49.3828125 13.61328125 C-48.30773437 13.18402344 -47.23265625 12.75476563 -46.125 12.3125 C-45.05507812 11.87550781 -43.98515625 11.43851563 -42.8828125 10.98828125 C-40 10 -40 10 -37 10 C-37 9.34 -37 8.68 -37 8 C-38.64548828 8.433125 -38.64548828 8.433125 -40.32421875 8.875 C-41.77856457 9.25031505 -43.23299623 9.62529755 -44.6875 10 C-45.40873047 10.19078125 -46.12996094 10.3815625 -46.87304688 10.578125 C-50.66850961 11.54865428 -54.04615439 12.24955239 -58 12 C-55.61530463 9.17862221 -53.68644261 8.41453562 -50.11328125 7.61328125 C-49.17548828 7.39736328 -48.23769531 7.18144531 -47.27148438 6.95898438 C-46.29501953 6.74564453 -45.31855469 6.53230469 -44.3125 6.3125 C-43.32443359 6.08755859 -42.33636719 5.86261719 -41.31835938 5.63085938 C-38.88093651 5.07743486 -36.44168502 4.5342474 -34 4 C-42.41182741 3.62272535 -49.83752287 4.35578053 -58.00390625 6.44140625 C-60.84855544 6.97176457 -62.32806506 6.98646009 -65 6 C-58.37100932 -0.62899068 -41.63758742 -0.0868112 -32.61328125 -0.23046875 C-29.75264482 0.02181458 -27.601502 0.81409008 -25 2 C-25 2.66 -25 3.32 -25 4 C-18.4369112 2.76579082 -12.00641063 1.25991218 -5.56640625 -0.51171875 C-3 -1 -3 -1 0 0 Z " fill="#8D43CE" transform="translate(216,77)"/>
<path d="M0 0 C1.01154566 1.97891902 1.97711703 3.94447356 2.82421875 6 C5.20045425 11.50512478 7.56871112 13.49325129 13 16 C11.2695623 17.82151337 9.66688558 19.22207628 7.5625 20.625 C4.05161857 23.87898766 2.68811602 27.58637823 1 32 C-1.53149646 30.73425177 -1.62100714 29.81730407 -2.6875 27.25 C-4.88988413 22.57726105 -7.73627118 20.78782269 -12 18 C-12 17.34 -12 16.68 -12 16 C-10.97267747 15.12366724 -9.90132698 14.29862789 -8.8125 13.5 C-4.30392099 9.81616105 -2.25956921 5.26885724 0 0 Z " fill="#F78061" transform="translate(215,0)"/>
<path d="M0 0 C1.765625 0.05859375 1.765625 0.05859375 4 1 C5.72894698 2.99515901 7.24257501 4.91429664 8.75 7.0625 C9.16121094 7.63033203 9.57242188 8.19816406 9.99609375 8.78320312 C11.00695036 10.18194657 12.00477206 11.59009375 13 13 C13.33 8.71 13.66 4.42 14 0 C15.32 0.33 16.64 0.66 18 1 C18 7.6 18 14.2 18 21 C16.68 21.33 15.36 21.66 14 22 C10.7 17.71 7.4 13.42 4 9 C3.67 12.96 3.34 16.92 3 21 C1.68 21 0.36 21 -1 21 C-1.02888146 17.68751813 -1.04675799 14.37506833 -1.0625 11.0625 C-1.07087891 10.11697266 -1.07925781 9.17144531 -1.08789062 8.19726562 C-1.09111328 7.29814453 -1.09433594 6.39902344 -1.09765625 5.47265625 C-1.10289307 4.64000244 -1.10812988 3.80734863 -1.11352539 2.94946289 C-1 1 -1 1 0 0 Z " fill="#FFFFFF" transform="translate(672,234)"/>
<path d="M0 0 C4.44542784 3.02667427 8.50968241 7.14436482 10.9375 12 C11.70610489 18.52216153 11.50761764 23.87618439 7.54296875 29.2734375 C3.33463692 33.79918608 -0.81971813 36.26059799 -7.0625 36.625 C-12.3788034 36.32237965 -16.13885795 34.57024242 -20.0625 31 C-24.25601637 26.21088276 -25.46473601 20.25918476 -25.0625 14 C-23.13339843 7.12233355 -18.85789742 3.65677819 -13.1875 -0.3125 C-8.60647869 -1.79459513 -4.47762091 -1.4620803 0 0 Z M-17.0625 5 C-20.00357894 8.01847576 -22.01435329 10.90269921 -23.0625 15 C-22.87450474 20.92185083 -21.90135626 24.30806458 -18.0625 29 C-14.33554221 32.36335215 -11.80040876 33.83604634 -6.75 34.3125 C-1.05465969 33.82984404 2.1424387 31.09243556 5.75 26.875 C9.2885683 22.22431023 9.63547295 18.74858279 8.9375 13 C6.25022921 7.72498697 2.68315406 4.33934344 -2.625 1.75 C-8.37928644 -0.02054967 -12.27445002 1.96559795 -17.0625 5 Z " fill="#9E42CE" transform="translate(77.0625,156)"/>
<path d="M0 0 C2.46296033 1.84722025 3.00662602 3.33900408 3.75 6.3125 C3.6060483 9.83931669 3.12108249 11.77014866 1.125 14.6875 C-2.16003662 16.93515664 -4.34599973 16.73078574 -8.25 16.3125 C-11.01142665 15.29513229 -11.93085371 14.95079259 -13.25 12.3125 C-13.66329761 9.2540977 -13.72718082 6.36537274 -13.25 3.3125 C-9.45289319 -1.26636409 -5.537201 -1.69192253 0 0 Z " fill="#AC57D5" transform="translate(75.25,165.6875)"/>
<path d="M0 0 C3.39549127 1.72977857 5.42059334 3.06791103 7.4375 6.3125 C8.19653674 9.93900889 7.96006591 12.41575392 7 16 C3.76816786 19.81190458 1.73294102 21.80004527 -3.25 22.375 C-8.19272958 21.88072704 -9.53828301 20.46171699 -13 17 C-14.61429923 13.77140153 -14.59570657 10.49006347 -14 7 C-10.50050518 0.90199969 -6.85671452 -0.57139288 0 0 Z M-8.375 5.625 C-10.48706506 8.71186432 -10.61195145 10.3282913 -10 14 C-8.58333333 16.58333333 -8.58333333 16.58333333 -6 18 C-2.18846501 18 0.05097421 17.80074051 3 15.3125 C4.37694267 12.12832007 3.980224 10.29075199 3 7 C1.93654948 5.01970318 1.93654948 5.01970318 0 4 C-3.63031776 3.45931438 -5.32214079 3.53620159 -8.375 5.625 Z " fill="#FFFFFF" transform="translate(732,234)"/>
<path d="M0 0 C1.765625 0.05859375 1.765625 0.05859375 4 1 C5.72894698 2.99515901 7.24257501 4.91429664 8.75 7.0625 C9.16121094 7.63033203 9.57242188 8.19816406 9.99609375 8.78320312 C11.00695036 10.18194657 12.00477206 11.59009375 13 13 C13.33 8.71 13.66 4.42 14 0 C14.99 0 15.98 0 17 0 C17 7.26 17 14.52 17 22 C12.21162514 20.80290628 10.931528 18.75889577 8.25 14.9375 C7.83878906 14.36966797 7.42757812 13.80183594 7.00390625 13.21679688 C5.99304964 11.81805343 4.99522794 10.40990625 4 9 C3.67 12.96 3.34 16.92 3 21 C1.68 21 0.36 21 -1 21 C-1.02888146 17.68751813 -1.04675799 14.37506833 -1.0625 11.0625 C-1.07087891 10.11697266 -1.07925781 9.17144531 -1.08789062 8.19726562 C-1.09111328 7.29814453 -1.09433594 6.39902344 -1.09765625 5.47265625 C-1.10289307 4.64000244 -1.10812988 3.80734863 -1.11352539 2.94946289 C-1 1 -1 1 0 0 Z " fill="#FFFFFF" transform="translate(625,234)"/>
<path d="M0 0 C2.96922861 1.79349379 5.42452071 3.84904142 7 7 C7.68128376 13.81283762 7.68128376 13.81283762 5.953125 16.82421875 C4.17156722 18.98828747 2.52390368 20.73804816 0 22 C-4.08062075 22.39236738 -6.55502117 22.20149985 -10.3125 20.5 C-13.3046671 17.71658875 -14.22423429 16.03760633 -14.9453125 12.09375 C-15.04072151 8.44094791 -13.867661 6.07260358 -12 3 C-8.19724212 -0.27459707 -4.91939896 -0.69044196 0 0 Z M-11 9 C-11.07089184 12.54459212 -10.65406211 14.22015672 -8.375 16.9375 C-4.92482276 18.48100034 -2.60000284 17.93333407 1 17 C3.32749345 13.50875983 3.50299316 12.10777749 3 8 C1.04476263 5.24818444 -0.14059407 4.19832445 -3.4375 3.4375 C-7.23492622 4.27108137 -8.71709901 5.91136925 -11 9 Z " fill="#FFFFFF" transform="translate(941,234)"/>
<path d="M0 0 C4.78837486 1.19709372 6.068472 3.24110423 8.75 7.0625 C9.16121094 7.63033203 9.57242188 8.19816406 9.99609375 8.78320312 C11.00695036 10.18194657 12.00477206 11.59009375 13 13 C13.33 9.04 13.66 5.08 14 1 C15.32 1 16.64 1 18 1 C18 7.6 18 14.2 18 21 C16.68 21.33 15.36 21.66 14 22 C10.7 17.38 7.4 12.76 4 8 C3.67 12.62 3.34 17.24 3 22 C2.01 22 1.02 22 0 22 C0 14.74 0 7.48 0 0 Z " fill="#FFFFFF" transform="translate(977,234)"/>
<path d="M0 0 C4.49337792 0.0357753 7.49901831 0.99901831 10.75 4.25 C10.97532395 7.55475133 10.93935041 9.80818237 9.625 12.875 C8.45697267 15.21933175 8.45697267 15.21933175 9.625 17.375 C9.99625 17.99375 10.3675 18.6125 10.75 19.25 C10.75 20.24 10.75 21.23 10.75 22.25 C8.9375 22.125 8.9375 22.125 6.75 21.25 C6.275625 20.26 5.80125 19.27 5.3125 18.25 C4.06845769 15.00674092 4.06845769 15.00674092 1.0625 14.375 C0.299375 14.33375 -0.46375 14.2925 -1.25 14.25 C-1.25 16.56 -1.25 18.87 -1.25 21.25 C-2.57 21.25 -3.89 21.25 -5.25 21.25 C-5.27888146 17.93751813 -5.29675799 14.62506833 -5.3125 11.3125 C-5.32087891 10.36697266 -5.32925781 9.42144531 -5.33789062 8.44726562 C-5.34111328 7.54814453 -5.34433594 6.64902344 -5.34765625 5.72265625 C-5.35289307 4.89000244 -5.35812988 4.05734863 -5.36352539 3.19946289 C-5.15140321 -0.4431083 -3.18973159 0.06337215 0 0 Z M-1.25 4.25 C-1.25 6.56 -1.25 8.87 -1.25 11.25 C2.215 10.755 2.215 10.755 5.75 10.25 C6.13218767 8.59385343 6.46395102 6.92542976 6.75 5.25 C5.56575674 3.83422523 5.56575674 3.83422523 2.1875 4.1875 C0.4859375 4.2184375 0.4859375 4.2184375 -1.25 4.25 Z " fill="#FFFFFF" transform="translate(518.25,233.75)"/>
<path d="M0 0 C1.93166016 0.01740234 1.93166016 0.01740234 3.90234375 0.03515625 C5.19269531 0.04417969 6.48304688 0.05320313 7.8125 0.0625 C8.81152344 0.07410156 9.81054688 0.08570313 10.83984375 0.09765625 C10.83984375 1.41765625 10.83984375 2.73765625 10.83984375 4.09765625 C7.20984375 4.09765625 3.57984375 4.09765625 -0.16015625 4.09765625 C-0.16015625 5.74765625 -0.16015625 7.39765625 -0.16015625 9.09765625 C2.80984375 9.09765625 5.77984375 9.09765625 8.83984375 9.09765625 C8.83984375 10.08765625 8.83984375 11.07765625 8.83984375 12.09765625 C5.86984375 12.09765625 2.89984375 12.09765625 -0.16015625 12.09765625 C-0.16015625 14.07765625 -0.16015625 16.05765625 -0.16015625 18.09765625 C3.46984375 18.09765625 7.09984375 18.09765625 10.83984375 18.09765625 C10.83984375 19.41765625 10.83984375 20.73765625 10.83984375 22.09765625 C8.52740583 22.12451037 6.21488105 22.14398466 3.90234375 22.16015625 C2.61457031 22.17175781 1.32679688 22.18335938 0 22.1953125 C-3.16015625 22.09765625 -3.16015625 22.09765625 -4.16015625 21.09765625 C-4.25896422 19.62112961 -4.2909487 18.13998389 -4.29296875 16.66015625 C-4.29425781 15.76554688 -4.29554688 14.8709375 -4.296875 13.94921875 C-4.29107422 12.53769531 -4.29107422 12.53769531 -4.28515625 11.09765625 C-4.28902344 10.15664062 -4.29289062 9.215625 -4.296875 8.24609375 C-4.29558594 7.35148438 -4.29429687 6.456875 -4.29296875 5.53515625 C-4.29127686 4.29572266 -4.29127686 4.29572266 -4.28955078 3.03125 C-4.06850382 -0.27194239 -3.38820596 0.10470352 0 0 Z " fill="#FFFFFF" transform="translate(474.16015625,233.90234375)"/>
<path d="M0 0 C1.93166016 0.01740234 1.93166016 0.01740234 3.90234375 0.03515625 C5.19269531 0.04417969 6.48304688 0.05320313 7.8125 0.0625 C8.81152344 0.07410156 9.81054688 0.08570313 10.83984375 0.09765625 C10.83984375 1.41765625 10.83984375 2.73765625 10.83984375 4.09765625 C7.20984375 4.09765625 3.57984375 4.09765625 -0.16015625 4.09765625 C-0.16015625 5.74765625 -0.16015625 7.39765625 -0.16015625 9.09765625 C2.80984375 9.09765625 5.77984375 9.09765625 8.83984375 9.09765625 C8.83984375 10.08765625 8.83984375 11.07765625 8.83984375 12.09765625 C5.86984375 12.09765625 2.89984375 12.09765625 -0.16015625 12.09765625 C-0.16015625 14.07765625 -0.16015625 16.05765625 -0.16015625 18.09765625 C3.46984375 18.09765625 7.09984375 18.09765625 10.83984375 18.09765625 C10.83984375 19.41765625 10.83984375 20.73765625 10.83984375 22.09765625 C8.52740583 22.12451037 6.21488105 22.14398466 3.90234375 22.16015625 C2.61457031 22.17175781 1.32679688 22.18335938 0 22.1953125 C-3.16015625 22.09765625 -3.16015625 22.09765625 -4.16015625 21.09765625 C-4.25896422 19.62112961 -4.2909487 18.13998389 -4.29296875 16.66015625 C-4.29425781 15.76554688 -4.29554688 14.8709375 -4.296875 13.94921875 C-4.29107422 12.53769531 -4.29107422 12.53769531 -4.28515625 11.09765625 C-4.28902344 10.15664062 -4.29289062 9.215625 -4.296875 8.24609375 C-4.29558594 7.35148438 -4.29429687 6.456875 -4.29296875 5.53515625 C-4.29127686 4.29572266 -4.29127686 4.29572266 -4.28955078 3.03125 C-4.06850382 -0.27194239 -3.38820596 0.10470352 0 0 Z " fill="#FFFFFF" transform="translate(431.16015625,233.90234375)"/>
<path d="M0 0 C11.9 0 11.9 0 15 3 C16 5.875 16 5.875 16 9 C15.46375 9.804375 14.9275 10.60875 14.375 11.4375 C12.73127915 13.81225814 12.73127915 13.81225814 13.46484375 15.8671875 C14.22712577 17.61657204 15.107153 19.31351122 16 21 C14.68 21.33 13.36 21.66 12 22 C9 16.25 9 16.25 9 14 C7.02 14 5.04 14 3 14 C3 16.64 3 19.28 3 22 C2.01 22 1.02 22 0 22 C0 14.74 0 7.48 0 0 Z M3 4 C3 6.31 3 8.62 3 11 C7.7897321 11.23428313 7.7897321 11.23428313 12 9 C11.50243908 6.24358584 11.50243908 6.24358584 10 4 C7.66702567 3.95907063 5.33294775 3.95758277 3 4 Z " fill="#FFFFFF" transform="translate(383,234)"/>
<path d="M0 0 C0.99 0 1.98 0 3 0 C4.36978501 3.09750602 5.71806572 6.20391657 7.0625 9.3125 C7.64741211 10.63411133 7.64741211 10.63411133 8.24414062 11.98242188 C8.60830078 12.82998047 8.97246094 13.67753906 9.34765625 14.55078125 C9.85824585 15.72120972 9.85824585 15.72120972 10.37915039 16.9152832 C11 19 11 19 10 22 C9.01 21.67 8.02 21.34 7 21 C6.67 19.68 6.34 18.36 6 17 C3.03 17 0.06 17 -3 17 C-3.99 19.475 -3.99 19.475 -5 22 C-5.99 22 -6.98 22 -8 22 C-7.40644629 16.69981613 -5.62627368 12.41863107 -3.4375 7.625 C-3.10814453 6.88894531 -2.77878906 6.15289062 -2.43945312 5.39453125 C-1.63252195 3.59355443 -0.8171174 1.79637819 0 0 Z M1 7 C0.34 9.31 -0.32 11.62 -1 14 C0.65 14 2.3 14 4 14 C3.34 11.69 2.68 9.38 2 7 C1.67 7 1.34 7 1 7 Z " fill="#FFFFFF" transform="translate(816,234)"/>
<path d="M0 0 C1.87988281 0.27026367 1.87988281 0.27026367 4 1 C5.09667969 2.6105957 5.09667969 2.6105957 5.921875 4.67578125 C6.22480469 5.42150391 6.52773438 6.16722656 6.83984375 6.93554688 C7.14019531 7.71994141 7.44054687 8.50433594 7.75 9.3125 C8.06582031 10.08529297 8.38164062 10.85808594 8.70703125 11.65429688 C10.21457488 15.4492606 11 17.82141485 11 22 C9.68 21.67 8.36 21.34 7 21 C6.67 19.68 6.34 18.36 6 17 C3.03 17 0.06 17 -3 17 C-3.99 19.475 -3.99 19.475 -5 22 C-5.99 21.67 -6.98 21.34 -8 21 C-5.72564796 13.81783567 -2.96415819 6.9241798 0 0 Z M1 7 C0.34 9.31 -0.32 11.62 -1 14 C0.65 14 2.3 14 4 14 C3.42547254 10.06924356 3.42547254 10.06924356 1 7 Z " fill="#FFFFFF" transform="translate(344,234)"/>
<path d="M0 0 C0.99 0.66 1.98 1.32 3 2 C3 2.99 3 3.98 3 5 C2.09507812 4.93039063 2.09507812 4.93039063 1.171875 4.859375 C-3.98651966 4.60019423 -3.98651966 4.60019423 -8.625 6.625 C-10.27015446 8.99353906 -10.27015446 8.99353906 -9.9375 12.125 C-9.23305313 15.29174932 -9.23305313 15.29174932 -6 17 C-3.93089407 17.02749478 -3.93089407 17.02749478 -1.8125 16.625 C-0.554375 16.41875 0.70375 16.2125 2 16 C2.33 17.32 2.66 18.64 3 20 C-0.75456567 22.50304378 -2.54745934 22.45280074 -7 22 C-10.21542537 20.54395832 -12.28054817 19.40536989 -13.921875 16.19921875 C-15.16043583 12.30983565 -15.05454625 10.19572479 -13.9375 6.1875 C-10.36216454 0.30549651 -6.73347979 -0.62347035 0 0 Z " fill="#FFFFFF" transform="translate(306,234)"/>
<path d="M0 0 C0.99 0 1.98 0 3 0 C3.34933594 0.85464844 3.69867187 1.70929688 4.05859375 2.58984375 C4.51363281 3.69457031 4.96867188 4.79929688 5.4375 5.9375 C5.88996094 7.03964844 6.34242188 8.14179688 6.80859375 9.27734375 C7.74424608 11.86568916 7.74424608 11.86568916 9 13 C9.31453125 12.14535156 9.6290625 11.29070312 9.953125 10.41015625 C10.38109375 9.30542969 10.8090625 8.20070312 11.25 7.0625 C11.66765625 5.96035156 12.0853125 4.85820312 12.515625 3.72265625 C14 1 14 1 16.171875 0.12109375 C16.77515625 0.08113281 17.3784375 0.04117188 18 0 C17.36368028 4.92956124 15.99336069 9.21943001 14.1875 13.8125 C13.93935547 14.49248047 13.69121094 15.17246094 13.43554688 15.87304688 C12.66796875 17.83203125 12.66796875 17.83203125 11 21 C8.89575195 21.69799805 8.89575195 21.69799805 7 22 C5.63021499 18.90249398 4.28193428 15.79608343 2.9375 12.6875 C2.54755859 11.80642578 2.15761719 10.92535156 1.75585938 10.01757812 C1.39169922 9.17001953 1.02753906 8.32246094 0.65234375 7.44921875 C0.31195068 6.66893311 -0.02844238 5.88864746 -0.37915039 5.0847168 C-1 3 -1 3 0 0 Z " fill="#FFFFFF" transform="translate(766,234)"/>
<path d="M0 0 C2.94365036 0.08013567 3.75101278 0.11218266 6.0625 2.0625 C7.26112599 4.8343226 7.58508446 6.38880309 7.0625 9.375 C4.93157223 12.40747414 3.72180734 13.25137987 0.0625 13.9375 C-2.9375 13.375 -2.9375 13.375 -5.375 11.25 C-6.9375 8.375 -6.9375 8.375 -6.8125 5.1875 C-5.44332839 0.78659125 -4.64918662 0.44277968 0 0 Z " fill="#F8A752" transform="translate(747.9375,206.625)"/>
<path d="M0 0 C-2.60281108 1.73520739 -4.02533629 2.41688994 -6.9296875 3.19140625 C-7.71545166 3.40958008 -8.50121582 3.62775391 -9.31079102 3.85253906 C-10.15697998 4.08682617 -11.00316895 4.32111328 -11.875 4.5625 C-23.7475486 7.97310767 -36.65306841 12.10204561 -47 19 C-47.99 18.67 -48.98 18.34 -50 18 C-45.92038219 14.3932652 -41.74983444 12.27155121 -36.8125 10.125 C-35.64340088 9.61054321 -35.64340088 9.61054321 -34.45068359 9.08569336 C-8.45161603 -2.11290401 -8.45161603 -2.11290401 0 0 Z " fill="#9E42CE" transform="translate(159,89)"/>
<path d="M0 0 C4.95 0 9.9 0 15 0 C15.33 1.32 15.66 2.64 16 4 C13.69 4 11.38 4 9 4 C9 9.94 9 15.88 9 22 C8.01 22 7.02 22 6 22 C6 16.06 6 10.12 6 4 C4.02 4 2.04 4 0 4 C0 2.68 0 1.36 0 0 Z " fill="#FFFFFF" transform="translate(851,234)"/>
<path d="M0 0 C2.46296033 1.84722025 3.00662602 3.33900408 3.75 6.3125 C3.6060483 9.83931669 3.12108249 11.77014866 1.125 14.6875 C-2.16003662 16.93515664 -4.34599973 16.73078574 -8.25 16.3125 C-11.01142665 15.29513229 -11.93085371 14.95079259 -13.25 12.3125 C-13.66329761 9.2540977 -13.72718082 6.36537274 -13.25 3.3125 C-9.45289319 -1.26636409 -5.537201 -1.69192253 0 0 Z M-10.125 2.375 C-11.91235303 5.45321911 -11.68386742 7.84156068 -11.25 11.3125 C-9.14172636 13.73311048 -7.84654522 14.2252007 -4.6875 14.6875 C-2.25850499 14.46712115 -2.25850499 14.46712115 -0.4375 13.25 C1.42036623 10.21874457 1.12133265 7.77827141 0.75 4.3125 C-0.23048938 2.24847315 -0.23048938 2.24847315 -2.25 1.3125 C-5.36811483 0.92273565 -7.36019567 0.80827755 -10.125 2.375 Z " fill="#9E42CE" transform="translate(75.25,165.6875)"/>
<path d="M0 0 C0.99 0.33 1.98 0.66 3 1 C4.66541898 8.04973472 5.33515855 15.09912377 5.75 22.3125 C5.80663818 23.17198242 5.86327637 24.03146484 5.92163086 24.91699219 C6.16300794 29.75206223 5.92948557 33.45086671 4 38 C3.67 38 3.34 38 3 38 C2.92652344 36.02193359 2.92652344 36.02193359 2.8515625 34.00390625 C2.38910915 22.58355138 1.52907632 11.32704108 0 0 Z " fill="#F9BA53" transform="translate(250,135)"/>
<path d="M0 0 C0.99 0 1.98 0 3 0 C3 7.26 3 14.52 3 22 C1.68 21.67 0.36 21.34 -1 21 C-1.02888146 17.68751813 -1.04675799 14.37506833 -1.0625 11.0625 C-1.07087891 10.11697266 -1.07925781 9.17144531 -1.08789062 8.19726562 C-1.09111328 7.29814453 -1.09433594 6.39902344 -1.09765625 5.47265625 C-1.10289307 4.64000244 -1.10812988 3.80734863 -1.11352539 2.94946289 C-1 1 -1 1 0 0 Z " fill="#FFFFFF" transform="translate(895,234)"/>
<path d="M0 0 C9.17188095 7.11288727 14.98240558 15.73556369 18 27 C18 27.99 18 28.98 18 30 C17.01 29.67 16.02 29.34 15 29 C14.04296875 26.8125 14.04296875 26.8125 13.1875 24 C10.43930726 15.92325034 6.16571477 9.81338822 0 4 C-0.33 3.34 -0.66 2.68 -1 2 C-0.67 1.34 -0.34 0.68 0 0 Z " fill="#F89F5B" transform="translate(200,137)"/>
<path d="M0 0 C-1 2 -1 2 -3.45263672 2.88549805 C-6.92463326 3.82822732 -10.39647021 4.76909451 -13.875 5.6875 C-15.08542969 6.02072266 -16.29585937 6.35394531 -17.54296875 6.69726562 C-19.28126953 7.16229492 -19.28126953 7.16229492 -21.0546875 7.63671875 C-22.12187012 7.92248779 -23.18905273 8.20825684 -24.28857422 8.50268555 C-27 9 -27 9 -30 8 C-27.00536858 5.49066458 -24.45133584 4.34675154 -20.68359375 3.359375 C-19.16668945 2.96105469 -19.16668945 2.96105469 -17.61914062 2.5546875 C-16.56919922 2.28914063 -15.51925781 2.02359375 -14.4375 1.75 C-13.38369141 1.46898438 -12.32988281 1.18796875 -11.24414062 0.8984375 C-3.38407476 -1.12802492 -3.38407476 -1.12802492 0 0 Z " fill="#7C41CE" transform="translate(216,77)"/>
<path d="M0 0 C0.99 0 1.98 0 3 0 C3 7.26 3 14.52 3 22 C2.01 22 1.02 22 0 22 C0 14.74 0 7.48 0 0 Z " fill="#FFFFFF" transform="translate(592,234)"/>
<path d="M0 0 C0.33 0 0.66 0 1 0 C1.5073957 3.20720862 2.004579 6.41592163 2.5 9.625 C2.64308594 10.52863281 2.78617187 11.43226563 2.93359375 12.36328125 C3.63734167 16.95439866 4.18584778 21.33831815 4 26 C3.34 25.67 2.68 25.34 2 25 C1.1484375 22.0859375 1.1484375 22.0859375 0.375 18.375 C-0.01558594 16.56128906 -0.01558594 16.56128906 -0.4140625 14.7109375 C-1.20467933 9.70369755 -1.56221009 4.88190652 0 0 Z " fill="#C145CE" transform="translate(2,173)"/>
<path d="M0 0 C0 3.3 0 6.6 0 10 C-3.465 8.02 -3.465 8.02 -7 6 C-7 5.01 -7 4.02 -7 3 C-2.77777778 0 -2.77777778 0 0 0 Z " fill="#7A3FCE" transform="translate(229,43)"/>
<path d="M0 0 C0.33 0.99 0.66 1.98 1 3 C-1.31 4.98 -3.62 6.96 -6 9 C-6.66 8.67 -7.32 8.34 -8 8 C-5.33333333 5.33333333 -2.66666667 2.66666667 0 0 Z " fill="#8941CE" transform="translate(90,188)"/>
<path d="M0 0 C2 1 2 1 2.75 3.1875 C3.05194616 6.58439429 2.24302818 8.85586991 1 12 C0.67 12 0.34 12 0 12 C0 8.04 0 4.08 0 0 Z " fill="#E93689" transform="translate(96,166)"/>
<path d="M0 0 C0.66 0.33 1.32 0.66 2 1 C0.84414715 4.91211733 -0.35534962 7.8745041 -3 11 C-4 8 -4 8 -3.22265625 5.95703125 C-2.83980469 5.24933594 -2.45695312 4.54164063 -2.0625 3.8125 C-1.68222656 3.09707031 -1.30195312 2.38164062 -0.91015625 1.64453125 C-0.60980469 1.10183594 -0.30945313 0.55914062 0 0 Z " fill="#A341BF" transform="translate(94,179)"/>
</svg>
