<?xml version="1.0" encoding="UTF-8"?>
<svg xmlns="http://www.w3.org/2000/svg" xmlns:xlink="http://www.w3.org/1999/xlink" width="200px" height="143px" viewBox="0 0 300 180" version="1.1">
<g id="surface1">
<path style=" stroke:none;fill-rule:nonzero;fill:white;fill-opacity:1;" d="M 85.261719 65.671875 C 85.261719 69.328125 85.65625 72.296875 86.347656 74.472656 C 87.136719 76.648438 88.125 79.023438 89.507812 81.59375 C 90 82.382812 90.199219 83.175781 90.199219 83.867188 C 90.199219 84.855469 89.605469 85.847656 88.324219 86.835938 L 82.105469 90.988281 C 81.21875 91.582031 80.328125 91.878906 79.539062 91.878906 C 78.550781 91.878906 77.566406 91.382812 76.578125 90.496094 C 75.199219 89.011719 74.011719 87.429688 73.027344 85.847656 C 72.039062 84.164062 71.050781 82.285156 69.96875 80.011719 C 62.269531 89.109375 52.597656 93.660156 40.953125 93.660156 C 32.664062 93.660156 26.050781 91.285156 21.21875 86.539062 C 16.382812 81.792969 13.914062 75.460938 13.914062 67.550781 C 13.914062 59.144531 16.875 52.320312 22.894531 47.175781 C 28.914062 42.03125 36.90625 39.460938 47.074219 39.460938 C 50.425781 39.460938 53.882812 39.757812 57.53125 40.253906 C 61.183594 40.746094 64.933594 41.539062 68.882812 42.429688 L 68.882812 35.207031 C 68.882812 27.691406 67.300781 22.449219 64.242188 19.382812 C 61.085938 16.320312 55.757812 14.835938 48.15625 14.835938 C 44.703125 14.835938 41.152344 15.230469 37.5 16.121094 C 33.847656 17.011719 30.296875 18.097656 26.84375 19.484375 C 25.261719 20.175781 24.078125 20.570312 23.386719 20.769531 C 22.699219 20.96875 22.203125 21.066406 21.808594 21.066406 C 20.425781 21.066406 19.738281 20.078125 19.738281 18 L 19.738281 13.152344 C 19.738281 11.570312 19.933594 10.382812 20.425781 9.691406 C 20.921875 9 21.808594 8.308594 23.191406 7.617188 C 26.644531 5.835938 30.789062 4.351562 35.625 3.164062 C 40.460938 1.878906 45.59375 1.285156 51.019531 1.285156 C 62.761719 1.285156 71.347656 3.957031 76.875 9.296875 C 82.300781 14.636719 85.066406 22.746094 85.066406 33.625 L 85.066406 65.671875 Z M 45.199219 80.703125 C 48.453125 80.703125 51.808594 80.109375 55.363281 78.921875 C 58.914062 77.734375 62.074219 75.558594 64.738281 72.59375 C 66.316406 70.714844 67.5 68.636719 68.09375 66.265625 C 68.683594 63.890625 69.078125 61.023438 69.078125 57.660156 L 69.078125 53.503906 C 66.21875 52.8125 63.15625 52.21875 60 51.824219 C 56.84375 51.429688 53.78125 51.230469 50.722656 51.230469 C 44.113281 51.230469 39.277344 52.515625 36.019531 55.1875 C 32.761719 57.855469 31.183594 61.617188 31.183594 66.558594 C 31.183594 71.207031 32.367188 74.671875 34.835938 77.042969 C 37.203125 79.515625 40.65625 80.703125 45.199219 80.703125 Z M 124.441406 91.382812 C 122.664062 91.382812 121.480469 91.089844 120.691406 90.394531 C 119.902344 89.800781 119.210938 88.417969 118.617188 86.539062 L 95.425781 10.089844 C 94.835938 8.109375 94.539062 6.824219 94.539062 6.132812 C 94.539062 4.550781 95.328125 3.660156 96.90625 3.660156 L 106.578125 3.660156 C 108.453125 3.660156 109.738281 3.957031 110.425781 4.648438 C 111.21875 5.242188 111.808594 6.625 112.402344 8.503906 L 128.980469 73.976562 L 144.375 8.503906 C 144.867188 6.527344 145.460938 5.242188 146.25 4.648438 C 147.039062 4.054688 148.421875 3.660156 150.199219 3.660156 L 158.09375 3.660156 C 159.96875 3.660156 161.25 3.957031 162.039062 4.648438 C 162.828125 5.242188 163.519531 6.625 163.914062 8.503906 L 179.507812 74.769531 L 196.578125 8.503906 C 197.171875 6.527344 197.863281 5.242188 198.550781 4.648438 C 199.34375 4.054688 200.625 3.660156 202.402344 3.660156 L 211.578125 3.660156 C 213.15625 3.660156 214.046875 4.449219 214.046875 6.132812 C 214.046875 6.625 213.949219 7.121094 213.847656 7.714844 C 213.75 8.308594 213.550781 9.097656 213.15625 10.1875 L 189.375 86.636719 C 188.78125 88.617188 188.09375 89.902344 187.300781 90.496094 C 186.511719 91.089844 185.230469 91.484375 183.550781 91.484375 L 175.066406 91.484375 C 173.191406 91.484375 171.90625 91.1875 171.117188 90.496094 C 170.328125 89.800781 169.636719 88.515625 169.242188 86.539062 L 153.949219 22.746094 L 138.75 86.441406 C 138.257812 88.417969 137.664062 89.703125 136.875 90.394531 C 136.085938 91.089844 134.703125 91.382812 132.925781 91.382812 Z M 251.25 94.054688 C 246.117188 94.054688 240.988281 93.460938 236.050781 92.273438 C 231.117188 91.089844 227.269531 89.800781 224.703125 88.320312 C 223.125 87.429688 222.039062 86.441406 221.644531 85.550781 C 221.25 84.660156 221.050781 83.671875 221.050781 82.78125 L 221.050781 77.734375 C 221.050781 75.660156 221.84375 74.671875 223.324219 74.671875 C 223.914062 74.671875 224.507812 74.769531 225.097656 74.96875 C 225.691406 75.164062 226.578125 75.558594 227.566406 75.957031 C 230.921875 77.441406 234.574219 78.625 238.421875 79.417969 C 242.367188 80.207031 246.21875 80.605469 250.164062 80.605469 C 256.382812 80.605469 261.21875 79.515625 264.574219 77.339844 C 267.925781 75.164062 269.703125 72 269.703125 67.945312 C 269.703125 65.175781 268.816406 62.902344 267.039062 61.023438 C 265.261719 59.144531 261.90625 57.460938 257.074219 55.878906 L 242.761719 51.429688 C 235.558594 49.152344 230.230469 45.792969 226.972656 41.339844 C 223.71875 36.988281 222.039062 32.144531 222.039062 27 C 222.039062 22.847656 222.925781 19.1875 224.703125 16.023438 C 226.480469 12.855469 228.847656 10.089844 231.808594 7.910156 C 234.769531 5.636719 238.125 3.957031 242.074219 2.769531 C 246.019531 1.582031 250.164062 1.089844 254.507812 1.089844 C 256.675781 1.089844 258.949219 1.1875 261.117188 1.484375 C 263.386719 1.78125 265.460938 2.175781 267.53125 2.570312 C 269.507812 3.066406 271.382812 3.558594 273.15625 4.152344 C 274.933594 4.746094 276.316406 5.339844 277.300781 5.933594 C 278.683594 6.726562 279.671875 7.515625 280.261719 8.40625 C 280.855469 9.199219 281.152344 10.285156 281.152344 11.671875 L 281.152344 16.320312 C 281.152344 18.394531 280.363281 19.484375 278.882812 19.484375 C 278.09375 19.484375 276.808594 19.089844 275.132812 18.296875 C 269.507812 15.726562 263.191406 14.441406 256.183594 14.441406 C 250.558594 14.441406 246.117188 15.328125 243.058594 17.207031 C 240 19.089844 238.421875 21.957031 238.421875 26.011719 C 238.421875 28.78125 239.40625 31.152344 241.382812 33.03125 C 243.355469 34.910156 247.007812 36.792969 252.238281 38.472656 L 266.25 42.921875 C 273.355469 45.199219 278.488281 48.363281 281.546875 52.417969 C 284.605469 56.472656 286.085938 61.121094 286.085938 66.265625 C 286.085938 70.515625 285.199219 74.375 283.519531 77.734375 C 281.742188 81.097656 279.375 84.066406 276.316406 86.441406 C 273.257812 88.910156 269.605469 90.691406 265.363281 91.976562 C 260.921875 93.363281 256.28125 94.054688 251.25 94.054688 Z M 251.25 94.054688 "/>
<path style=" stroke:none;fill-rule:evenodd;fill:rgb(100%,60.000002%,0%);fill-opacity:1;" d="M 269.902344 142.121094 C 237.433594 166.152344 190.261719 178.910156 149.703125 178.910156 C 92.863281 178.910156 41.644531 157.847656 2.960938 122.835938 C -0.0976562 120.066406 2.664062 116.308594 6.316406 118.484375 C 48.15625 142.8125 99.769531 157.550781 153.15625 157.550781 C 189.175781 157.550781 228.75 150.03125 265.164062 134.605469 C 270.59375 132.132812 275.230469 138.164062 269.902344 142.121094 Z M 269.902344 142.121094 "/>
<path style=" stroke:none;fill-rule:evenodd;fill:rgb(100%,60.000002%,0%);fill-opacity:1;" d="M 283.421875 126.691406 C 279.277344 121.351562 255.988281 124.121094 245.425781 125.40625 C 242.269531 125.800781 241.777344 123.03125 244.636719 120.957031 C 263.191406 107.902344 293.683594 111.660156 297.238281 116.011719 C 300.789062 120.460938 296.25 151.023438 278.882812 165.660156 C 276.21875 167.933594 273.652344 166.746094 274.835938 163.78125 C 278.78125 153.988281 287.566406 131.933594 283.421875 126.691406 Z M 283.421875 126.691406 "/>
</g>
</svg>
