<?xml version="1.0" encoding="UTF-8"?>
<svg xmlns="http://www.w3.org/2000/svg" xmlns:xlink="http://www.w3.org/1999/xlink" width="180px" height="143px" viewBox="0 0 180 180" version="1.1">
<defs>
<linearGradient id="linear0" gradientUnits="userSpaceOnUse" x1="-1032.171997" y1="145.311996" x2="-1059.213013" y2="65.426003" gradientTransform="matrix(1.875,0,0,-1.875,2015.625,296.25)">
<stop offset="0" style="stop-color:rgb(6.666667%,29.019608%,54.509804%);stop-opacity:1;"/>
<stop offset="1" style="stop-color:rgb(2.352941%,41.176471%,73.72549%);stop-opacity:1;"/>
</linearGradient>
<linearGradient id="linear1" gradientUnits="userSpaceOnUse" x1="-1023.724976" y1="108.083" x2="-1029.97998" y2="105.968002" gradientTransform="matrix(1.875,0,0,-1.875,2015.625,296.25)">
<stop offset="0" style="stop-color:rgb(0%,0%,0%);stop-opacity:0.301961;"/>
<stop offset="0.071" style="stop-color:rgb(0%,0%,0%);stop-opacity:0.2;"/>
<stop offset="0.321" style="stop-color:rgb(0%,0%,0%);stop-opacity:0.101961;"/>
<stop offset="0.623" style="stop-color:rgb(0%,0%,0%);stop-opacity:0.0509804;"/>
<stop offset="1" style="stop-color:rgb(0%,0%,0%);stop-opacity:0;"/>
</linearGradient>
<linearGradient id="linear2" gradientUnits="userSpaceOnUse" x1="-1027.165039" y1="147.641998" x2="-997.481995" y2="68.560997" gradientTransform="matrix(1.875,0,0,-1.875,2015.625,296.25)">
<stop offset="0" style="stop-color:rgb(23.529412%,79.607843%,95.686275%);stop-opacity:1;"/>
<stop offset="1" style="stop-color:rgb(15.686275%,57.254902%,87.45098%);stop-opacity:1;"/>
</linearGradient>
</defs>
<g id="surface1">
<path style=" stroke:none;fill-rule:nonzero;fill:url(#linear0);" d="M 62.507812 12.269531 L 111.328125 12.269531 L 60.648438 162.433594 C 59.582031 165.597656 56.613281 167.726562 53.273438 167.726562 L 15.28125 167.726562 C 12.777344 167.726562 10.425781 166.523438 8.964844 164.488281 C 7.503906 162.457031 7.113281 159.84375 7.914062 157.472656 L 55.132812 17.566406 C 56.199219 14.398438 59.167969 12.269531 62.507812 12.269531 Z M 62.507812 12.269531 "/>
<path style=" stroke:none;fill-rule:nonzero;fill:rgb(0%,47.058824%,83.137256%);fill-opacity:1;" d="M 133.453125 112.988281 L 56.035156 112.988281 C 54.5625 112.988281 53.238281 113.886719 52.695312 115.257812 C 52.15625 116.628906 52.511719 118.191406 53.585938 119.195312 L 103.335938 165.625 C 104.785156 166.976562 106.691406 167.730469 108.671875 167.726562 L 152.507812 167.726562 Z M 133.453125 112.988281 "/>
<path style=" stroke:none;fill-rule:nonzero;fill:url(#linear1);" d="M 62.507812 12.269531 C 59.128906 12.257812 56.132812 14.445312 55.117188 17.667969 L 7.972656 157.34375 C 7.117188 159.726562 7.476562 162.375 8.9375 164.441406 C 10.394531 166.507812 12.769531 167.734375 15.300781 167.726562 L 54.277344 167.726562 C 57.230469 167.199219 59.671875 165.121094 60.667969 162.289062 L 70.070312 134.582031 L 103.652344 165.90625 C 105.058594 167.070312 106.824219 167.714844 108.652344 167.726562 L 152.324219 167.726562 L 133.171875 112.988281 L 77.332031 113.003906 L 111.507812 12.269531 Z M 62.507812 12.269531 "/>
<path style=" stroke:none;fill-rule:nonzero;fill:url(#linear2);" d="M 124.867188 17.558594 C 123.800781 14.398438 120.835938 12.269531 117.5 12.269531 L 63.089844 12.269531 C 66.425781 12.269531 69.386719 14.398438 70.453125 17.558594 L 117.675781 157.46875 C 118.476562 159.84375 118.085938 162.457031 116.625 164.488281 C 115.164062 166.523438 112.8125 167.730469 110.308594 167.730469 L 164.722656 167.730469 C 167.226562 167.730469 169.574219 166.523438 171.035156 164.488281 C 172.496094 162.453125 172.886719 159.84375 172.085938 157.46875 Z M 124.867188 17.558594 "/>
</g>
</svg>
