<?xml version="1.0" encoding="UTF-8"?>
<svg xmlns="http://www.w3.org/2000/svg" xmlns:xlink="http://www.w3.org/1999/xlink" width="180px" height="143px" viewBox="0 0 180 180" version="1.1">
<g id="surface1">
<path style=" stroke:none;fill-rule:nonzero;fill:rgb(0%,50.196081%,100%);fill-opacity:1;" d="M 90 112.628906 L 90 95.238281 C 108.40625 95.238281 122.695312 76.984375 115.628906 57.609375 C 113.035156 50.492188 107.289062 44.746094 100.117188 42.152344 C 80.746094 35.136719 62.492188 49.371094 62.492188 67.78125 L 45.152344 67.78125 C 45.152344 38.441406 73.527344 15.558594 104.289062 25.167969 C 117.710938 29.390625 128.441406 40.066406 132.609375 53.492188 C 142.21875 84.253906 119.339844 112.628906 90 112.628906 Z M 90 112.628906 "/>
<path style=" stroke:none;fill-rule:evenodd;fill:rgb(0%,50.196081%,100%);fill-opacity:1;" d="M 90.050781 95.339844 L 72.710938 95.339844 L 72.710938 78 L 90.050781 78 Z M 90.050781 95.339844 "/>
<path style=" stroke:none;fill-rule:evenodd;fill:rgb(0%,50.196081%,100%);fill-opacity:1;" d="M 72.710938 108.609375 L 59.441406 108.609375 L 59.441406 95.339844 L 72.710938 95.339844 Z M 72.710938 108.609375 "/>
<path style=" stroke:none;fill-rule:evenodd;fill:rgb(0%,50.196081%,100%);fill-opacity:1;" d="M 59.441406 95.339844 L 48.304688 95.339844 L 48.304688 84.203125 L 59.441406 84.203125 Z M 59.441406 95.339844 "/>
<path style=" stroke:none;fill-rule:nonzero;fill:rgb(0%,50.196081%,100%);fill-opacity:1;" d="M 15.863281 130.21875 C 13.628906 128.644531 10.78125 127.882812 7.527344 127.882812 L 0.40625 127.882812 L 0.40625 150.507812 L 7.578125 150.507812 C 10.832031 150.507812 13.679688 149.695312 15.914062 148.015625 C 17.136719 147.152344 18.101562 145.933594 18.8125 144.40625 C 19.472656 142.882812 19.832031 141.050781 19.832031 139.066406 C 19.832031 137.085938 19.472656 135.304688 18.8125 133.78125 C 18.101562 132.253906 17.136719 131.035156 15.863281 130.21875 Z M 4.578125 131.695312 L 6.8125 131.695312 C 9.304688 131.695312 11.339844 132.203125 12.914062 133.167969 C 14.644531 134.238281 15.507812 136.21875 15.507812 139.066406 C 15.507812 142.015625 14.644531 144.101562 12.914062 145.21875 C 11.441406 146.1875 9.40625 146.695312 6.863281 146.695312 L 4.578125 146.695312 Z M 4.578125 131.695312 "/>
<path style=" stroke:none;fill-rule:nonzero;fill:rgb(0%,50.196081%,100%);fill-opacity:1;" d="M 24.761719 127.578125 C 24.050781 127.578125 23.492188 127.832031 22.984375 128.289062 C 22.527344 128.746094 22.269531 129.304688 22.269531 130.015625 C 22.269531 130.730469 22.527344 131.289062 22.984375 131.796875 C 23.441406 132.253906 24.050781 132.507812 24.761719 132.507812 C 25.421875 132.507812 26.035156 132.253906 26.542969 131.796875 C 27 131.339844 27.253906 130.730469 27.253906 130.015625 C 27.253906 129.304688 27 128.746094 26.542969 128.289062 C 26.035156 127.832031 25.421875 127.578125 24.761719 127.578125 Z M 24.761719 127.578125 "/>
<path style=" stroke:none;fill-rule:nonzero;fill:rgb(0%,50.196081%,100%);fill-opacity:1;" d="M 22.730469 134.542969 L 26.746094 134.542969 L 26.746094 150.507812 L 22.730469 150.507812 Z M 22.730469 134.542969 "/>
<path style=" stroke:none;fill-rule:nonzero;fill:rgb(0%,50.196081%,100%);fill-opacity:1;" d="M 41.339844 135.863281 C 40.117188 134.796875 38.796875 134.136719 37.320312 134.136719 C 35.085938 134.136719 33.253906 134.898438 31.832031 136.421875 C 30.40625 137.898438 29.644531 139.832031 29.644531 142.167969 C 29.644531 144.40625 30.355469 146.339844 31.78125 147.863281 C 33.203125 149.339844 35.085938 150.101562 37.269531 150.101562 C 38.796875 150.101562 40.167969 149.695312 41.238281 148.832031 L 41.238281 149.1875 C 41.238281 150.507812 40.882812 151.527344 40.167969 152.238281 C 39.457031 152.949219 38.492188 153.304688 37.269531 153.304688 C 35.441406 153.304688 34.269531 152.59375 32.847656 150.660156 L 30.101562 153.304688 L 30.152344 153.40625 C 30.761719 154.21875 31.628906 155.035156 32.847656 155.796875 C 34.015625 156.558594 35.542969 156.964844 37.320312 156.964844 C 39.710938 156.964844 41.644531 156.253906 43.066406 154.78125 C 44.492188 153.304688 45.203125 151.371094 45.203125 148.984375 L 45.203125 134.492188 L 41.238281 134.492188 L 41.238281 135.863281 Z M 40.269531 145.320312 C 39.558594 146.136719 38.644531 146.492188 37.527344 146.492188 C 36.355469 146.492188 35.492188 146.085938 34.78125 145.320312 C 34.066406 144.507812 33.761719 143.492188 33.761719 142.21875 C 33.761719 140.898438 34.117188 139.882812 34.78125 139.066406 C 35.441406 138.253906 36.40625 137.898438 37.527344 137.898438 C 38.695312 137.898438 39.558594 138.304688 40.269531 139.066406 C 40.984375 139.882812 41.339844 140.949219 41.339844 142.21875 C 41.339844 143.492188 40.984375 144.507812 40.269531 145.320312 Z M 40.269531 145.320312 "/>
<path style=" stroke:none;fill-rule:nonzero;fill:rgb(0%,50.196081%,100%);fill-opacity:1;" d="M 48.710938 134.542969 L 52.730469 134.542969 L 52.730469 150.507812 L 48.710938 150.507812 Z M 48.710938 134.542969 "/>
<path style=" stroke:none;fill-rule:nonzero;fill:rgb(0%,50.196081%,100%);fill-opacity:1;" d="M 50.746094 127.578125 C 50.035156 127.578125 49.472656 127.832031 48.964844 128.289062 C 48.507812 128.746094 48.253906 129.304688 48.253906 130.015625 C 48.253906 130.730469 48.507812 131.289062 48.964844 131.796875 C 49.421875 132.253906 50.035156 132.507812 50.746094 132.507812 C 51.40625 132.507812 52.015625 132.253906 52.527344 131.796875 C 52.984375 131.339844 53.238281 130.730469 53.238281 130.015625 C 53.238281 129.304688 52.984375 128.746094 52.527344 128.289062 C 52.015625 127.832031 51.457031 127.578125 50.746094 127.578125 Z M 50.746094 127.578125 "/>
<path style=" stroke:none;fill-rule:nonzero;fill:rgb(0%,50.196081%,100%);fill-opacity:1;" d="M 61.527344 130.21875 L 57.558594 130.21875 L 57.558594 134.542969 L 55.269531 134.542969 L 55.269531 138.203125 L 57.558594 138.203125 L 57.558594 144.8125 C 57.558594 146.898438 57.964844 148.371094 58.78125 149.238281 C 59.59375 150.101562 61.066406 150.507812 63.101562 150.507812 C 63.761719 150.507812 64.421875 150.507812 65.035156 150.457031 L 65.238281 150.457031 L 65.238281 146.796875 L 63.863281 146.847656 C 62.898438 146.847656 62.289062 146.695312 61.984375 146.339844 C 61.679688 145.984375 61.527344 145.269531 61.527344 144.203125 L 61.527344 138.152344 L 65.289062 138.152344 L 65.289062 134.492188 L 61.527344 134.492188 Z M 61.527344 130.21875 "/>
<path style=" stroke:none;fill-rule:nonzero;fill:rgb(0%,50.196081%,100%);fill-opacity:1;" d="M 84.101562 127.832031 L 88.117188 127.832031 L 88.117188 150.507812 L 84.101562 150.507812 Z M 84.101562 127.832031 "/>
<path style=" stroke:none;fill-rule:nonzero;fill:rgb(0%,50.196081%,100%);fill-opacity:1;" d="M 128.695312 144.8125 C 127.984375 145.628906 127.21875 146.339844 126.660156 146.695312 C 126.101562 147.050781 125.390625 147.253906 124.578125 147.253906 C 123.40625 147.253906 122.441406 146.847656 121.679688 145.933594 C 120.914062 145.066406 120.507812 143.898438 120.507812 142.578125 C 120.507812 141.203125 120.914062 140.085938 121.679688 139.21875 C 122.441406 138.355469 123.40625 137.898438 124.578125 137.898438 C 125.847656 137.898438 127.21875 138.710938 128.390625 140.085938 L 131.035156 137.542969 C 129.304688 135.304688 127.117188 134.238281 124.472656 134.238281 C 122.289062 134.238281 120.355469 135.050781 118.78125 136.628906 C 117.203125 138.203125 116.441406 140.1875 116.441406 142.578125 C 116.441406 144.964844 117.253906 146.949219 118.78125 148.527344 C 120.355469 150.101562 122.238281 150.914062 124.472656 150.914062 C 127.371094 150.914062 129.710938 149.644531 131.339844 147.355469 Z M 128.695312 144.8125 "/>
<path style=" stroke:none;fill-rule:nonzero;fill:rgb(0%,50.196081%,100%);fill-opacity:1;" d="M 145.21875 136.78125 C 144.660156 135.964844 143.898438 135.355469 142.933594 134.898438 C 141.964844 134.441406 140.847656 134.1875 139.628906 134.1875 C 137.390625 134.1875 135.558594 135 134.1875 136.628906 C 132.863281 138.253906 132.152344 140.238281 132.152344 142.628906 C 132.152344 145.066406 132.914062 147.050781 134.339844 148.578125 C 135.8125 150.101562 137.746094 150.863281 140.136719 150.863281 C 142.832031 150.863281 145.066406 149.746094 146.746094 147.609375 L 146.847656 147.507812 L 144.203125 144.964844 C 143.949219 145.269531 143.59375 145.578125 143.289062 145.882812 C 142.882812 146.238281 142.527344 146.542969 142.117188 146.746094 C 141.507812 147.050781 140.847656 147.203125 140.085938 147.203125 C 138.964844 147.203125 138.050781 146.898438 137.339844 146.238281 C 136.679688 145.628906 136.269531 144.8125 136.167969 143.796875 L 146.796875 143.796875 L 146.847656 142.320312 C 146.847656 141.304688 146.695312 140.289062 146.441406 139.371094 C 146.1875 138.457031 145.78125 137.59375 145.21875 136.78125 Z M 136.421875 140.542969 C 136.628906 139.78125 136.984375 139.117188 137.492188 138.660156 C 138.050781 138.101562 138.761719 137.847656 139.578125 137.847656 C 140.542969 137.847656 141.304688 138.101562 141.8125 138.660156 C 142.269531 139.167969 142.578125 139.78125 142.628906 140.542969 Z M 136.421875 140.542969 "/>
<path style=" stroke:none;fill-rule:nonzero;fill:rgb(0%,50.196081%,100%);fill-opacity:1;" d="M 160.628906 135.761719 C 159.40625 134.746094 157.730469 134.1875 155.644531 134.1875 C 154.320312 134.1875 153.050781 134.492188 151.933594 135.050781 C 150.863281 135.558594 149.847656 136.472656 149.1875 137.59375 L 149.238281 137.644531 L 151.832031 140.085938 C 152.898438 138.40625 154.066406 137.796875 155.644531 137.796875 C 156.507812 137.796875 157.167969 138 157.730469 138.457031 C 158.238281 138.914062 158.542969 139.472656 158.542969 140.1875 L 158.542969 140.949219 C 157.527344 140.644531 156.558594 140.492188 155.59375 140.492188 C 153.609375 140.492188 151.984375 140.949219 150.761719 141.863281 C 149.542969 142.78125 148.933594 144.152344 148.933594 145.882812 C 148.933594 147.40625 149.441406 148.578125 150.507812 149.492188 C 151.578125 150.355469 152.847656 150.8125 154.371094 150.8125 C 155.898438 150.8125 157.320312 150.203125 158.644531 149.136719 L 158.644531 150.457031 L 162.609375 150.457031 L 162.609375 140.1875 C 162.457031 138.304688 161.847656 136.78125 160.628906 135.761719 Z M 153.507812 144.40625 C 153.964844 144.101562 154.628906 143.949219 155.441406 143.949219 C 156.40625 143.949219 157.421875 144.152344 158.492188 144.507812 L 158.492188 146.085938 C 157.628906 146.898438 156.457031 147.304688 155.035156 147.304688 C 154.320312 147.304688 153.8125 147.152344 153.40625 146.847656 C 153.050781 146.542969 152.847656 146.1875 152.847656 145.679688 C 152.847656 145.117188 153.050781 144.710938 153.507812 144.40625 Z M 153.507812 144.40625 "/>
<path style=" stroke:none;fill-rule:nonzero;fill:rgb(0%,50.196081%,100%);fill-opacity:1;" d="M 177.914062 136.066406 C 176.796875 134.796875 175.21875 134.1875 173.238281 134.1875 C 171.660156 134.1875 170.339844 134.644531 169.371094 135.558594 L 169.371094 134.59375 L 165.457031 134.59375 L 165.457031 150.507812 L 169.472656 150.507812 L 169.472656 141.710938 C 169.472656 140.492188 169.78125 139.527344 170.339844 138.863281 C 170.898438 138.203125 171.660156 137.847656 172.730469 137.847656 C 173.644531 137.847656 174.304688 138.152344 174.8125 138.761719 C 175.320312 139.371094 175.578125 140.238281 175.578125 141.253906 L 175.578125 150.507812 L 179.59375 150.507812 L 179.59375 141.253906 C 179.59375 139.066406 179.035156 137.289062 177.914062 136.066406 Z M 177.914062 136.066406 "/>
<path style=" stroke:none;fill-rule:nonzero;fill:rgb(0%,50.196081%,100%);fill-opacity:1;" d="M 79.066406 135.761719 C 77.847656 134.746094 76.167969 134.1875 74.085938 134.1875 C 72.761719 134.1875 71.492188 134.492188 70.371094 135.050781 C 69.304688 135.558594 68.289062 136.472656 67.628906 137.59375 L 67.679688 137.644531 L 70.269531 140.085938 C 71.339844 138.40625 72.507812 137.796875 74.085938 137.796875 C 74.949219 137.796875 75.609375 138 76.167969 138.457031 C 76.679688 138.914062 76.984375 139.472656 76.984375 140.1875 L 76.984375 140.949219 C 75.964844 140.644531 75 140.492188 74.035156 140.492188 C 72.050781 140.492188 70.421875 140.949219 69.203125 141.863281 C 67.984375 142.78125 67.371094 144.152344 67.371094 145.882812 C 67.371094 147.40625 67.882812 148.578125 68.949219 149.492188 C 70.015625 150.355469 71.289062 150.8125 72.8125 150.8125 C 74.339844 150.8125 75.761719 150.203125 77.085938 149.136719 L 77.085938 150.457031 L 81.050781 150.457031 L 81.050781 140.1875 C 80.898438 138.304688 80.289062 136.78125 79.066406 135.761719 Z M 71.949219 144.40625 C 72.40625 144.101562 73.066406 143.949219 73.882812 143.949219 C 74.847656 143.949219 75.863281 144.152344 76.933594 144.507812 L 76.933594 146.085938 C 76.066406 146.898438 74.898438 147.304688 73.472656 147.304688 C 72.761719 147.304688 72.253906 147.152344 71.847656 146.847656 C 71.492188 146.542969 71.289062 146.1875 71.289062 145.679688 C 71.289062 145.117188 71.492188 144.710938 71.949219 144.40625 Z M 71.949219 144.40625 "/>
<path style=" stroke:none;fill-rule:nonzero;fill:rgb(0%,50.196081%,100%);fill-opacity:1;" d="M 102.710938 150.863281 C 96.253906 150.863281 91.015625 145.628906 91.015625 139.167969 C 91.015625 132.710938 96.253906 127.472656 102.710938 127.472656 C 109.167969 127.472656 114.40625 132.710938 114.40625 139.167969 C 114.40625 145.628906 109.167969 150.863281 102.710938 150.863281 Z M 102.710938 131.59375 C 98.542969 131.59375 95.136719 135 95.136719 139.167969 C 95.136719 143.339844 98.542969 146.746094 102.710938 146.746094 C 106.882812 146.746094 110.289062 143.339844 110.289062 139.167969 C 110.289062 135 106.882812 131.59375 102.710938 131.59375 Z M 102.710938 131.59375 "/>
</g>
</svg>
