<?xml version="1.0" encoding="UTF-8"?>
<svg xmlns="http://www.w3.org/2000/svg" xmlns:xlink="http://www.w3.org/1999/xlink" width="200px" height="143px" viewBox="0 0 223 180" version="1.1">
<g id="surface1">
<path style=" stroke:none;fill-rule:nonzero;fill:rgb(91.764706%,26.274511%,20.784314%);fill-opacity:1;" d="M 141.5 49.566406 L 148.300781 49.566406 L 167.6875 30.125 L 168.640625 21.871094 C 132.570312 -10.058594 77.511719 -6.617188 45.675781 29.5625 C 36.824219 39.613281 30.402344 51.566406 26.90625 64.503906 C 29.066406 63.613281 31.460938 63.472656 33.710938 64.089844 L 72.472656 57.679688 C 72.472656 57.679688 74.445312 54.40625 75.464844 54.613281 C 92.707031 35.617188 121.730469 33.40625 141.636719 49.566406 Z M 141.5 49.566406 "/>
<path style=" stroke:none;fill-rule:nonzero;fill:rgb(25.882354%,52.156866%,95.686275%);fill-opacity:1;" d="M 195.296875 64.503906 C 190.839844 48.050781 181.699219 33.253906 168.976562 21.9375 L 141.777344 49.222656 C 153.265625 58.632812 159.808594 72.820312 159.527344 87.699219 L 159.527344 92.546875 C 172.902344 92.546875 183.734375 103.421875 183.734375 116.828125 C 183.734375 130.246094 172.894531 141.109375 159.527344 141.109375 L 111.101562 141.109375 L 106.269531 146.023438 L 106.269531 175.152344 L 111.101562 180 L 159.527344 180 C 187.289062 180.214844 211.914062 162.167969 220.160156 135.578125 C 228.386719 108.980469 218.289062 80.105469 195.296875 64.503906 Z M 195.296875 64.503906 "/>
<path style=" stroke:none;fill-rule:nonzero;fill:rgb(20.392157%,65.882355%,32.549021%);fill-opacity:1;" d="M 62.613281 179.726562 L 111.039062 179.726562 L 111.039062 140.847656 L 62.613281 140.847656 C 59.164062 140.847656 55.75 140.105469 52.609375 138.664062 L 45.808594 140.773438 L 26.292969 160.21875 L 24.589844 167.042969 C 35.535156 175.332031 48.890625 179.785156 62.613281 179.726562 Z M 62.613281 179.726562 "/>
<path style=" stroke:none;fill-rule:nonzero;fill:rgb(98.431373%,73.725492%,1.960784%);fill-opacity:1;" d="M 62.613281 53.589844 C 35.710938 53.75 11.886719 71.027344 3.308594 96.59375 C -5.273438 122.164062 3.28125 150.382812 24.597656 166.828125 L 52.6875 138.652344 C 40.496094 133.132812 35.085938 118.75 40.589844 106.523438 C 46.097656 94.296875 60.433594 88.871094 72.621094 94.390625 C 77.988281 96.828125 82.285156 101.144531 84.71875 106.523438 L 112.804688 78.351562 C 100.847656 62.683594 82.277344 53.523438 62.613281 53.589844 Z M 62.613281 53.589844 "/>
</g>
</svg>
