<?xml version="1.0" encoding="UTF-8" standalone="no"?>
<!-- Created with Inkscape (http://www.inkscape.org/) -->

<svg
   version="1.1"
   id="svg3079"
   width="501.7583"
   height="277.58264"
   viewBox="0 0 501.7583 277.58264"
   sodipodi:docname="Logo of Kaseya.svg"
   inkscape:version="1.2.2 (b0a8486541, 2022-12-01)"
   xmlns:inkscape="http://www.inkscape.org/namespaces/inkscape"
   xmlns:sodipodi="http://sodipodi.sourceforge.net/DTD/sodipodi-0.dtd"
   xmlns="http://www.w3.org/2000/svg"
   xmlns:svg="http://www.w3.org/2000/svg">
  <defs
     id="defs3083">
    <clipPath
       clipPathUnits="userSpaceOnUse"
       id="clipPath3103">
      <path
         d="M 0,0 H 377 V 209 H 0 Z"
         id="path3101" />
    </clipPath>
    <clipPath
       clipPathUnits="userSpaceOnUse"
       id="clipPath3117">
      <path
         d="M 0,0 H 377 V 209 H 0 Z"
         id="path3115" />
    </clipPath>
    <clipPath
       clipPathUnits="userSpaceOnUse"
       id="clipPath3131">
      <path
         d="M 0,0 H 377 V 209 H 0 Z"
         id="path3129" />
    </clipPath>
    <clipPath
       clipPathUnits="userSpaceOnUse"
       id="clipPath3145">
      <path
         d="M 0,0 H 377 V 209 H 0 Z"
         id="path3143" />
    </clipPath>
    <clipPath
       clipPathUnits="userSpaceOnUse"
       id="clipPath3159">
      <path
         d="M 0,0 H 377 V 209 H 0 Z"
         id="path3157" />
    </clipPath>
    <clipPath
       clipPathUnits="userSpaceOnUse"
       id="clipPath3173">
      <path
         d="M 0,0 H 377 V 209 H 0 Z"
         id="path3171" />
    </clipPath>
    <clipPath
       clipPathUnits="userSpaceOnUse"
       id="clipPath3187">
      <path
         d="M 0,0 H 377 V 209 H 0 Z"
         id="path3185" />
    </clipPath>
    <clipPath
       clipPathUnits="userSpaceOnUse"
       id="clipPath3201">
      <path
         d="M 0,0 H 377 V 209 H 0 Z"
         id="path3199" />
    </clipPath>
    <clipPath
       clipPathUnits="userSpaceOnUse"
       id="clipPath3215">
      <path
         d="M 0,0 H 377 V 209 H 0 Z"
         id="path3213" />
    </clipPath>
    <clipPath
       clipPathUnits="userSpaceOnUse"
       id="clipPath3229">
      <path
         d="M 0,0 H 377 V 209 H 0 Z"
         id="path3227" />
    </clipPath>
  </defs>
  <sodipodi:namedview
     id="namedview3081"
     pagecolor="#ffffff"
     bordercolor="#000000"
     borderopacity="0.25"
     inkscape:showpageshadow="2"
     inkscape:pageopacity="0.0"
     inkscape:pagecheckerboard="0"
     inkscape:deskcolor="#d1d1d1"
     showgrid="false"
     inkscape:zoom="2.9077745"
     inkscape:cx="251.0511"
     inkscape:cy="138.93787"
     inkscape:window-width="1866"
     inkscape:window-height="1011"
     inkscape:window-x="0"
     inkscape:window-y="0"
     inkscape:window-maximized="1"
     inkscape:current-layer="g3087">
    <inkscape:page
       x="0"
       y="0"
       id="page3085"
       width="501.7583"
       height="277.58264" />
  </sodipodi:namedview>
  <g
     id="g3087"
     inkscape:groupmode="layer"
     inkscape:label="Page 1"
     transform="matrix(1.3333333,0,0,1.3333333,0,4.2728994e-6)">
    <g
       id="g3089">
      <path
         d="M 49.535,91.93 17.699,129.848 V 91.93 H 0 v 88.207 h 17.699 v -40.946 h 0.25 l 31.707,40.946 H 72.793 L 35,133.508 71.27,91.93 Z"
         style="fill:#ffffff;fill-opacity:1;fill-rule:nonzero;stroke:none"
         id="path3091" />
    </g>
    <g
       id="g3093">
      <g
         id="g3095">
        <g
           id="g3097">
          <g
             id="g3099"
             clip-path="url(#clipPath3103)">
            <g
               id="g3105">
              <path
                 d="m 99.449,169.266 c 5.18,0 9.223,-2.278 11.879,-5.809 2.774,-3.664 3.535,-8.34 3.535,-13.395 h -7.328 c -7.582,0 -18.828,1.262 -18.828,11.239 0,5.566 4.672,7.965 10.742,7.965 M 79.613,118.473 c 6.563,-3.035 15.414,-4.934 22.617,-4.934 19.836,0 28.047,8.219 28.047,27.422 v 8.34 c 0,6.57 0.129,11.496 0.258,16.297 0.121,4.933 0.371,9.48 0.754,14.535 h -14.902 c -0.633,-3.41 -0.633,-7.707 -0.762,-9.731 h -0.258 c -3.914,7.211 -12.383,11.246 -20.09,11.246 -11.5,0 -22.738,-6.945 -22.738,-19.336 0,-9.722 4.668,-15.417 11.109,-18.57 6.45,-3.16 14.79,-3.785 21.864,-3.785 h 9.351 c 0,-10.492 -4.675,-14.027 -14.66,-14.027 -7.203,0 -14.398,2.781 -20.086,7.066 z"
                 style="fill:#ffffff;fill-opacity:1;fill-rule:nonzero;stroke:none"
                 id="path3107" />
            </g>
          </g>
        </g>
      </g>
      <g
         id="g3109">
        <g
           id="g3111">
          <g
             id="g3113"
             clip-path="url(#clipPath3117)">
            <g
               id="g3119">
              <path
                 d="m 180.574,128.707 c -5.183,-1.769 -8.969,-2.781 -15.16,-2.781 -4.547,0 -9.984,1.644 -9.984,7.203 0,10.367 29.449,3.793 29.449,27.301 0,15.16 -13.527,21.222 -27.301,21.222 -6.441,0 -13.008,-1.132 -19.199,-2.777 l 1.008,-13.898 c 5.312,2.656 10.871,4.285 16.683,4.285 4.293,0 11.118,-1.629 11.118,-7.95 0,-12.761 -29.438,-4.05 -29.438,-27.542 0,-14.036 12.258,-20.227 25.523,-20.227 7.957,0 13.145,1.266 18.454,2.398 z"
                 style="fill:#ffffff;fill-opacity:1;fill-rule:nonzero;stroke:none"
                 id="path3121" />
            </g>
          </g>
        </g>
      </g>
      <g
         id="g3123">
        <g
           id="g3125">
          <g
             id="g3127"
             clip-path="url(#clipPath3131)">
            <g
               id="g3133">
              <path
                 d="m 234.652,141.215 c -0.5,-8.215 -4.293,-15.281 -13.765,-15.281 -9.481,0 -14.285,6.562 -15.047,15.281 z m 11.379,35.258 c -6.191,3.414 -13.273,5.187 -22.375,5.187 -21.472,0 -33.984,-12.39 -33.984,-33.742 0,-18.824 9.984,-34.375 30.195,-34.375 24.137,0 30.953,16.555 30.953,39.301 h -44.98 c 0.762,10.484 8.094,16.426 18.578,16.426 8.219,0 15.285,-3.032 21.605,-6.571 v 13.774 z"
                 style="fill:#ffffff;fill-opacity:1;fill-rule:nonzero;stroke:none"
                 id="path3135" />
            </g>
          </g>
        </g>
      </g>
      <g
         id="g3137">
        <g
           id="g3139">
          <g
             id="g3141"
             clip-path="url(#clipPath3145)">
            <g
               id="g3147">
              <path
                 d="m 284.699,162.566 h 0.25 l 15.664,-47.511 h 17.188 l -24.391,64.574 c -5.43,14.41 -9.344,28.559 -27.047,28.559 -4.035,0 -8.074,-0.626 -11.996,-1.766 l 1.137,-12.512 c 2.148,0.754 4.547,1.133 8.719,1.133 6.824,0 10.996,-4.676 10.996,-11.621 l -24.895,-68.367 h 18.703 z"
                 style="fill:#ffffff;fill-opacity:1;fill-rule:nonzero;stroke:none"
                 id="path3149" />
            </g>
          </g>
        </g>
      </g>
      <g
         id="g3151">
        <g
           id="g3153">
          <g
             id="g3155"
             clip-path="url(#clipPath3159)">
            <g
               id="g3161">
              <path
                 d="m 341.938,169.266 c 5.187,0 9.214,-2.278 11.878,-5.809 2.782,-3.664 3.543,-8.34 3.543,-13.395 h -7.332 c -7.586,0 -18.832,1.262 -18.832,11.239 0,5.566 4.684,7.965 10.743,7.965 m -19.836,-50.793 c 6.562,-3.035 15.421,-4.934 22.625,-4.934 19.828,0 28.039,8.219 28.039,27.422 v 8.34 c 0,6.57 0.129,11.496 0.257,16.297 0.129,4.933 0.372,9.48 0.762,14.535 h -14.91 c -0.633,-3.41 -0.633,-7.707 -0.762,-9.731 h -0.25 c -3.922,7.211 -12.383,11.246 -20.09,11.246 -11.507,0 -22.746,-6.945 -22.746,-19.336 0,-9.722 4.676,-15.417 11.11,-18.57 6.449,-3.16 14.789,-3.785 21.871,-3.785 h 9.351 c 0,-10.492 -4.683,-14.027 -14.668,-14.027 -7.203,0 -14.406,2.781 -20.086,7.066 z"
                 style="fill:#ffffff;fill-opacity:1;fill-rule:nonzero;stroke:none"
                 id="path3163" />
            </g>
          </g>
        </g>
      </g>
      <g
         id="g3165">
        <g
           id="g3167">
          <g
             id="g3169"
             clip-path="url(#clipPath3173)">
            <g
               id="g3175">
              <path
                 d="m 262.746,46.469 c -2.445,0.746 -10.484,21.605 -14.711,33.14 7.582,5.239 15.496,9.946 22.797,13.137 14.652,6.41 19.223,3.809 28.32,-0.305 6.52,-2.941 16.746,-9.824 25.703,-16.363 C 313.973,68.934 300.281,60.281 292.445,56.582 277.754,49.637 266.289,45.395 262.746,46.469"
                 style="fill:#0e6db5;fill-opacity:1;fill-rule:nonzero;stroke:none"
                 id="path3177" />
            </g>
          </g>
        </g>
      </g>
      <g
         id="g3179">
        <g
           id="g3181">
          <g
             id="g3183"
             clip-path="url(#clipPath3187)">
            <g
               id="g3189">
              <path
                 d="m 268.773,35.543 c 0,0 13.368,-7.859 34.809,-15.52 11.492,-4.097 22.922,-6.121 31.055,-7.113 -4.586,-1.293 -8.879,-2.496 -12.117,-3.387 -10.235,-2.828 -24.985,-6.308 -37.329,-8.211 -0.578,2.954 -2,7.782 -5.597,14.727 -4.864,9.375 -10.821,19.504 -10.821,19.504"
                 style="fill:#0e6db5;fill-opacity:1;fill-rule:nonzero;stroke:none"
                 id="path3191" />
            </g>
          </g>
        </g>
      </g>
      <g
         id="g3193">
        <g
           id="g3195">
          <g
             id="g3197"
             clip-path="url(#clipPath3201)">
            <g
               id="g3203">
              <path
                 d="m 275.332,0.141 c -11.223,-0.77 -12.945,1.773 -15.117,3.297 -5.762,3.152 -29.645,17.425 -41.219,27.507 -10.965,9.555 -9.137,15.528 -4.027,21.535 4.133,4.86 11.383,10.629 22.668,19.458 0.519,0.402 1.035,0.804 1.562,1.218 4.531,-10.062 14.406,-31.879 19.258,-42.097 5.688,-12 13.418,-25.153 16.875,-30.918"
                 style="fill:#0e6db5;fill-opacity:1;fill-rule:nonzero;stroke:none"
                 id="path3205" />
            </g>
          </g>
        </g>
      </g>
      <g
         id="g3207">
        <g
           id="g3209">
          <g
             id="g3211"
             clip-path="url(#clipPath3215)">
            <g
               id="g3217">
              <path
                 d="m 373.445,25.262 c -3.914,-2.051 -7.41,-3.153 -10.449,-4.145 -1.539,-0.492 -5.566,-1.687 -10.625,-3.144 -8.953,1.172 -23.797,3.414 -38.18,6.855 -14.894,3.57 -39.918,15.723 -39.918,15.723 0,0 31.633,10.176 61.27,27.406 0.992,-0.789 1.91,-1.519 2.742,-2.207 9.192,-7.523 32.539,-26.91 37.52,-35.387 1.226,-2.093 0.191,-3.769 -2.36,-5.101"
                 style="fill:#0e6db5;fill-opacity:1;fill-rule:nonzero;stroke:none"
                 id="path3219" />
            </g>
          </g>
        </g>
      </g>
      <g
         id="g3221">
        <g
           id="g3223">
          <g
             id="g3225"
             clip-path="url(#clipPath3229)">
            <g
               id="g3231">
              <path
                 d="m 314.207,24.828 c 14.367,-3.441 29.219,-5.683 38.164,-6.863 -5.305,-1.535 -11.762,-3.371 -17.734,-5.055 -8.125,0.988 -19.563,3.016 -31.055,7.121 -21.441,7.653 -34.809,15.512 -34.809,15.512 0,0 5.965,-10.137 10.825,-19.496 3.593,-6.945 5.007,-11.781 5.593,-14.735 -1.468,-0.23 -2.921,-0.433 -4.316,-0.609 -2.063, -0.265 -3.906,-0.449 -5.535,-0.562 -3.465,5.761 -11.195,18.914 -16.875,30.921 -4.844,10.223 -14.727,32.04 -19.266,42.09 2.856,2.2 5.824,4.371 8.848,6.457 4.226,-11.535 12.262,-32.394 14.711,-33.14 3.543,-1.074 15.004,3.168 29.699,10.113 7.836,3.691 21.535,12.352 32.402,19.488 3.969,-2.894 7.668,-5.726 10.7,-8.121 -29.637,-17.222 -61.262,-27.406 -61.262,-27.406 0,0 25,-12.145 39.91,-15.715"
                 style="fill:#ffffff;fill-opacity:1;fill-rule:nonzero;stroke:none"
                 id="path3233" />
            </g>
          </g>
        </g>
      </g>
    </g>
  </g>
</svg>
