<?xml version="1.0" encoding="UTF-8"?>
<svg version="1.1" xmlns="http://www.w3.org/2000/svg" width="550" height="1100">
<path d="M0 0 C3.8741414 0.01601988 7.74722875 0.0000957 11.62133789 -0.01904297 C40.7607398 -0.04438359 68.35971638 3.88418039 96.20922852 12.39111328 C94.91129909 16.09118076 93.39026406 18.66725226 90.77172852 21.57861328 C90.17489258 22.25279297 89.57805664 22.92697266 88.96313477 23.62158203 C85.25931515 27.35839782 85.25931515 27.35839782 82.28149414 27.45117188 C77.51171443 26.820004 72.93275568 25.89566348 68.27929688 24.67700195 C31.0403968 15.10108265 -13.03987405 14.89046392 -50.79077148 21.39111328 C-52.02956055 21.6004248 -53.26834961 21.80973633 -54.54467773 22.02539062 C-92.61325165 28.54853901 -128.32485519 41.4091499 -159.79077148 64.39111328 C-160.35973145 64.80603027 -160.92869141 65.22094727 -161.51489258 65.6484375 C-168.17687719 70.55300075 -174.49953276 75.75917093 -180.58374023 81.37158203 C-182.50559301 83.13016235 -184.46724638 84.79931103 -186.47827148 86.45361328 C-189.60734897 89.10969068 -192.19844223 92.0743459 -194.84936523 95.19970703 C-197.02057913 97.65051386 -199.32187842 99.91768357 -201.66577148 102.20361328 C-234.29316229 134.63326233 -242.80507009 179.8301549 -243.04077148 224.32861328 C-242.76275659 276.84639918 -227.74739704 331.0006466 -191.02124023 370.00439453 C-189.19820928 371.95513343 -187.51725353 373.93255983 -185.85327148 376.01611328 C-161.70750059 404.33190589 -118.7822758 420.55257626 -83.79077148 428.39111328 C-83.10354004 428.55160156 -82.41630859 428.71208984 -81.70825195 428.87744141 C-17.17382216 443.74820126 58.59184629 437.33976536 115.88500977 402.62548828 C127.32553307 395.44522779 138.19983141 387.46917408 148.20922852 378.39111328 C143.53307798 372.7756283 138.54541946 367.5813557 133.37329102 362.42236328 C132.53510834 361.58322388 131.69692566 360.74408447 130.83334351 359.8795166 C129.06794009 358.11343566 127.30128512 356.34860501 125.53344727 354.58496094 C122.84610743 351.90296856 120.16413509 349.21569258 117.48266602 346.52783203 C115.75902814 344.80485514 114.03507999 343.08218858 112.31079102 341.35986328 C111.12134384 340.16737976 111.12134384 340.16737976 109.90786743 338.95080566 C105.72627405 334.78653665 101.47338479 330.77713092 96.98104858 326.94885254 C95.14293821 325.33283253 93.42224772 323.63849104 91.70922852 321.89111328 C89.31869685 319.45721596 86.85876589 317.17755769 84.27172852 314.95361328 C81.46346504 312.53493549 78.80952259 310.03211646 76.20922852 307.39111328 C73.68967463 304.83242069 71.12804069 302.40940718 68.39672852 300.07861328 C63.04554174 295.47977158 58.16015181 290.4112265 53.20922852 285.39111328 C52.48219727 284.70404297 51.75516602 284.01697266 51.00610352 283.30908203 C47.05483563 279.09153305 46.82335888 275.45521476 46.96313477 269.85595703 C47.46139543 264.86544149 49.53386993 261.79683771 53.20922852 258.57861328 C58.06947559 255.03468312 62.37605795 254.74298322 68.20922852 255.39111328 C74.51299029 257.84257619 78.6683376 262.63676972 83.26782227 267.44189453 C86.07167822 270.32626745 89.08132401 272.934056 92.12304688 275.56323242 C95.59153816 278.60227212 98.92615762 281.78060797 102.27172852 284.95361328 C108.65452122 290.99233238 108.65452122 290.99233238 115.08422852 296.98095703 C122.41909456 303.76035597 129.5840485 310.66942213 136.58056641 317.79931641 C139.71140413 320.97296412 142.88260248 324.01591452 146.26782227 326.91845703 C150.08555216 330.20966742 153.47240135 333.76701681 156.83422852 337.51611328 C160.73338771 341.85793064 164.66100238 345.72907448 169.20922852 349.39111328 C169.86922852 350.05111328 170.52922852 350.71111328 171.20922852 351.39111328 C206.07254853 299.7417503 206.87724459 241.03257038 195.56451416 181.61468506 C191.37818944 160.0965265 185.3942016 139.28031875 178.20922852 118.57861328 C177.96991608 117.88176422 177.73060364 117.18491516 177.48403931 116.46694946 C169.38549878 92.13057931 169.38549878 92.13057931 152.20922852 74.39111328 C149.23492444 73.34692767 146.21333403 72.61221569 143.14672852 71.89111328 C141.46128712 71.47273204 139.77639165 71.05214561 138.09204102 70.62939453 C137.26736328 70.4239502 136.44268555 70.21850586 135.59301758 70.00683594 C130.40604633 68.66706315 125.30847724 67.02983056 120.20922852 65.39111328 C120.61188879 60.43107085 123.16145043 57.71887833 126.45922852 54.26611328 C126.9374707 53.74146484 127.41571289 53.21681641 127.90844727 52.67626953 C130.77409044 49.60871112 133.4194485 47.19963282 137.20922852 45.39111328 C140.28027344 45.35424805 140.28027344 45.35424805 143.68969727 45.83251953 C144.93686523 46.00460938 146.1840332 46.17669922 147.46899414 46.35400391 C148.76514648 46.551875 150.06129883 46.74974609 151.39672852 46.95361328 C152.67354492 47.12441406 153.95036133 47.29521484 155.26586914 47.47119141 C167.09083174 49.17957932 176.90455508 51.58253758 184.48266602 61.30908203 C208.21011024 98.22334006 218.09819992 146.49626767 224.20922852 189.39111328 C224.34055176 190.25397949 224.471875 191.1168457 224.60717773 192.00585938 C228.29095592 216.70732291 228.56292686 244.97224069 223.20922852 269.39111328 C222.97574707 270.52226563 222.97574707 270.52226563 222.73754883 271.67626953 C216.10267991 302.98331567 200.59066765 329.64383533 181.41088867 354.7722168 C180.29433549 356.27645575 179.248374 357.83239506 178.20922852 359.39111328 C178.93062012 360.10806366 179.65201172 360.82501404 180.39526367 361.56369019 C187.22639086 368.3540972 194.05209622 375.14991352 200.87266541 381.95092583 C204.37850831 385.44637605 207.88616803 388.93995992 211.39819336 392.42919922 C214.79375472 395.80287009 218.18426371 399.18154598 221.57147217 402.56360245 C222.85814393 403.84660734 224.14656089 405.12786474 225.43682861 406.40725327 C246.30830375 427.10987594 246.30830375 427.10987594 246.52172852 436.14111328 C246.46491578 441.41838533 245.96244157 444.4403627 242.20922852 448.39111328 C238.19363452 451.84639184 234.76019963 452.93785555 229.65063477 453.60595703 C220.63373484 452.81246984 215.2372659 445.95352387 209.27172852 439.87939453 C208.22313831 438.825871 207.17372559 437.77316555 206.12353516 436.72123718 C203.92885964 434.51894365 201.74078127 432.31038101 199.55786133 430.09643555 C196.77930995 427.27843397 193.99021259 424.47119151 191.19673157 421.66799641 C188.50989121 418.97110712 185.82795487 416.26936365 183.14672852 413.56689453 C182.64448761 413.06125788 182.1422467 412.55562122 181.62478638 412.03466225 C176.46955279 406.8374046 171.38808765 401.61165957 166.63633728 396.03813171 C164.46359322 393.53057965 162.13395904 391.22098448 159.77172852 388.89111328 C158.47428711 387.60720703 158.47428711 387.60720703 157.15063477 386.29736328 C156.5099707 385.66830078 155.86930664 385.03923828 155.20922852 384.39111328 C151.68764784 387.39580164 148.17667441 390.41101089 144.70141602 393.46923828 C120.85227262 414.42479908 94.272236 432.57619334 64.20922852 443.39111328 C63.21793945 443.74802246 62.22665039 444.10493164 61.20532227 444.47265625 C49.56545152 448.60869495 37.87980578 452.48899052 25.83422852 455.26611328 C25.06570557 455.44480957 24.29718262 455.62350586 23.50537109 455.80761719 C20.74896913 456.40144284 17.98662804 456.9038209 15.20922852 457.39111328 C14.53272247 457.51532654 13.85621643 457.63953979 13.15921021 457.76751709 C-1.51143409 460.40147196 -15.95389681 460.8577012 -30.83691406 460.78222656 C-34.58818159 460.76617784 -38.33836495 460.78214934 -42.08959961 460.80126953 C-57.5396172 460.8150292 -72.52829018 459.78985259 -87.79077148 457.39111328 C-88.48490143 457.28416138 -89.17903137 457.17720947 -89.89419556 457.0670166 C-93.62655475 456.48266622 -97.33515089 455.81259329 -101.04077148 455.07861328 C-102.11665527 454.86696533 -103.19253906 454.65531738 -104.30102539 454.43725586 C-141.18477954 446.92329112 -177.68025201 430.9090531 -204.79077148 404.39111328 C-205.7844612 403.45764718 -206.77926617 402.52536695 -207.77514648 401.59423828 C-234.94274768 375.81318834 -251.37173207 339.61048337 -260.16577148 303.70361328 C-260.39208252 302.79305176 -260.61839355 301.88249023 -260.8515625 300.94433594 C-265.07031066 282.67840794 -266.34439854 264.39726869 -266.22827148 245.70361328 C-266.2252301 244.65795197 -266.22218872 243.61229065 -266.21905518 242.53494263 C-266.14889703 226.17577772 -265.34143614 210.4156793 -261.79077148 194.39111328 C-261.58709961 193.4267334 -261.38342773 192.46235352 -261.17358398 191.46875 C-255.03776121 163.10477297 -243.6239956 138.39428602 -224.79077148 116.39111328 C-224.12948242 115.60994141 -223.46819336 114.82876953 -222.78686523 114.02392578 C-221.14794802 112.12041229 -219.47950291 110.25057359 -217.79077148 108.39111328 C-217.00831055 107.52873047 -216.22584961 106.66634766 -215.41967773 105.77783203 C-212.5546455 102.63835549 -209.67678323 99.51129315 -206.79077148 96.39111328 C-206.21810547 95.77187988 -205.64543945 95.15264648 -205.05541992 94.51464844 C-186.74024424 74.73683691 -186.74024424 74.73683691 -176.79077148 66.39111328 C-176.24952637 65.93607422 -175.70828125 65.48103516 -175.15063477 65.01220703 C-137.76797775 33.72161267 -95.17260651 11.30871209 -46.79077148 3.39111328 C-45.76652573 3.20639465 -45.76652573 3.20639465 -44.72158813 3.01794434 C-29.80753172 0.34717644 -15.12950421 -0.07413162 0 0 Z " fill="#212121" transform="translate(265.790771484375,-0.39111328125)"/>
<path d="M0 0 C1.24716797 0.17208984 2.49433594 0.34417969 3.77929688 0.52148438 C5.72352539 0.81829102 5.72352539 0.81829102 7.70703125 1.12109375 C8.98384766 1.29189453 10.26066406 1.46269531 11.57617188 1.63867188 C23.40113447 3.34705979 33.21485781 5.75001805 40.79296875 15.4765625 C64.52041298 52.39082053 74.40850266 100.66374814 80.51953125 143.55859375 C80.71651611 144.85289307 80.71651611 144.85289307 80.91748047 146.17333984 C84.60125865 170.87480338 84.87322959 199.13972116 79.51953125 223.55859375 C79.36387695 224.31269531 79.20822266 225.06679688 79.04785156 225.84375 C72.41298265 257.15079614 56.90097038 283.8113158 37.72119141 308.93969727 C36.60463823 310.44393622 35.55867673 311.99987553 34.51953125 313.55859375 C35.24092285 314.27554413 35.96231445 314.99249451 36.70556641 315.73117065 C43.53669359 322.52157767 50.36239896 329.31739399 57.18296814 336.1184063 C60.68881104 339.61385652 64.19647076 343.10744039 67.70849609 346.59667969 C71.10405745 349.97035056 74.49456645 353.34902645 77.8817749 356.73108292 C79.16844667 358.01408781 80.45686363 359.29534521 81.74713135 360.57473373 C102.61860649 381.27735641 102.61860649 381.27735641 102.83203125 390.30859375 C102.77521851 395.58586579 102.2727443 398.60784317 98.51953125 402.55859375 C94.50393725 406.01387231 91.07050237 407.10533602 85.9609375 407.7734375 C76.94403758 406.97995031 71.54756863 400.12100434 65.58203125 394.046875 C64.53344104 392.99335147 63.48402833 391.94064602 62.43383789 390.88871765 C60.23916238 388.68642411 58.051084 386.47786148 55.86816406 384.26391602 C53.08961268 381.44591444 50.30051532 378.63867198 47.5070343 375.83547688 C44.82019395 373.13858759 42.13825761 370.43684411 39.45703125 367.734375 C38.95479034 367.22873835 38.45254944 366.72310169 37.93508911 366.20214272 C32.78124795 361.00628885 27.70091879 355.78217184 22.95083618 350.20980835 C20.71850514 347.63449576 18.32022965 345.26533496 15.89453125 342.87109375 C14.99476563 341.98035156 14.095 341.08960938 13.16796875 340.171875 C12.29398437 339.30949219 11.42 338.44710938 10.51953125 337.55859375 C7.2935962 334.33699209 4.07375755 331.1093619 0.85620117 327.87939453 C-3.58371197 323.42346509 -8.02584075 318.96975608 -12.469594 314.51765633 C-15.14716138 311.8348749 -17.82378514 309.1511658 -20.49829102 306.46533203 C-23.10188339 303.85079017 -25.70798694 301.23877482 -28.3157711 298.62841415 C-29.30089028 297.64146589 -30.28513819 296.65364708 -31.26844215 295.66489029 C-36.28992198 290.61666256 -41.33165695 285.66753561 -46.76371765 281.06002808 C-48.58644752 279.46590695 -50.28566259 277.78740829 -51.98046875 276.05859375 C-54.37100042 273.62469643 -56.83093137 271.34503816 -59.41796875 269.12109375 C-62.22623222 266.70241596 -64.88017468 264.19959692 -67.48046875 261.55859375 C-70.00002264 258.99990116 -72.56165657 256.57688764 -75.29296875 254.24609375 C-80.64415552 249.64725205 -85.52954546 244.57870696 -90.48046875 239.55859375 C-91.2075 238.87152344 -91.93453125 238.18445313 -92.68359375 237.4765625 C-96.63486163 233.25901352 -96.86633839 229.62269523 -96.7265625 224.0234375 C-96.22830184 219.03292196 -94.15582733 215.96431818 -90.48046875 212.74609375 C-85.62022168 209.20216359 -81.31363931 208.91046369 -75.48046875 209.55859375 C-69.17670698 212.01005666 -65.02135967 216.80425019 -60.421875 221.609375 C-57.61801905 224.49374792 -54.60837326 227.10153647 -51.56665039 229.73071289 C-48.09815911 232.76975259 -44.76353964 235.94808843 -41.41796875 239.12109375 C-35.03517605 245.15981285 -35.03517605 245.15981285 -28.60546875 251.1484375 C-21.2706027 257.92783644 -14.10564877 264.8369026 -7.10913086 271.96679688 C-3.97829314 275.14044459 -0.80709479 278.18339499 2.578125 281.0859375 C6.3958549 284.37714789 9.78270409 287.93449728 13.14453125 291.68359375 C17.04369044 296.02541111 20.97130512 299.89655495 25.51953125 303.55859375 C26.17953125 304.21859375 26.83953125 304.87859375 27.51953125 305.55859375 C62.38285126 253.90923077 63.18754733 195.20005085 51.87481689 135.78216553 C47.68849217 114.26400697 41.70450433 93.44779922 34.51953125 72.74609375 C34.28021881 72.04924469 34.04090637 71.35239563 33.79434204 70.63442993 C25.69580151 46.29805978 25.69580151 46.29805978 8.51953125 28.55859375 C5.54522717 27.51440814 2.52363677 26.77969616 -0.54296875 26.05859375 C-2.22841014 25.64021251 -3.91330561 25.21962608 -5.59765625 24.796875 C-6.42233398 24.59143066 -7.24701172 24.38598633 -8.09667969 24.17431641 C-13.28365093 22.83454362 -18.38122003 21.19731102 -23.48046875 19.55859375 C-23.07780848 14.59855132 -20.52824684 11.8863588 -17.23046875 8.43359375 C-16.51310547 7.64662109 -16.51310547 7.64662109 -15.78125 6.84375 C-10.7366711 1.44372652 -7.48281324 -1.04968358 0 0 Z " fill="#FE8F9F" transform="translate(409.48046875,45.44140625)"/>
<path d="M0 0 C1.87075195 0.25813477 1.87075195 0.25813477 3.77929688 0.52148438 C5.72352539 0.81829102 5.72352539 0.81829102 7.70703125 1.12109375 C8.98384766 1.29189453 10.26066406 1.46269531 11.57617188 1.63867188 C23.40113447 3.34705979 33.21485781 5.75001805 40.79296875 15.4765625 C64.52041298 52.39082053 74.40850266 100.66374814 80.51953125 143.55859375 C80.65085449 144.42145996 80.78217773 145.28432617 80.91748047 146.17333984 C84.60125865 170.87480338 84.87322959 199.13972116 79.51953125 223.55859375 C79.36387695 224.31269531 79.20822266 225.06679688 79.04785156 225.84375 C72.55489794 256.48115991 56.90194381 290.17618119 34.51953125 312.55859375 C32.06103913 312.32067516 30.7075051 311.69471275 28.70703125 310.24609375 C27.51953125 308.55859375 27.51953125 308.55859375 27.69140625 306.875 C28.86953121 303.57958444 30.72995622 300.75613842 32.58203125 297.80859375 C44.79254944 277.83219578 52.09844741 257.5429297 56.51953125 234.55859375 C56.65375488 233.86958984 56.78797852 233.18058594 56.92626953 232.47070312 C66.47654615 180.30013436 51.52895298 121.75449433 34.51953125 72.74609375 C34.28021881 72.04924469 34.04090637 71.35239563 33.79434204 70.63442993 C25.69580151 46.29805978 25.69580151 46.29805978 8.51953125 28.55859375 C5.54522717 27.51440814 2.52363677 26.77969616 -0.54296875 26.05859375 C-2.22841014 25.64021251 -3.91330561 25.21962608 -5.59765625 24.796875 C-6.42233398 24.59143066 -7.24701172 24.38598633 -8.09667969 24.17431641 C-13.28365093 22.83454362 -18.38122003 21.19731102 -23.48046875 19.55859375 C-23.07780848 14.59855132 -20.52824684 11.8863588 -17.23046875 8.43359375 C-16.51310547 7.64662109 -16.51310547 7.64662109 -15.78125 6.84375 C-10.7366711 1.44372652 -7.48281324 -1.04968358 0 0 Z " fill="#212121" transform="translate(409.48046875,45.44140625)"/>
</svg>
