<?xml version="1.0" encoding="UTF-8"?>
<svg xmlns="http://www.w3.org/2000/svg" xmlns:xlink="http://www.w3.org/1999/xlink" width="144px" height="144px" viewBox="0 0 144 140" version="1.1">
<g id="surface1">
<path style=" stroke:none;fill-rule:nonzero;fill:rgb(19.607843%,42.352942%,89.803922%);fill-opacity:1;" d="M 71.5 2.007812 C 70.261719 2.070312 69.050781 2.375 67.933594 2.910156 L 19.265625 26.195312 C 16.714844 27.414062 14.863281 29.722656 14.230469 32.464844 L 2.226562 84.761719 C 1.664062 87.199219 2.121094 89.753906 3.488281 91.847656 C 3.652344 92.101562 3.828125 92.347656 4.019531 92.585938 L 37.703125 134.519531 C 39.46875 136.71875 42.148438 138 44.980469 138 L 98.996094 137.988281 C 101.828125 137.988281 104.503906 136.710938 106.273438 134.515625 L 139.945312 92.574219 C 141.710938 90.375 142.375 87.496094 141.746094 84.75 L 129.71875 32.449219 C 129.089844 29.707031 127.234375 27.402344 124.683594 26.179688 L 76.011719 2.910156 C 74.609375 2.238281 73.054688 1.925781 71.5 2.007812 Z M 71.5 2.007812 "/>
<path style="fill-rule:nonzero;fill:rgb(100%,100%,100%);fill-opacity:1;stroke-width:0.25;stroke-linecap:butt;stroke-linejoin:miter;stroke:rgb(100%,100%,100%);stroke-opacity:1;stroke-miterlimit:4;" d="M 367.728031 274.058757 C 359.647627 274.058757 353.116621 281.345141 353.116621 290.316012 C 353.116621 290.453121 353.136234 290.570643 353.136234 290.707753 C 353.136234 291.941737 353.077396 293.410766 353.116621 294.468467 C 353.293135 299.639449 354.430668 303.596034 355.11711 308.375275 C 356.333093 318.58013 357.372562 327.041737 356.725345 334.896146 C 356.117354 337.873378 353.940352 340.576391 351.979089 342.456748 L 351.645674 348.646257 C 342.859216 349.370978 334.033532 350.702898 325.207849 352.720364 C 287.218184 361.338668 254.523929 380.906134 229.635502 407.309483 C 228.027266 406.212608 225.203047 404.175554 224.359704 403.568355 C 221.751224 403.920922 219.103519 404.723992 215.671309 402.706525 C 209.120691 398.319025 203.158451 392.227451 195.960616 384.901893 C 192.646081 381.395811 190.25334 378.066012 186.330814 374.677451 C 185.428633 373.913556 184.075362 372.875443 183.075118 372.09196 C 180.015547 369.643579 176.387211 368.37042 172.896163 368.252898 C 168.385258 368.096201 164.070479 369.859036 161.226648 373.404293 C 156.205814 379.711324 157.81405 389.367742 164.835371 394.969639 C 164.894209 395.0284 164.97266 395.067574 165.05111 395.126335 C 166.012129 395.909818 167.188887 396.908757 168.071455 397.55513 C 172.248946 400.630297 176.053796 402.216849 180.211674 404.645643 C 188.958907 410.05167 196.195967 414.537105 201.96208 419.943132 C 204.19792 422.332753 204.590173 426.543969 204.884362 428.365565 L 209.571781 432.557195 C 184.487227 470.321034 172.87655 516.977396 179.74097 564.495588 L 173.602217 566.278009 C 171.993982 568.354237 169.718916 571.644862 167.326176 572.624215 C 159.794926 574.994248 151.341882 575.856079 141.104089 576.933367 C 136.298995 577.325108 132.16073 577.090063 127.081058 578.049829 C 125.963138 578.265286 124.394128 578.676614 123.178145 578.97042 C 123.119307 578.97042 123.080082 578.990007 123.040857 578.990007 C 122.982019 579.009594 122.883955 579.048768 122.825118 579.068355 C 114.215173 581.144583 108.664799 589.057753 110.449548 596.872987 C 112.234297 604.688222 120.648116 609.428288 129.336511 607.567518 C 129.395349 607.547931 129.473799 607.547931 129.55225 607.528344 C 129.650313 607.508757 129.728763 607.449996 129.826827 607.430409 C 131.04281 607.175777 132.552982 606.881972 133.612064 606.588166 C 138.613285 605.256246 142.241621 603.277954 146.732914 601.554293 C 156.401941 598.087384 164.423506 595.188501 172.229333 594.052451 C 175.48503 593.79782 178.936853 596.069918 180.643151 597.029684 L 187.017256 595.932809 C 201.687504 641.413947 232.420495 678.178847 271.351566 701.252396 L 268.703861 707.618188 C 269.66488 710.105744 270.723962 713.45513 269.998295 715.883925 C 267.154463 723.248657 262.310144 731.024717 256.759769 739.682195 C 254.092452 743.677954 251.346683 746.792295 248.914717 751.375666 C 248.345951 752.472541 247.600671 754.157027 247.051517 755.312663 C 243.285892 763.343355 246.051273 772.608032 253.268721 776.094527 C 260.525394 779.581023 269.547204 775.898657 273.450118 767.848378 C 273.450118 767.828791 273.46973 767.828791 273.489343 767.809204 C 273.489343 767.809204 273.489343 767.789617 273.489343 767.77003 C 274.038496 766.63398 274.823002 765.125777 275.293705 764.068076 C 277.372644 759.308422 278.059086 755.253902 279.51042 750.650945 C 283.393721 740.935766 285.511885 730.730911 290.846521 724.384706 C 292.297855 722.641458 294.670983 721.975498 297.142175 721.309538 L 300.456709 715.3159 C 334.38656 728.341291 372.376224 731.827786 410.326664 723.209483 C 418.975834 721.250777 427.350427 718.70446 435.43083 715.64888 C 436.352624 717.31378 438.078536 720.486882 438.549239 721.270364 C 441.059655 722.093021 443.785811 722.523936 446.021651 725.814561 C 450.003015 732.611268 452.72917 740.681134 456.043705 750.396313 C 457.495039 754.999271 458.220707 759.053791 460.299646 763.813445 C 460.770349 764.890733 461.554854 766.418523 462.104008 767.554572 C 466.006921 775.644025 475.048343 779.345978 482.324629 775.839896 C 489.542077 772.3534 492.307458 763.108311 488.541833 755.058032 C 487.992679 753.902396 487.227787 752.217909 486.639408 751.121034 C 484.227054 746.537663 481.481286 743.462496 478.794356 739.466737 C 473.263594 730.809259 468.674239 723.601224 465.830407 716.256079 C 464.634037 712.45619 466.026534 710.086157 466.948327 707.618188 C 466.399174 706.991402 465.222416 703.406972 464.516361 701.722485 C 504.977217 677.82628 534.808028 639.690286 548.831058 595.65859 C 550.713871 595.952396 554.008793 596.540007 555.067875 596.755465 C 557.284102 595.306023 559.304203 593.406079 563.265954 593.719472 C 571.071781 594.835934 579.093347 597.754405 588.762373 601.221313 C 593.253666 602.944974 596.882002 604.942853 601.883223 606.274773 C 602.942305 606.568579 604.452478 606.82321 605.668461 607.097429 C 605.766524 607.117016 605.844974 607.15619 605.943038 607.175777 C 606.021488 607.195364 606.099939 607.195364 606.178389 607.214951 C 614.847172 609.075722 623.26099 604.335655 625.045739 596.52042 C 626.830489 588.724773 621.299727 580.792016 612.67017 578.715788 C 611.414961 578.421983 609.630212 577.951893 608.414229 577.716849 C 603.334558 576.757083 599.196293 576.992128 594.391198 576.600387 C 584.173018 575.523099 575.700362 574.641681 568.169112 572.271648 C 565.109541 571.096425 562.912927 567.433646 561.853845 565.925443 L 555.950443 564.221369 C 559.010013 542.068411 558.186283 518.994862 552.890873 495.9409 C 547.536625 472.651893 538.083337 451.360766 525.492028 432.596369 C 527.002201 431.205688 529.865645 428.678958 530.669763 427.93465 C 530.905114 425.309985 530.708988 422.567797 533.415531 419.649326 C 539.181644 414.2433 546.418705 409.777451 555.165938 404.371425 C 559.323816 401.923043 563.167891 400.356079 567.325769 397.280911 C 568.267175 396.575777 569.561608 395.478902 570.54224 394.675833 C 577.563562 389.093523 579.171797 379.437105 574.131351 373.130074 C 569.110518 366.803456 559.343428 366.215844 552.322107 371.817742 C 551.321862 372.601224 549.968591 373.639338 549.086023 374.403233 C 545.143884 377.772206 542.73153 381.121592 539.416996 384.627675 C 532.199548 391.953233 526.237308 398.064393 519.706302 402.47148 C 516.862471 404.116793 512.704593 403.548768 510.821781 403.431246 L 505.271407 407.407418 C 473.538171 374.148601 430.351159 352.877061 383.849613 348.744193 C 383.731937 346.805074 383.555424 343.279405 383.516198 342.221704 C 381.613773 340.400108 379.319095 338.833143 378.730717 334.896146 C 378.103112 327.041737 379.162194 318.58013 380.39779 308.375275 C 381.06462 303.596034 382.202152 299.639449 382.398278 294.468467 C 382.437504 293.293244 382.359053 291.58917 382.359053 290.316012 C 382.359053 281.345141 375.808435 274.058757 367.728031 274.058757 Z M 349.429447 387.487384 L 345.075443 464.209873 L 344.761641 464.36657 C 344.467452 471.241626 338.819014 476.706413 331.895756 476.706413 C 329.051924 476.706413 326.423832 475.805409 324.305668 474.238445 L 324.168379 474.316793 L 261.270674 429.717072 C 280.589115 410.698043 305.320642 396.654126 333.817793 390.190398 C 339.034753 388.995588 344.2321 388.133757 349.429447 387.487384 Z M 386.085453 387.487384 C 419.348474 391.581079 450.120691 406.66311 473.695072 429.756246 L 411.209232 474.062161 L 410.973881 473.964226 C 405.443119 478.018746 397.617679 477.019806 393.302901 471.594193 C 391.518151 469.361268 390.596358 466.75619 390.478682 464.131525 L 390.419844 464.092351 Z M 238.461185 458.372931 L 295.886967 509.749773 L 295.828129 510.063166 C 301.005863 514.568188 301.770756 522.383422 297.455977 527.809036 C 295.69084 530.022373 293.317712 531.510989 290.76807 532.216123 L 290.709232 532.470755 L 217.083418 553.722708 C 213.337406 519.445364 221.398197 486.147373 238.461185 458.372931 Z M 496.602624 458.412105 C 505.134118 472.240565 511.606286 487.694751 515.450362 504.441681 C 519.255212 520.973155 520.216231 537.504628 518.64722 553.468076 L 444.648767 532.157362 L 444.570316 531.843969 C 437.941247 530.022373 433.881433 523.284427 435.43083 516.526893 C 436.058435 513.765119 437.529382 511.414672 439.510258 509.691012 L 439.490645 509.534315 Z M 355.960453 513.706358 L 379.475996 513.706358 L 394.107019 532.000666 L 388.850834 554.799996 L 367.728031 564.965677 L 346.54639 554.780409 L 341.290205 531.961492 Z M 431.390629 576.286994 C 432.390873 576.228233 433.391117 576.326168 434.352136 576.502451 L 434.489424 576.345755 L 510.645267 589.214449 C 499.485681 620.534148 478.166752 647.662217 449.6696 665.799829 L 420.113366 594.405018 L 420.211429 594.287496 C 417.485274 587.960878 420.211429 580.576559 426.448246 577.560152 C 428.056482 576.796257 429.723555 576.365342 431.390629 576.286994 Z M 303.477054 576.600387 C 309.302006 576.678735 314.499353 580.713668 315.852624 586.628958 C 316.499841 589.390733 316.186039 592.13292 315.146569 594.561715 L 315.362308 594.835934 L 286.100264 665.52561 C 258.760258 647.97561 236.970625 621.709371 225.320723 589.469081 L 300.829349 576.659148 L 300.947025 576.815844 C 301.790368 576.659148 302.653324 576.5808 303.477054 576.600387 Z M 367.257328 607.567518 C 369.297041 607.48917 371.336755 607.900498 373.298018 608.840677 C 375.84766 610.074661 377.828536 612.01378 379.083744 614.344639 L 379.358321 614.344639 L 416.583093 681.586994 C 411.738773 683.212719 406.776778 684.6034 401.697107 685.739449 C 373.23918 692.203177 344.859704 690.244472 319.167159 681.489059 L 356.293868 614.364226 L 356.352705 614.364226 C 358.588545 610.211771 362.805261 607.724215 367.257328 607.567518 Z M 367.257328 607.567518 " transform="matrix(0.19917,0,0,0.19943,-1.259969,-34.850905)"/>
</g>
</svg>
