<?xml version="1.0" encoding="UTF-8"?>
<svg version="1.1" xmlns="http://www.w3.org/2000/svg" width="1520" height="280">
<path d="M0 0 C0.77718384 0.00054382 1.55436768 0.00108765 2.35510254 0.00164795 C13.99842415 0.03915285 24.8223655 0.62335083 35.9375 4.375 C36.59008789 4.58930664 37.24267578 4.80361328 37.91503906 5.02441406 C56.27552368 11.18643308 72.42910253 23.0289304 81.51171875 40.3828125 C84.19380514 46.14660848 86.07179575 51.04484011 86.1875 57.4375 C86.22617187 58.72333984 86.22617187 58.72333984 86.265625 60.03515625 C85.86029845 62.92552059 85.2151229 63.60298356 82.9375 65.375 C80.78811646 65.75595093 80.78811646 65.75595093 78.27001953 65.76318359 C77.32538849 65.77264008 76.38075745 65.78209656 75.40750122 65.7918396 C74.38872894 65.78576691 73.36995667 65.77969421 72.3203125 65.7734375 C71.27100555 65.77630768 70.22169861 65.77917786 69.14059448 65.78213501 C66.91973329 65.78417748 64.69885418 65.77863493 62.47802734 65.76611328 C59.08259652 65.75009481 55.68836191 65.76593983 52.29296875 65.78515625 C50.13541404 65.78317322 47.97786008 65.77932832 45.8203125 65.7734375 C44.80558868 65.77951019 43.79086487 65.78558289 42.74539185 65.7918396 C33.88000996 65.70367869 33.88000996 65.70367869 29.9375 62.375 C28.671875 60.32421875 28.671875 60.32421875 27.6875 58.0625 C24.38966994 51.69499164 19.35263442 48.57235436 12.6953125 46.23828125 C2.26832495 43.84289222 -10.67947278 43.78620236 -20.0625 49.375 C-24.08342986 52.83571042 -25.91120199 56.37030132 -26.3125 61.6875 C-26.04261754 65.66826628 -24.98586609 67.92896908 -23.0625 71.375 C-23.0625 72.035 -23.0625 72.695 -23.0625 73.375 C-21.73016732 74.04366422 -20.39656661 74.70980192 -19.0625 75.375 C-18.29470215 75.75978516 -17.5269043 76.14457031 -16.73583984 76.54101562 C-9.5595252 79.9808796 -2.418519 82.0603856 5.3125 83.875 C6.53622314 84.17269287 7.75994629 84.47038574 9.02075195 84.77709961 C14.6153975 86.13276879 20.21907212 87.44509057 25.83203125 88.72265625 C48.57174882 93.91871975 73.59242534 100.52109666 86.9375 121.375 C91.93284311 130.55139831 93.28392916 139.366251 93.25 149.6875 C93.26611328 150.65623047 93.28222656 151.62496094 93.29882812 152.62304688 C93.30950936 168.63421998 86.96262551 181.93098674 75.9375 193.375 C55.97301358 211.10549998 30.72616829 216.75992664 4.73071289 216.69067383 C2.27118987 216.68752711 -0.18711014 216.71100923 -2.64648438 216.73632812 C-27.87233216 216.83768494 -53.00888777 210.88281653 -72.0625 193.375 C-82.33007401 183.06723979 -87.81303112 171.58882387 -89.375 157.1015625 C-88.93447449 153.25797745 -87.93936449 151.98255242 -85.0625 149.375 C-81.6692503 148.60122849 -78.32414139 148.65064029 -74.85546875 148.67578125 C-73.85671219 148.66862595 -72.85795563 148.66147064 -71.82893372 148.65409851 C-69.71661269 148.64631827 -67.60421133 148.65134046 -65.49194336 148.66821289 C-62.27106381 148.68737469 -59.05453669 148.64812571 -55.83398438 148.60351562 C-53.77864328 148.60322512 -51.72329825 148.60636874 -49.66796875 148.61328125 C-48.71045212 148.59799881 -47.75293549 148.58271637 -46.7664032 148.56697083 C-40.8382114 148.66943226 -37.65163228 149.68813299 -33.3883667 153.87832642 C-31.81547572 155.65384758 -30.40808702 157.44113137 -29.125 159.4375 C-23.90637968 166.6526901 -16.54663801 169.47721254 -8.0625 171.375 C-4.40401411 171.76525176 -0.80151839 171.80527633 2.875 171.75 C3.83921875 171.74129883 4.8034375 171.73259766 5.796875 171.72363281 C15.12477234 171.53114237 23.52596705 170.52114927 30.9375 164.375 C34.30362181 160.64497313 35.80471491 158.13440241 36.1875 153.0625 C35.87148247 148.40124146 35.05128626 145.27854408 31.484375 142.06640625 C19.68736698 133.8341463 3.06377398 131.56769171 -10.72045898 128.39819336 C-19.50711978 126.36768176 -28.16739773 124.15973034 -36.734375 121.328125 C-37.45414017 121.09166763 -38.17390533 120.85521027 -38.91548157 120.61158752 C-55.59416809 114.93195805 -70.75811774 105.37803311 -79.0625 89.375 C-85.16646475 75.62811055 -85.55122396 57.2684818 -80.328125 43.19921875 C-72.04963001 24.72591049 -59.53602102 14.19703929 -41.0625 6.375 C-36.77690143 4.77264124 -32.51583754 3.42223421 -28.0625 2.375 C-27.32539795 2.19984863 -26.5882959 2.02469727 -25.82885742 1.84423828 C-17.26111422 0.03122457 -8.71419959 -0.02287495 0 0 Z " fill="#0D7390" transform="translate(369.0625,29.625)"/>
<path d="M0 0 C0.87173859 -0.00619858 1.74347717 -0.01239716 2.64163208 -0.01878357 C4.48584883 -0.0258871 6.33012963 -0.02269839 8.17431641 -0.01000977 C10.99111724 0.00382426 13.80457535 -0.03016512 16.62109375 -0.06835938 C18.41406331 -0.0693109 20.20703702 -0.06744997 22 -0.0625 C22.83973358 -0.07575821 23.67946716 -0.08901642 24.54464722 -0.10267639 C25.33541656 -0.09014328 26.12618591 -0.07761017 26.94091797 -0.06469727 C27.631362 -0.0637355 28.32180603 -0.06277374 29.03317261 -0.06178284 C32.43460643 0.95588863 33.91503559 2.83785814 36.1328125 5.56640625 C37.36024826 8.18764178 38.13543531 10.87529284 38.90356445 13.66137695 C39.13838028 14.46189987 39.37319611 15.26242279 39.61512756 16.08720398 C40.38265745 18.71797428 41.12693107 21.35472166 41.87109375 23.9921875 C42.40060854 25.82391411 42.93156925 27.6552233 43.46391296 29.48612976 C44.85761192 34.29395483 46.23164742 39.10718388 47.60162354 43.92181396 C49.00445325 48.83866969 50.42586205 53.75014466 51.84570312 58.66210938 C54.6262525 68.29170799 57.38605215 77.92711967 60.1328125 87.56640625 C62.32238057 84.28205414 63.36819017 81.07162897 64.51538086 77.34448242 C64.85971916 76.24637489 64.85971916 76.24637489 65.21101379 75.12608337 C65.70855822 73.53729127 66.20389333 71.947806 66.69727898 70.35771751 C67.47922416 67.83821254 68.26718862 65.32066211 69.05677795 62.80354309 C71.0173286 56.54924075 72.96771913 50.29178036 74.91790771 44.03424072 C76.56524069 38.74960796 78.21668283 33.46629448 79.87368965 28.18468666 C80.64824595 25.70992917 81.41673838 23.23334168 82.18504333 20.75663757 C82.6633424 19.22983465 83.14192944 17.70312189 83.62084961 16.17651367 C83.93658432 15.14995667 83.93658432 15.14995667 84.25869751 14.10266113 C87.57339713 3.6060165 87.57339713 3.6060165 92.1328125 0.56640625 C96.39875152 0.15750835 100.67369492 0.19480088 104.95678711 0.19580078 C107.05990606 0.19142789 109.16092426 0.15510146 111.26367188 0.1171875 C112.60415951 0.11131875 113.94465709 0.10734975 115.28515625 0.10546875 C116.50195068 0.09725098 117.71874512 0.0890332 118.97241211 0.08056641 C122.82889766 0.67341355 123.66203542 1.62445227 126.1328125 4.56640625 C127.24334717 6.9984436 127.24334717 6.9984436 128.11230469 9.74853516 C128.44655457 10.78547516 128.78080444 11.82241516 129.12518311 12.89077759 C129.47316956 14.01350067 129.82115601 15.13622375 130.1796875 16.29296875 C130.55458313 17.46862396 130.92947876 18.64427917 131.31573486 19.8555603 C132.31450515 22.99599981 133.30241412 26.13958866 134.28527832 29.28503418 C135.25633826 32.38310224 136.24230901 35.47641534 137.2265625 38.5703125 C141.45695164 51.90163661 145.60190338 65.25887403 149.67108154 78.64028931 C149.98104065 79.65537567 150.29099976 80.67046204 150.61035156 81.71630859 C150.88139709 82.60812836 151.15244263 83.49994812 151.43170166 84.41879272 C152.08008216 86.58390775 152.08008216 86.58390775 153.1328125 88.56640625 C153.42238327 87.55242767 153.71195404 86.5384491 154.01029968 85.4937439 C156.74490907 75.92554586 159.4953975 66.36203792 162.26138592 56.80286217 C163.68280876 51.88856298 165.09864273 46.97279717 166.50170898 42.05322266 C167.85665839 37.30314259 169.22628031 32.55751934 170.60605812 27.81459427 C171.12916606 26.00687429 171.64702299 24.19762604 172.15946007 22.38685226 C172.87969832 19.84525577 173.61863975 17.30979938 174.36206055 14.77490234 C174.67172256 13.65711899 174.67172256 13.65711899 174.98764038 12.51675415 C176.48442338 7.51195706 178.373839 4.24362489 182.1328125 0.56640625 C184.23245239 -0.17530823 184.23245239 -0.17530823 186.32470703 -0.16235352 C187.11547638 -0.1715834 187.90624573 -0.18081329 188.72097778 -0.19032288 C189.56071136 -0.16876633 190.40044495 -0.14720978 191.265625 -0.125 C192.13927704 -0.12362534 193.01292908 -0.12225067 193.91305542 -0.12083435 C195.75384803 -0.11179543 197.59461961 -0.08822061 199.43505859 -0.05102539 C202.25570657 0.00386527 205.07340407 0.01050272 207.89453125 0.00976562 C209.68492142 0.02450888 211.47529157 0.04199289 213.265625 0.0625 C214.10940704 0.06583847 214.95318909 0.06917694 215.82254028 0.07261658 C221.53027671 0.21187523 221.53027671 0.21187523 223.87863159 1.59364319 C225.8847015 4.74908958 225.51655125 7.98285512 225.1328125 11.56640625 C224.30484009 15.17526245 224.30484009 15.17526245 223.12353516 18.89794922 C222.90826077 19.58734274 222.69298639 20.27673626 222.47118855 20.98702049 C221.7571247 23.26440984 221.02704101 25.53632101 220.296875 27.80859375 C219.78408471 29.43365378 219.27235467 31.0590487 218.76161194 32.68475342 C217.3903534 37.04008286 216.00549501 41.39097274 214.61782455 45.7410965 C213.18139575 50.25126899 211.75653816 54.76509012 210.33129883 59.27880859 C209.75657625 61.09855081 209.18182339 62.91828346 208.60704041 64.73800659 C208.32220228 65.63979519 208.03736416 66.54158379 207.74389458 67.47069931 C206.87713337 70.21263964 206.00871707 72.954051 205.13990784 75.69534302 C201.79193945 86.26514888 198.48686207 96.84670739 195.24726105 107.45023727 C194.61524995 109.51876802 193.98198043 111.58690937 193.34832764 113.65493774 C191.79343367 118.73150252 190.23868395 123.80804335 188.70172119 128.89007568 C187.67041441 132.29789976 186.62745378 135.70195355 185.58203125 139.10546875 C185.28829117 140.089245 184.99455109 141.07302124 184.69190979 142.08660889 C183.00414983 147.53898467 181.25901941 152.44019934 177.1328125 156.56640625 C171.79073142 156.85891 166.44600305 156.88050446 161.09667969 156.91650391 C159.29446479 156.93304096 157.49231487 156.96030147 155.69042969 156.99853516 C153.09275265 157.05338878 150.49661624 157.07519225 147.8984375 157.08984375 C147.09617737 157.11251312 146.29391724 157.1351825 145.46734619 157.15853882 C144.71016296 157.15568878 143.95297974 157.15283875 143.17285156 157.14990234 C142.51190491 157.1579892 141.85095825 157.16607605 141.16998291 157.17440796 C137.84536955 156.18216372 136.32347664 154.19785503 134.1328125 151.56640625 C132.64059448 148.28556824 132.64059448 148.28556824 131.40966797 144.51635742 C131.17967102 143.82622055 130.94967407 143.13608368 130.71270752 142.42503357 C129.96088392 140.15756507 129.23048126 137.88379926 128.5 135.609375 C127.97760932 134.02097979 127.45383382 132.43303941 126.92874146 130.84553528 C125.55222192 126.67224094 124.19354719 122.49335384 122.83886719 118.31292725 C121.19503269 113.25115808 119.53047801 108.19617519 117.86894417 103.14019489 C116.57533387 99.20248139 115.28475442 95.26386322 114.00363159 91.32206726 C113.76599091 90.59270966 113.52835022 89.86335205 113.2835083 89.1118927 C112.64485217 87.15104233 112.00788929 85.18964068 111.37106323 83.22819519 C110.04381614 79.30322377 108.60701069 75.43827807 107.1328125 71.56640625 C103.89414457 79.26046497 101.19768913 87.11408968 98.57264709 95.033638 C97.83556559 97.25524691 97.09370737 99.47520865 96.35046387 101.69476318 C94.24027777 107.99756988 92.13463621 114.30185882 90.04150391 120.61035156 C88.75424826 124.4888752 87.45828347 128.36439594 86.15675354 132.23815155 C85.66551649 133.70578192 85.17753587 135.17450669 84.69297791 136.64435577 C84.01510689 138.69966782 83.32618524 140.75097067 82.63476562 142.80175781 C82.24712036 143.96628479 81.8594751 145.13081177 81.46008301 146.33062744 C78.0687434 154.5984408 78.0687434 154.5984408 74.1328125 156.56640625 C71.4082531 156.70186816 68.71047487 156.77908221 65.984375 156.8046875 C65.17543793 156.81275925 64.36650085 156.82083099 63.53305054 156.82914734 C61.81990705 156.84298615 60.10673602 156.85370922 58.39355469 156.86157227 C55.77485926 156.87879414 53.15742356 156.92268104 50.5390625 156.96679688 C48.87500929 156.97692314 47.21094534 156.98543945 45.546875 156.9921875 C44.76446442 157.00969559 43.98205383 157.02720367 43.17593384 157.04524231 C39.95638069 157.03241004 37.62781619 156.87125673 34.85693359 155.16479492 C30.32082929 148.32852218 28.22869698 140.05353488 25.8671875 132.265625 C25.56036545 131.26730652 25.2535434 130.26898804 24.93742371 129.24041748 C23.91536003 125.91275062 22.89901927 122.58336595 21.8828125 119.25390625 C20.58023243 115.00145594 19.27560178 110.74963818 17.96941948 106.49829292 C17.5677307 105.19082184 17.16620939 103.8832993 16.76484871 102.57572746 C13.39244762 91.59270433 9.96203871 80.62849346 6.51033401 69.67015648 C5.67849461 67.02814915 4.84784837 64.38576996 4.01766968 61.74324036 C3.74434752 60.87323993 3.47102535 60.0032395 3.1894207 59.10687542 C2.63856684 57.35331563 2.08776133 55.59974066 1.53700447 53.8461504 C0.16944142 49.49378848 -1.20140269 45.1425081 -2.57897949 40.79330444 C-3.88791097 36.66064884 -5.18884869 32.52555835 -6.48407555 28.38858795 C-6.96634623 26.85348556 -7.45162773 25.3193254 -7.94010353 23.78618622 C-8.61260137 21.67422439 -9.2744227 19.55919206 -9.93383789 17.44311523 C-10.30891983 16.25443344 -10.68400177 15.06575165 -11.07044983 13.84104919 C-12.07471093 9.71347166 -12.53382874 6.21545711 -10.92138672 2.22680664 C-7.64466002 -0.42175745 -4.03268868 -0.02370471 0 0 Z " fill="#0D7390" transform="translate(474.8671875,86.43359375)"/>
<path d="M0 0 C0.9311412 -0.00960754 1.86228241 -0.01921509 2.82164001 -0.02911377 C3.82997391 -0.03336365 4.8383078 -0.03761353 5.87719727 -0.04199219 C6.91046646 -0.04769226 7.94373566 -0.05339233 9.00831604 -0.05926514 C11.19645155 -0.06872172 13.38460135 -0.07525172 15.57275391 -0.07910156 C18.92643938 -0.08881746 22.27951483 -0.11983921 25.63305664 -0.15136719 C27.75609987 -0.15789602 29.87914748 -0.16314696 32.00219727 -0.16699219 C33.51166176 -0.18551239 33.51166176 -0.18551239 35.05162048 -0.20440674 C35.98591385 -0.20140564 36.92020721 -0.19840454 37.8828125 -0.1953125 C38.70506821 -0.19895813 39.52732391 -0.20260376 40.37449646 -0.20635986 C43.03739629 0.25272859 43.88113809 1.03641016 45.50610352 3.16113281 C46.60764819 6.46576682 46.66429068 8.987242 46.71142578 12.46850586 C46.74134361 14.42018929 46.74134361 14.42018929 46.77186584 16.41130066 C46.78884897 17.83181641 46.80572782 19.25233342 46.82250977 20.67285156 C46.84308489 22.12588587 46.86408151 23.57891427 46.88548279 25.03193665 C46.94064585 28.85412811 46.99008049 32.67637307 47.03833008 36.49865723 C47.08858724 40.39986933 47.14425129 44.30100386 47.19946289 48.20214844 C47.30697393 55.85507751 47.4084345 63.50807114 47.50610352 71.16113281 C48.03760513 70.68323807 48.56910675 70.20534332 49.11671448 69.71296692 C49.82343796 69.08460434 50.53016144 68.45624176 51.25830078 67.80883789 C51.9548024 67.18656815 52.65130402 66.5642984 53.36891174 65.923172 C56.48730976 63.3521629 59.8138816 61.58675924 63.44360352 59.84863281 C64.09522461 59.51541016 64.7468457 59.1821875 65.41821289 58.83886719 C79.17671856 52.07438108 98.35991577 51.54496391 112.94360352 55.84863281 C114.81751566 56.57013909 116.67475015 57.33756562 118.50610352 58.16113281 C119.37750977 58.51175781 120.24891602 58.86238281 121.14672852 59.22363281 C135.06483013 65.37150592 144.5407395 77.91283228 149.94360352 91.84863281 C152.70095728 100.69913603 153.80625053 109.3727862 153.78076172 118.61791992 C153.78587265 119.59821167 153.79098358 120.57850342 153.79624939 121.58850098 C153.81001091 124.78855701 153.80920029 127.98839471 153.80688477 131.18847656 C153.81077615 133.42761819 153.81511173 135.66675909 153.81987 137.90589905 C153.82730101 142.57832241 153.82706146 147.25067013 153.82177734 151.9230957 C153.81595512 157.91426514 153.83299501 163.90512819 153.85612202 169.89624691 C153.87083072 174.51070467 153.87173551 179.12508785 153.86861229 183.7395649 C153.8691259 185.94959691 153.87437108 188.15963305 153.88442421 190.36964226 C153.89672964 193.45000325 153.89003474 196.52975652 153.87841797 199.61010742 C153.88606171 200.52286942 153.89370544 201.43563141 153.90158081 202.37605286 C153.87182782 205.93671499 153.82939069 208.49050205 152.26980591 211.72572327 C150.01749826 213.55878983 148.80402356 213.66744517 145.91455078 213.67871094 C144.9867128 213.69131958 144.05887482 213.70392822 143.10292053 213.71691895 C142.10288498 213.70882202 141.10284943 213.7007251 140.07250977 213.69238281 C138.5282859 213.69812317 138.5282859 213.69812317 136.9528656 213.70397949 C134.77488223 213.7067024 132.59686637 213.69931485 130.41894531 213.68261719 C127.0846252 213.66123555 123.7524653 213.68239571 120.41821289 213.70800781 C118.30297376 213.70536418 116.18773597 213.70023846 114.07250977 213.69238281 C113.07449844 213.70047974 112.07648712 213.70857666 111.04823303 213.71691895 C110.11724289 213.7043103 109.18625275 213.69170166 108.22705078 213.67871094 C107.41003189 213.67552856 106.593013 213.67234619 105.75123596 213.66906738 C102.49850702 212.93317606 101.41524956 211.89779181 99.50610352 209.16113281 C99.11337133 206.24952091 98.96187983 203.71401639 98.99194336 200.8034668 C98.98481827 199.9622377 98.97769318 199.12100861 98.97035217 198.25428772 C98.95104819 195.47169603 98.95935897 192.68986322 98.96704102 189.90722656 C98.95713154 187.96630242 98.94518933 186.02538769 98.93130493 184.08448792 C98.89889827 178.96768212 98.8885491 173.8510902 98.88446045 168.73419189 C98.87571954 160.56970264 98.83992144 152.40538994 98.79228592 144.241045 C98.77978963 141.40122396 98.78045207 138.56162922 98.78256226 135.7217865 C99.08842936 117.84476078 99.08842936 117.84476078 91.50610352 102.16113281 C86.18701296 96.97842919 80.53537391 95.85307591 73.25610352 95.72363281 C65.46470987 95.83843724 59.83264555 97.44219232 53.89282227 102.54785156 C48.06654182 108.82098537 47.06063562 116.30328645 47.12133789 124.43530273 C47.11596512 125.32576797 47.11059235 126.21623322 47.10505676 127.13368225 C47.09532631 129.05315682 47.09232019 130.97267512 47.09541321 132.89217186 C47.0999125 135.93144446 47.08583331 138.97014142 47.0670166 142.00935364 C47.02411676 149.55167811 47.01297514 157.09398846 47.00079346 164.63641357 C46.98926579 171.02357086 46.96571896 177.41046347 46.92610168 183.79751015 C46.91253333 186.78945158 46.91670071 189.78103489 46.92150879 192.772995 C46.91216939 194.60705015 46.90200088 196.44110133 46.89086914 198.27514648 C46.89701736 199.10486969 46.90316559 199.9345929 46.90950012 200.78945923 C46.85573723 205.83244454 46.24693339 209.42030293 42.50610352 213.16113281 C41.0547169 213.28009525 39.5976766 213.33118615 38.14160156 213.35400391 C37.21361252 213.37006683 36.28562347 213.38612976 35.32951355 213.40267944 C31.07628969 213.44698143 26.82322472 213.48820042 22.56982422 213.51123047 C20.32427611 213.52779319 18.07878078 213.55508715 15.83349609 213.59326172 C12.60299206 213.64793947 9.37372629 213.6698916 6.14282227 213.68457031 C5.13853683 213.70723969 4.1342514 213.72990906 3.09953308 213.75326538 C1.69336479 213.74899033 1.69336479 213.74899033 0.25878906 213.74462891 C-0.56426224 213.75271576 -1.38731354 213.76080261 -2.23530579 213.76913452 C-5.67474399 212.84325437 -6.60578112 211.13813046 -8.49389648 208.16113281 C-8.87516808 205.27014789 -9.02679915 202.76595515 -8.9883728 199.88011169 C-8.99320163 199.0497007 -8.99803046 198.21928971 -9.00300562 197.36371475 C-9.01427171 194.58289479 -8.99696135 191.80299539 -8.97973633 189.0222168 C-8.9818823 187.02799226 -8.98576016 185.03376894 -8.99124146 183.03955078 C-9.0009387 177.62433863 -8.98562704 172.20945594 -8.96533537 166.79428363 C-8.9477757 161.13068688 -8.95128922 155.46710048 -8.95205688 149.80348206 C-8.9501836 140.29316693 -8.93281516 130.78297942 -8.90551758 121.27270508 C-8.87405749 110.27147061 -8.86352169 99.27037586 -8.86498868 88.26909965 C-8.86620868 77.69234553 -8.85600352 67.11563699 -8.83940506 56.53889656 C-8.83233734 52.03459378 -8.82867827 47.53030713 -8.82761765 43.02599907 C-8.82561096 37.72447711 -8.81341924 32.42307281 -8.79328537 27.12158966 C-8.78743591 25.17369113 -8.78498453 23.22577906 -8.78614044 21.27787209 C-8.78711965 18.62351242 -8.77583246 15.96948388 -8.76132202 13.31517029 C-8.76441923 12.54036975 -8.76751643 11.76556921 -8.77070749 10.96728987 C-8.73701549 7.24741988 -8.70198217 4.25498782 -6.49389648 1.16113281 C-4.12079083 -0.02542002 -2.64789927 0.02200942 0 0 Z " fill="#0D7390" transform="translate(1351.493896484375,29.8388671875)"/>
<path d="M0 0 C2.21168659 0.00315435 4.42202304 -0.02036433 6.63354492 -0.0456543 C26.91846544 -0.13644304 45.35418774 5.06725778 60.6003418 18.94067383 C75.28581054 34.36933431 74.88040507 53.72053146 74.84643555 73.63208008 C74.85100254 75.98046519 74.85630965 78.32884897 74.86231995 80.67723083 C74.87121145 85.57312492 74.86886874 90.46885547 74.85888672 95.36474609 C74.84733373 101.64292588 74.8677254 107.92054848 74.89680386 114.19865513 C74.9151172 119.03616415 74.91488427 123.87353795 74.90916634 128.71107292 C74.90901289 131.02716803 74.91507635 133.34327217 74.92745781 135.65933418 C74.94229349 138.88571908 74.93174914 142.11105102 74.91455078 145.33740234 C74.92905273 146.77196274 74.92905273 146.77196274 74.94384766 148.23550415 C74.87217638 154.63883519 74.87217638 154.63883519 72.65359497 157.90795898 C70.19309711 159.45372467 68.93910193 159.81674127 66.05908203 159.81738281 C65.2081749 159.82676376 64.35726776 159.83614471 63.48057556 159.84580994 C62.11480125 159.82895897 62.11480125 159.82895897 60.72143555 159.81176758 C59.77978043 159.81322281 58.83812531 159.81467804 57.86793518 159.81617737 C55.88002422 159.81451927 53.89210031 159.80296802 51.90429688 159.78222656 C48.8577643 159.75324444 45.81296885 159.76162483 42.76635742 159.7746582 C40.83470832 159.76842155 38.90306472 159.76003119 36.97143555 159.74926758 C36.05889511 159.75220322 35.14635468 159.75513885 34.2061615 159.75816345 C33.35840652 159.74547928 32.51065155 159.7327951 31.63720703 159.71972656 C30.8920433 159.71432358 30.14687958 159.70892059 29.37913513 159.70335388 C26.85122121 159.2049431 25.96404893 158.342975 24.4128418 156.31567383 C23.90112305 153.39770508 23.90112305 153.39770508 23.7253418 150.12817383 C23.65959961 149.04149414 23.59385742 147.95481445 23.52612305 146.83520508 C23.47004883 145.58803711 23.47004883 145.58803711 23.4128418 144.31567383 C23.0209668 144.80036133 22.6290918 145.28504883 22.2253418 145.78442383 C17.8445933 150.69388335 13.23891596 153.78844579 7.4128418 156.69067383 C6.41704102 157.19050781 6.41704102 157.19050781 5.40112305 157.70043945 C-3.52506035 161.97062738 -11.53993938 162.65639162 -21.3371582 162.62817383 C-22.4405957 162.64428711 -23.5440332 162.66040039 -24.6809082 162.67700195 C-40.76024975 162.68643819 -54.71091176 157.82127738 -66.3996582 146.60083008 C-75.26696768 137.33765857 -80.01675383 126.9031947 -79.7980957 113.93676758 C-79.03785508 104.49007395 -76.68093403 96.62262699 -70.5871582 89.31567383 C-70.03415039 88.64020508 -69.48114258 87.96473633 -68.91137695 87.26879883 C-49.82997165 66.18527605 -15.52341442 63.8611187 10.72143555 60.05004883 C12.18794556 59.83687012 12.18794556 59.83687012 13.68408203 59.61938477 C16.28770016 59.32960209 18.79590093 59.25965824 21.4128418 59.31567383 C21.15666986 56.75094071 20.88349726 54.18995046 20.6003418 51.62817383 C20.53008789 50.90694336 20.45983398 50.18571289 20.38745117 49.44262695 C19.88835662 45.07055864 19.17145495 41.89785353 16.4128418 38.31567383 C9.62413826 34.2713398 2.77581964 33.19544655 -4.9621582 34.81176758 C-12.95531352 37.201613 -17.09790145 41.2611275 -21.5871582 48.31567383 C-23.84869032 49.44643989 -25.11139469 49.4534077 -27.62207031 49.47680664 C-28.45310776 49.48641418 -29.2841452 49.49602173 -30.1403656 49.50592041 C-31.4888131 49.51229523 -31.4888131 49.51229523 -32.86450195 49.51879883 C-33.78679092 49.5244989 -34.7090799 49.53019897 -35.65931702 49.53607178 C-37.61205903 49.54552631 -39.56481702 49.55205755 -41.51757812 49.5559082 C-44.50915217 49.56562347 -47.50004209 49.59664638 -50.49145508 49.62817383 C-52.38663328 49.63470281 -54.28181641 49.63995369 -56.17700195 49.64379883 C-57.07394272 49.65614563 -57.97088348 49.66849243 -58.89500427 49.68121338 C-59.72919388 49.67821228 -60.56338348 49.67521118 -61.42285156 49.67211914 C-62.15628281 49.67576477 -62.88971405 49.6794104 -63.64537048 49.6831665 C-66.19429827 49.20076965 -67.05531807 48.38692424 -68.5871582 46.31567383 C-69.76022749 38.10418879 -67.06105609 32.15600472 -62.5871582 25.31567383 C-54.71382895 15.66981495 -45.09621232 9.43245714 -33.5871582 5.00317383 C-32.95922363 4.76050781 -32.33128906 4.5178418 -31.68432617 4.26782227 C-21.32379182 0.52202948 -10.91233769 -0.03243072 0 0 Z M5.41577148 91.60449219 C4.00913392 91.868035 2.60124479 92.12499201 1.19213867 92.375 C-9.3254307 94.24129964 -20.69522364 96.3044387 -27.58325195 105.29223633 C-29.55059353 109.25753958 -29.50415107 113.04813012 -28.5871582 117.31567383 C-25.82194097 122.13250384 -22.45617697 124.57742138 -17.3059082 126.62036133 C-9.10692324 128.71722817 -0.45108068 128.23413509 7.22924805 124.63989258 C14.96745429 119.94713423 19.14034789 113.02746357 21.6628418 104.50317383 C22.80225617 99.49574749 22.58172005 94.41954995 22.4128418 89.31567383 C16.62741862 89.31567383 11.08139685 90.53221043 5.41577148 91.60449219 Z " fill="#0D7390" transform="translate(1099.587158203125,83.684326171875)"/>
<path d="M0 0 C16.42110639 12.73148193 24.86067311 29.95169661 28.5859375 50.078125 C29.16613094 55.4300028 29.26770443 60.74116604 29.31640625 66.12109375 C29.34541016 67.20068359 29.37441406 68.28027344 29.40429688 69.39257812 C29.41267578 70.43091797 29.42105469 71.46925781 29.4296875 72.5390625 C29.45156128 73.94901489 29.45156128 73.94901489 29.47387695 75.38745117 C28.82530689 78.90118475 27.90241105 79.82295104 25.00390625 81.93359375 C21.82516347 82.5192157 18.68567116 82.43856665 15.46191406 82.38769531 C14.49572647 82.38827942 13.52953888 82.38886353 12.53407288 82.38946533 C9.34135986 82.38667922 6.14958111 82.3555616 2.95703125 82.32421875 C0.74314891 82.31675826 -1.47074004 82.31106442 -3.68463135 82.30706787 C-9.51107013 82.29179658 -15.33710995 82.25250143 -21.16339111 82.20825195 C-27.10887251 82.16733176 -33.05441837 82.14906378 -39 82.12890625 C-50.66553985 82.086009 -62.33078362 82.01773922 -73.99609375 81.93359375 C-73.70159995 83.98900171 -73.40090336 86.04352147 -73.09765625 88.09765625 C-72.93088379 89.24186035 -72.76411133 90.38606445 -72.59228516 91.56494141 C-71.14806841 99.72518 -68.60269873 105.42589188 -62 110.59375 C-56.67356492 114.15508964 -51.23292448 114.60182561 -44.99609375 113.93359375 C-37.33776561 112.24592514 -32.57548315 107.51298315 -27.18359375 102.12109375 C-24.29287715 99.23037715 -22.85694016 98.80874719 -18.90112305 98.77246094 C-18.05652023 98.76285339 -17.21191742 98.75324585 -16.34172058 98.74334717 C-15.42715591 98.73909729 -14.51259125 98.73484741 -13.5703125 98.73046875 C-12.1607 98.72191864 -12.1607 98.72191864 -10.72261047 98.7131958 C-8.73118213 98.70373901 -6.73973809 98.69720913 -4.74829102 98.69335938 C-1.70626362 98.68366599 1.33508474 98.65265403 4.37695312 98.62109375 C6.3111939 98.6145625 8.24543952 98.60931251 10.1796875 98.60546875 C11.08817947 98.59312195 11.99667145 98.58077515 12.93269348 98.5680542 C17.75563448 98.58500164 21.12135788 98.72106005 25.00390625 101.93359375 C26.46533496 105.85250872 25.42392327 109.81082451 24 113.6171875 C15.96703358 129.75177817 0.75826419 139.26097875 -15.69555664 145.08300781 C-26.52261758 148.65193279 -37.2941605 149.34431705 -48.62109375 149.30859375 C-49.32919189 149.30738525 -50.03729004 149.30617676 -50.7668457 149.30493164 C-71.55705694 149.20862629 -91.35507371 144.53607524 -106.99609375 129.93359375 C-108.00349609 129.00546875 -108.00349609 129.00546875 -109.03125 128.05859375 C-125.51796882 111.28597808 -128.25180105 87.3964151 -128.24487305 65.06054688 C-128.05529033 43.24898732 -122.41713953 22.96166687 -107.30859375 6.62109375 C-79.58228259 -18.8173882 -30.77608847 -21.22627223 0 0 Z M-66.99609375 26.93359375 C-73.1655472 35.17152284 -73.99609375 41.40975415 -73.99609375 51.93359375 C-57.82609375 51.93359375 -41.65609375 51.93359375 -24.99609375 51.93359375 C-24.99609375 42.5254866 -25.52554094 35.0983188 -31.30859375 27.49609375 C-36.68710895 22.36774205 -41.86939735 20.25103193 -49.24609375 19.68359375 C-55.99153765 20.13329001 -62.19282997 21.99690597 -66.99609375 26.93359375 Z " fill="#0D7390" transform="translate(826.99609375,97.06640625)"/>
<path d="M0 0 C0.83789062 0.44085938 1.67578125 0.88171875 2.5390625 1.3359375 C16.68971113 9.26555794 27.86427554 21.53014168 33.1875 36.9453125 C34.35317761 41.32781199 34.64409669 44.49132319 34 49 C32.60717773 51.21069336 32.60717773 51.21069336 30 53 C26.57749798 53.61165864 23.19216003 53.58414925 19.72265625 53.56640625 C18.71915634 53.57260483 17.71565643 53.57880341 16.68174744 53.58518982 C14.56103485 53.59228871 12.44026654 53.58911281 10.31958008 53.57641602 C7.077242 53.56256299 3.83779686 53.59660597 0.59570312 53.63476562 C-1.46614654 53.63571695 -3.52799981 53.63385726 -5.58984375 53.62890625 C-6.55768295 53.64216446 -7.52552216 53.65542267 -8.52268982 53.66908264 C-13.16813652 53.60493802 -15.29941285 53.54460948 -19.06274414 50.61914062 C-20.92014508 48.10796264 -22.26201436 45.79813111 -23.5 42.9375 C-26.31728038 37.07686118 -29.24494223 34.52923697 -35.3125 32.25 C-42.80766952 29.99525479 -49.9919814 30.25064714 -57 34 C-64.0014887 39.76911835 -66.62168842 47.0062767 -67.79931641 55.78442383 C-69.25285263 71.8316759 -70.10562513 90.55256547 -62 105 C-57.53791072 110.16895491 -52.66331681 112.53619815 -45.83984375 113.21484375 C-39.21485109 113.49893434 -33.97673598 112.01231062 -28.4921875 108.3046875 C-25.55103462 105.58481258 -24.14584219 102.95711457 -22.375 99.375 C-19.31243001 93.20828667 -19.31243001 93.20828667 -16 91 C-13.91981506 90.73257446 -13.91981506 90.73257446 -11.50024414 90.70947266 C-10.59242691 90.69671295 -9.68460968 90.68395325 -8.74928284 90.67080688 C-7.28204018 90.66746841 -7.28204018 90.66746841 -5.78515625 90.6640625 C-4.27422646 90.6540773 -4.27422646 90.6540773 -2.73277283 90.64389038 C-0.60189644 90.63376275 1.52901168 90.62907339 3.65991211 90.62939453 C6.921592 90.62502133 10.18191897 90.58870211 13.44335938 90.55078125 C15.5130162 90.54491318 17.58267946 90.54094372 19.65234375 90.5390625 C20.62848129 90.52469147 21.60461884 90.51032043 22.6103363 90.49551392 C29.32742407 90.54088534 29.32742407 90.54088534 32.61157227 92.78271484 C34.91657671 96.4637506 34.67841924 99.87545115 34 104 C29.65191881 119.84945722 19.15520888 132.82000169 5.17578125 141.26953125 C1.56691031 143.2359886 -2.07255313 145.04792592 -5.8125 146.75 C-6.41513672 147.03174072 -7.01777344 147.31348145 -7.63867188 147.60375977 C-19.18617755 152.626565 -31.36625474 153.55600745 -43.8125 153.4375 C-44.51310547 153.43379395 -45.21371094 153.43008789 -45.93554688 153.42626953 C-68.61457748 153.25571164 -88.49863154 147.35606417 -104.94921875 131.0703125 C-123.18746901 111.36825474 -123.91792214 85.39015322 -123 60 C-121.99164785 40.18489166 -115.44138219 22.91665582 -101 9 C-74.7488291 -13.45533949 -30.1928287 -16.28698331 0 0 Z " fill="#0D7390" transform="translate(985,93)"/>
<path d="M0 0 C1.09699219 0.37382813 2.19398437 0.74765625 3.32421875 1.1328125 C10.29850752 3.77551665 16.12412061 7.44465796 22 12 C22.95519531 12.69029297 22.95519531 12.69029297 23.9296875 13.39453125 C30.37986757 18.36833677 35.84109154 25.72854882 37.1875 33.875 C37.5223255 36.86005446 37.03351244 37.94252372 35.49365234 40.58349609 C32.10896146 43.86347165 29.16364319 43.75658354 24.68359375 43.734375 C23.46604149 43.74866547 23.46604149 43.74866547 22.22389221 43.76324463 C20.50501727 43.7753998 18.78600849 43.77457853 17.06713867 43.76171875 C14.46872883 43.75013917 11.87698371 43.80203856 9.27929688 43.859375 C-1.00661341 43.9403981 -7.86753934 42.89852981 -16 36 C-22.92475993 31.07276698 -29.52292087 29.01150667 -38 30 C-41.93992567 31.11048098 -45.42896938 32.71479421 -48 36 C-49.5121867 39.02437339 -49.17263369 41.66241534 -49 45 C-47.31435332 49.54354511 -44.646252 50.72393432 -40.41015625 52.7109375 C-30.49092646 56.46047453 -19.90270814 58.43959033 -9.52905273 60.51660156 C3.89338711 63.21553838 15.75348808 66.83070958 27 75 C27.66773438 75.47179687 28.33546875 75.94359375 29.0234375 76.4296875 C34.11494996 80.36504866 37.11525172 85.30917839 40 91 C40.51433594 91.99580078 40.51433594 91.99580078 41.0390625 93.01171875 C44.88982071 102.17076514 44.45909251 114.99056312 41.25 124.25 C39.5564916 128.14209826 37.59145606 131.62325422 35 135 C34.29875 135.969375 33.5975 136.93875 32.875 137.9375 C25.91301465 145.99321115 15.89402657 150.62354576 6 154 C5.37706055 154.21317871 4.75412109 154.42635742 4.11230469 154.64599609 C-7.51375404 158.35000318 -19.47895236 158.41686846 -31.5625 158.5 C-32.33820343 158.51053406 -33.11390686 158.52106812 -33.91311646 158.53192139 C-57.17042486 158.77569774 -78.83712212 153.3128793 -96.16015625 136.9609375 C-101.27457893 131.50989677 -105.02759611 125.27468942 -105.5625 117.6875 C-105 114 -105 114 -103 111.8137207 C-99.15375596 109.48838322 -95.81177043 109.33517338 -91.4375 109.29296875 C-90.60976074 109.27728348 -89.78202148 109.26159821 -88.92919922 109.24543762 C-87.1776893 109.22085384 -85.42599559 109.20723656 -83.67431641 109.20385742 C-81.03352166 109.18770503 -78.40093491 109.10240372 -75.76171875 109.01367188 C-63.58904894 108.81884589 -57.28826564 111.13643899 -48 119 C-40.47567557 123.57132077 -33.08458894 125.16201924 -24.40234375 123.50390625 C-20.40210845 122.46113505 -17.57553771 121.47961476 -14.375 118.8125 C-12.43951232 114.85354793 -12.58104428 112.39903501 -13 108 C-14.69457868 103.35077132 -17.62476603 102.2301663 -21.9296875 100.21875 C-29.39878582 97.25391708 -37.28229081 95.60430432 -45.10546875 93.8515625 C-63.54113094 89.6869911 -84.23966475 84.37566523 -95.6875 68.0625 C-101.79161575 57.97920459 -103.2994882 46.49744098 -101 35 C-96.63116975 20.37705578 -87.40311028 10.76834529 -74.16796875 3.4296875 C-52.77280438 -6.79346686 -22.39941232 -7.83339448 0 0 Z " fill="#0D7390" transform="translate(1289,88)"/>
<path d="M0 0 C0.78628281 -0.00524185 1.57256561 -0.0104837 2.38267517 -0.0158844 C4.04099346 -0.02229496 5.69935727 -0.02098008 7.35766602 -0.01245117 C9.89746622 -0.00392263 12.43503025 -0.03274219 14.97460938 -0.06445312 C16.58723891 -0.0660648 18.19987243 -0.06548824 19.8125 -0.0625 C20.95163597 -0.07935097 20.95163597 -0.07935097 22.11378479 -0.09654236 C25.25521648 -0.05489565 27.34224469 0.06452885 29.90405273 1.96459961 C32.29527437 8.27360675 29.19716724 14.72844417 26.62109375 20.5234375 C26.29179367 21.28749405 25.96249359 22.0515506 25.62321472 22.83876038 C24.91098045 24.48858127 24.19416824 26.13643198 23.47323608 27.7824707 C21.91330527 31.34529068 20.37666723 34.91800424 18.83879089 38.49038696 C18.03501609 40.35736207 17.23016258 42.2238731 16.42427063 44.0899353 C12.36488893 53.49933051 8.43657305 62.9610569 4.52734375 72.43359375 C3.11119559 75.85958946 1.694225 79.28524491 0.27734375 82.7109375 C-0.08071854 83.57702637 -0.43878082 84.44311523 -0.80769348 85.33544922 C-5.17584159 95.89739412 -9.5744597 106.4466351 -13.97265625 116.99609375 C-14.81747044 119.02278385 -15.66227836 121.04947657 -16.50708008 123.07617188 C-18.2085192 127.15777308 -19.91012662 131.23930408 -21.61181641 135.32080078 C-25.38151745 144.36278577 -29.14891498 153.40573048 -32.91647339 162.4486084 C-34.15525378 165.42182725 -35.39413755 168.395003 -36.63305664 171.36816406 C-40.49531863 180.6369268 -44.35708209 189.90589635 -48.21716309 199.17556763 C-50.01568232 203.49448292 -51.81447236 207.81328541 -53.61328125 212.13208008 C-54.46042082 214.16620381 -55.30743169 216.20038116 -56.15429688 218.23461914 C-56.75274414 219.67212524 -56.75274414 219.67212524 -57.36328125 221.13867188 C-57.75398804 222.07742157 -58.14469482 223.01617126 -58.54724121 223.98336792 C-59.31187963 225.81768326 -60.07819885 227.65129898 -60.84631348 229.48416138 C-62.70919599 233.9307558 -64.54734434 238.3845751 -66.33789062 242.86083984 C-66.68974426 243.7279509 -67.0415979 244.59506195 -67.40411377 245.4884491 C-68.06211887 247.1110455 -68.71063963 248.73753688 -69.34735107 250.36860657 C-71.2408743 254.99968447 -73.22135822 258.16602145 -77.16015625 261.43359375 C-82.49025653 263.21029384 -88.25602044 262.65919323 -93.83862305 262.67382812 C-96.08614977 262.68354401 -98.33276551 262.71458362 -100.58007812 262.74609375 C-102.01171333 262.75262335 -103.44335506 262.75787399 -104.875 262.76171875 C-106.82587524 262.7757373 -106.82587524 262.7757373 -108.81616211 262.79003906 C-112.36945335 262.41128421 -113.78850466 262.07796906 -116.16015625 259.43359375 C-117.6984105 255.63524137 -116.94750074 253.05142927 -115.44593811 249.32351685 C-115.16987228 248.6766391 -114.89380646 248.02976135 -114.609375 247.36328125 C-114.32432602 246.66685516 -114.03927704 245.97042908 -113.74559021 245.25289917 C-112.79209542 242.93275555 -111.82001198 240.62088946 -110.84765625 238.30859375 C-110.1647926 236.65831593 -109.48301207 235.00758956 -108.80224609 233.35644531 C-106.97827706 228.94328068 -105.13746067 224.53735252 -103.2913208 220.13342285 C-102.17590368 217.47117924 -101.06368336 214.8076249 -99.95263672 212.14355469 C-96.21432646 203.18069174 -92.46344912 194.22317894 -88.703125 185.26953125 C-84.30502529 174.79478759 -79.94479837 164.30457296 -75.59765625 153.80859375 C-75.24898499 152.96687622 -74.90031372 152.12515869 -74.54107666 151.25793457 C-72.78329108 147.0142613 -71.02602308 142.77037399 -69.26904297 138.52636719 C-66.09036227 130.84899053 -62.90680702 123.17363493 -59.72366333 115.49810791 C-57.95229884 111.22668424 -56.18124302 106.95513258 -54.41015625 102.68359375 C-53.7018244 100.9752598 -52.99349107 99.26692647 -52.28515625 97.55859375 C-51.93453125 96.71296875 -51.58390625 95.86734375 -51.22265625 94.99609375 C-48.03515625 87.30859375 -48.03515625 87.30859375 -46.97285461 84.74661255 C-46.26382197 83.03656568 -45.55482748 81.32650299 -44.84587097 79.61642456 C-43.08604817 75.37167835 -41.3255845 71.12720029 -39.5637207 66.88330078 C-36.24403742 58.88505087 -32.93117702 50.88415105 -29.63949585 42.87432861 C-28.08578911 39.09467469 -26.52862475 35.31644969 -24.97119141 31.53833008 C-24.23036567 29.73842295 -23.49123118 27.93781866 -22.75390625 26.13647461 C-21.73085129 23.63737137 -20.70196893 21.14073973 -19.671875 18.64453125 C-19.37468063 17.91410614 -19.07748627 17.18368103 -18.77128601 16.43112183 C-14.61126772 6.39522699 -11.84855929 -0.04592434 0 0 Z " fill="#0D7390" transform="translate(201.16015625,6.56640625)"/>
<path d="M0 0 C0.78628281 -0.00524185 1.57256561 -0.0104837 2.38267517 -0.0158844 C4.04099346 -0.02229496 5.69935727 -0.02098008 7.35766602 -0.01245117 C9.89746622 -0.00392263 12.43503025 -0.03274219 14.97460938 -0.06445312 C16.58723891 -0.0660648 18.19987243 -0.06548824 19.8125 -0.0625 C20.95163597 -0.07935097 20.95163597 -0.07935097 22.11378479 -0.09654236 C25.25521648 -0.05489565 27.34224469 0.06452885 29.90405273 1.96459961 C32.29527437 8.27360675 29.19716724 14.72844417 26.62109375 20.5234375 C26.29179367 21.28749405 25.96249359 22.0515506 25.62321472 22.83876038 C24.91098045 24.48858127 24.19416824 26.13643198 23.47323608 27.7824707 C21.91330527 31.34529068 20.37666723 34.91800424 18.83879089 38.49038696 C18.03501609 40.35736207 17.23016258 42.2238731 16.42427063 44.0899353 C12.36488893 53.49933051 8.43657305 62.9610569 4.52734375 72.43359375 C3.11119559 75.85958946 1.694225 79.28524491 0.27734375 82.7109375 C-0.08071854 83.57702637 -0.43878082 84.44311523 -0.80769348 85.33544922 C-5.17584159 95.89739412 -9.5744597 106.4466351 -13.97265625 116.99609375 C-14.81747044 119.02278385 -15.66227836 121.04947657 -16.50708008 123.07617188 C-18.2085192 127.15777308 -19.91012662 131.23930408 -21.61181641 135.32080078 C-25.38151745 144.36278577 -29.14891498 153.40573048 -32.91647339 162.4486084 C-34.15525378 165.42182725 -35.39413755 168.395003 -36.63305664 171.36816406 C-40.49531863 180.6369268 -44.35708209 189.90589635 -48.21716309 199.17556763 C-50.01568232 203.49448292 -51.81447236 207.81328541 -53.61328125 212.13208008 C-54.46042082 214.16620381 -55.30743169 216.20038116 -56.15429688 218.23461914 C-56.75274414 219.67212524 -56.75274414 219.67212524 -57.36328125 221.13867188 C-57.75398804 222.07742157 -58.14469482 223.01617126 -58.54724121 223.98336792 C-59.31187963 225.81768326 -60.07819885 227.65129898 -60.84631348 229.48416138 C-62.70919599 233.9307558 -64.54734434 238.3845751 -66.33789062 242.86083984 C-66.68974426 243.7279509 -67.0415979 244.59506195 -67.40411377 245.4884491 C-68.06211887 247.1110455 -68.71063963 248.73753688 -69.34735107 250.36860657 C-71.2408743 254.99968447 -73.22135822 258.16602145 -77.16015625 261.43359375 C-82.49025653 263.21029384 -88.25602044 262.65919323 -93.83862305 262.67382812 C-96.08614977 262.68354401 -98.33276551 262.71458362 -100.58007812 262.74609375 C-102.01171333 262.75262335 -103.44335506 262.75787399 -104.875 262.76171875 C-106.82587524 262.7757373 -106.82587524 262.7757373 -108.81616211 262.79003906 C-112.36945335 262.41128421 -113.78850466 262.07796906 -116.16015625 259.43359375 C-117.6984105 255.63524137 -116.94750074 253.05142927 -115.44593811 249.32351685 C-115.16987228 248.6766391 -114.89380646 248.02976135 -114.609375 247.36328125 C-114.32432602 246.66685516 -114.03927704 245.97042908 -113.74559021 245.25289917 C-112.79209542 242.93275555 -111.82001198 240.62088946 -110.84765625 238.30859375 C-110.1647926 236.65831593 -109.48301207 235.00758956 -108.80224609 233.35644531 C-106.97827706 228.94328068 -105.13746067 224.53735252 -103.2913208 220.13342285 C-102.17590368 217.47117924 -101.06368336 214.8076249 -99.95263672 212.14355469 C-96.21432646 203.18069174 -92.46344912 194.22317894 -88.703125 185.26953125 C-84.30502529 174.79478759 -79.94479837 164.30457296 -75.59765625 153.80859375 C-75.24898499 152.96687622 -74.90031372 152.12515869 -74.54107666 151.25793457 C-72.78329108 147.0142613 -71.02602308 142.77037399 -69.26904297 138.52636719 C-66.09036227 130.84899053 -62.90680702 123.17363493 -59.72366333 115.49810791 C-57.95229884 111.22668424 -56.18124302 106.95513258 -54.41015625 102.68359375 C-53.7018244 100.9752598 -52.99349107 99.26692647 -52.28515625 97.55859375 C-51.93453125 96.71296875 -51.58390625 95.86734375 -51.22265625 94.99609375 C-48.03515625 87.30859375 -48.03515625 87.30859375 -46.97285461 84.74661255 C-46.26382197 83.03656568 -45.55482748 81.32650299 -44.84587097 79.61642456 C-43.08604817 75.37167835 -41.3255845 71.12720029 -39.5637207 66.88330078 C-36.24403742 58.88505087 -32.93117702 50.88415105 -29.63949585 42.87432861 C-28.08578911 39.09467469 -26.52862475 35.31644969 -24.97119141 31.53833008 C-24.23036567 29.73842295 -23.49123118 27.93781866 -22.75390625 26.13647461 C-21.73085129 23.63737137 -20.70196893 21.14073973 -19.671875 18.64453125 C-19.37468063 17.91410614 -19.07748627 17.18368103 -18.77128601 16.43112183 C-14.61126772 6.39522699 -11.84855929 -0.04592434 0 0 Z " fill="#0D7390" transform="translate(125.16015625,6.56640625)"/>
</svg>
